Hubli-Regulartt-exp.ufo
<glyph name="knvR" format="1">
  <advance width="1031"/>
  <unicode hex="0C8B"/>
  <outline>
    <contour>
      <point x="444" y="470" type="curve" smooth="yes"/>
      <point x="556" y="470" type="line" smooth="yes"/>
      <point x="615" y="470"/>
      <point x="650" y="490"/>
      <point x="676" y="532" type="curve" smooth="yes"/>
      <point x="685" y="547"/>
      <point x="706" y="552"/>
      <point x="721" y="543" type="curve" smooth="yes"/>
      <point x="736" y="534"/>
      <point x="741" y="513"/>
      <point x="732" y="498" type="curve" smooth="yes"/>
      <point x="694" y="436"/>
      <point x="643" y="404"/>
      <point x="556" y="404" type="curve" smooth="yes"/>
      <point x="444" y="404" type="line" smooth="yes"/>
      <point x="426" y="404"/>
      <point x="411" y="419"/>
      <point x="411" y="437" type="curve" smooth="yes"/>
      <point x="411" y="455"/>
      <point x="426" y="470"/>
    </contour>
    <component base="knKha" xOffset="-59" yOffset="-142"/>
    <component base="knUsign" xOffset="986" yOffset="-356"/>
    <component base="knKHA"/>
    <component base="knmU" xOffset="750"/>
    <component base="knKha" xOffset="-59" yOffset="-142"/>
    <component base="knUsign" xOffset="986" yOffset="-356"/>
    <component base="knKHA"/>
    <component base="knmU" xOffset="750"/>
  </outline>
</glyph>
<glyph name="knEE" format="1">
  <advance width="700"/>
  <unicode hex="0C8F"/>
  <outline>
    <contour>
      <point x="195" y="500" type="curve" smooth="yes"/>
      <point x="195" y="437"/>
      <point x="223" y="383"/>
      <point x="269" y="383" type="curve" smooth="yes"/>
      <point x="305" y="383"/>
      <point x="322" y="421"/>
      <point x="325" y="454" type="curve" smooth="yes"/>
      <point x="327" y="472"/>
      <point x="343" y="486"/>
      <point x="361" y="484" type="curve" smooth="yes"/>
      <point x="379" y="482"/>
      <point x="393" y="466"/>
      <point x="391" y="448" type="curve" smooth="yes"/>
      <point x="384" y="375"/>
      <point x="335" y="317"/>
      <point x="269" y="317" type="curve" smooth="yes"/>
      <point x="197" y="317"/>
      <point x="129" y="381"/>
      <point x="129" y="500" type="curve" smooth="yes"/>
      <point x="129" y="518"/>
      <point x="144" y="533"/>
      <point x="162" y="533" type="curve" smooth="yes"/>
      <point x="180" y="533"/>
      <point x="195" y="518"/>
    </contour>
    <contour>
      <point x="173" y="187" type="curve" smooth="yes"/>
      <point x="131" y="181"/>
      <point x="105" y="156"/>
      <point x="105" y="122" type="curve" smooth="yes"/>
      <point x="105" y="85"/>
      <point x="139" y="60"/>
      <point x="183" y="60" type="curve" smooth="yes"/>
      <point x="245" y="60"/>
      <point x="281" y="87"/>
      <point x="311" y="144" type="curve" smooth="yes"/>
      <point x="316" y="153"/>
      <point x="329" y="161"/>
      <point x="340" y="161" type="curve" smooth="yes"/>
      <point x="345" y="161" type="line" smooth="yes"/>
      <point x="356" y="161"/>
      <point x="368" y="154"/>
      <point x="374" y="145" type="curve" smooth="yes"/>
      <point x="406" y="87"/>
      <point x="438" y="60"/>
      <point x="490" y="60" type="curve" smooth="yes"/>
      <point x="545" y="60"/>
      <point x="589" y="101"/>
      <point x="588" y="172" type="curve" smooth="yes"/>
      <point x="587" y="280"/>
      <point x="514" y="386"/>
      <point x="353" y="423" type="curve" smooth="yes"/>
      <point x="335" y="427"/>
      <point x="324" y="445"/>
      <point x="328" y="462" type="curve" smooth="yes"/>
      <point x="332" y="480"/>
      <point x="350" y="491"/>
      <point x="367" y="487" type="curve" smooth="yes"/>
      <point x="570" y="442"/>
      <point x="653" y="304"/>
      <point x="654" y="172" type="curve" smooth="yes"/>
      <point x="655" y="55"/>
      <point x="577" y="-6"/>
      <point x="490" y="-6" type="curve" smooth="yes"/>
      <point x="416" y="-6"/>
      <point x="366" y="27"/>
      <point x="316" y="111" type="curve"/>
      <point x="345" y="95" type="line"/>
      <point x="340" y="95" type="line"/>
      <point x="369" y="112" type="line"/>
      <point x="325" y="31"/>
      <point x="273" y="-6"/>
      <point x="183" y="-6" type="curve" smooth="yes"/>
      <point x="91" y="-6"/>
      <point x="39" y="53"/>
      <point x="39" y="122" type="curve"/>
      <point x="39" y="184"/>
      <point x="81" y="241"/>
      <point x="163" y="253" type="curve" smooth="yes"/>
      <point x="181" y="255"/>
      <point x="198" y="242"/>
      <point x="201" y="225" type="curve" smooth="yes"/>
      <point x="203" y="207"/>
      <point x="190" y="190"/>
    </contour>
  </outline>
</glyph>
<glyph name="knO" format="1">
  <advance width="716"/>
  <unicode hex="0C92"/>
  <outline>
    <contour>
      <point x="46" y="428" type="curve" smooth="yes"/>
      <point x="80" y="463"/>
      <point x="121" y="485"/>
      <point x="169" y="485" type="curve" smooth="yes"/>
      <point x="243" y="485"/>
      <point x="287" y="435"/>
      <point x="287" y="375" type="curve" smooth="yes"/>
      <point x="287" y="329"/>
      <point x="265" y="287"/>
      <point x="196" y="231" type="curve" smooth="yes"/>
      <point x="157" y="200"/>
      <point x="129" y="168"/>
      <point x="129" y="129" type="curve" smooth="yes"/>
      <point x="129" y="90"/>
      <point x="159" y="60"/>
      <point x="208" y="60" type="curve" smooth="yes"/>
      <point x="264" y="60"/>
      <point x="300" y="86"/>
      <point x="337" y="145" type="curve" smooth="yes"/>
      <point x="342" y="154"/>
      <point x="355" y="161"/>
      <point x="365" y="161" type="curve" smooth="yes"/>
      <point x="370" y="161" type="line" smooth="yes"/>
      <point x="380" y="161"/>
      <point x="392" y="154"/>
      <point x="398" y="146" type="curve" smooth="yes"/>
      <point x="432" y="92"/>
      <point x="470" y="60"/>
      <point x="531" y="60" type="curve" smooth="yes"/>
      <point x="581" y="60"/>
      <point x="613" y="93"/>
      <point x="613" y="134" type="curve" smooth="yes"/>
      <point x="613" y="168"/>
      <point x="595" y="193"/>
      <point x="565" y="209" type="curve" smooth="yes"/>
      <point x="549" y="218"/>
      <point x="544" y="239"/>
      <point x="552" y="254" type="curve" smooth="yes"/>
      <point x="561" y="270"/>
      <point x="582" y="275"/>
      <point x="597" y="267" type="curve" smooth="yes"/>
      <point x="649" y="237"/>
      <point x="679" y="194"/>
      <point x="679" y="134" type="curve" smooth="yes"/>
      <point x="679" y="59"/>
      <point x="625" y="-6"/>
      <point x="531" y="-6" type="curve" smooth="yes"/>
      <point x="446" y="-6"/>
      <point x="392" y="34"/>
      <point x="342" y="110" type="curve"/>
      <point x="370" y="95" type="line"/>
      <point x="365" y="95" type="line"/>
      <point x="393" y="111" type="line"/>
      <point x="340" y="26"/>
      <point x="286" y="-6"/>
      <point x="208" y="-6" type="curve" smooth="yes"/>
      <point x="111" y="-6"/>
      <point x="63" y="58"/>
      <point x="63" y="129" type="curve"/>
      <point x="63" y="186"/>
      <point x="97" y="236"/>
      <point x="154" y="283" type="curve" smooth="yes"/>
      <point x="199" y="319"/>
      <point x="221" y="343"/>
      <point x="221" y="375" type="curve" smooth="yes"/>
      <point x="221" y="401"/>
      <point x="199" y="419"/>
      <point x="169" y="419" type="curve" smooth="yes"/>
      <point x="139" y="419"/>
      <point x="114" y="403"/>
      <point x="92" y="382" type="curve" smooth="yes"/>
      <point x="80" y="369"/>
      <point x="58" y="369"/>
      <point x="46" y="382" type="curve" smooth="yes"/>
      <point x="33" y="394"/>
      <point x="33" y="416"/>
    </contour>
  </outline>
</glyph>
<glyph name="knOO" format="1">
  <advance width="716"/>
  <unicode hex="0C93"/>
  <outline>
    <contour>
      <point x="313" y="568" type="curve" smooth="yes"/>
      <point x="302" y="573"/>
      <point x="287" y="578"/>
      <point x="268" y="578" type="curve" smooth="yes"/>
      <point x="240" y="578"/>
      <point x="222" y="557"/>
      <point x="222" y="531" type="curve" smooth="yes"/>
      <point x="222" y="508"/>
      <point x="227" y="485"/>
      <point x="231" y="471" type="curve" smooth="yes"/>
      <point x="235" y="454"/>
      <point x="224" y="435"/>
      <point x="207" y="431" type="curve" smooth="yes"/>
      <point x="190" y="427"/>
      <point x="171" y="438"/>
      <point x="167" y="455" type="curve" smooth="yes"/>
      <point x="163" y="473"/>
      <point x="156" y="502"/>
      <point x="156" y="531" type="curve" smooth="yes"/>
      <point x="156" y="595"/>
      <point x="202" y="644"/>
      <point x="268" y="644" type="curve" smooth="yes"/>
      <point x="299" y="644"/>
      <point x="322" y="637"/>
      <point x="341" y="628" type="curve" smooth="yes"/>
      <point x="357" y="620"/>
      <point x="364" y="600"/>
      <point x="357" y="584" type="curve" smooth="yes"/>
      <point x="349" y="568"/>
      <point x="329" y="561"/>
    </contour>
    <component base="knO"/>
    <component base="knO"/>
  </outline>
</glyph>
<glyph name="knKA" format="1">
  <advance width="673"/>
  <unicode hex="0C95"/>
  <outline>
    <contour>
      <point x="79" y="470" type="curve" smooth="yes"/>
      <point x="465" y="470" type="line" smooth="yes"/>
      <point x="524" y="470"/>
      <point x="559" y="490"/>
      <point x="585" y="532" type="curve" smooth="yes"/>
      <point x="594" y="547"/>
      <point x="615" y="552"/>
      <point x="630" y="543" type="curve" smooth="yes"/>
      <point x="645" y="534"/>
      <point x="650" y="513"/>
      <point x="641" y="498" type="curve" smooth="yes"/>
      <point x="603" y="436"/>
      <point x="552" y="404"/>
      <point x="465" y="404" type="curve" smooth="yes"/>
      <point x="79" y="404" type="line" smooth="yes"/>
      <point x="61" y="404"/>
      <point x="46" y="419"/>
      <point x="46" y="437" type="curve" smooth="yes"/>
      <point x="46" y="455"/>
      <point x="61" y="470"/>
    </contour>
    <contour>
      <point x="75" y="315" type="curve" smooth="yes"/>
      <point x="596" y="315" type="line" smooth="yes"/>
      <point x="614" y="315"/>
      <point x="629" y="300"/>
      <point x="629" y="282" type="curve" smooth="yes"/>
      <point x="629" y="264"/>
      <point x="614" y="249"/>
      <point x="596" y="249" type="curve" smooth="yes"/>
      <point x="75" y="249" type="line" smooth="yes"/>
      <point x="57" y="249"/>
      <point x="42" y="264"/>
      <point x="42" y="282" type="curve" smooth="yes"/>
      <point x="42" y="300"/>
      <point x="57" y="315"/>
    </contour>
    <contour>
      <point x="304" y="285" type="curve" smooth="yes"/>
      <point x="304" y="409" type="line" smooth="yes"/>
      <point x="304" y="427"/>
      <point x="319" y="442"/>
      <point x="337" y="442" type="curve" smooth="yes"/>
      <point x="355" y="442"/>
      <point x="370" y="427"/>
      <point x="370" y="409" type="curve" smooth="yes"/>
      <point x="370" y="285" type="line" smooth="yes"/>
      <point x="370" y="267"/>
      <point x="355" y="252"/>
      <point x="337" y="252" type="curve" smooth="yes"/>
      <point x="319" y="252"/>
      <point x="304" y="267"/>
    </contour>
    <contour>
      <point x="299" y="247" type="curve" smooth="yes"/>
      <point x="242" y="238"/>
      <point x="203" y="199"/>
      <point x="203" y="151" type="curve" smooth="yes"/>
      <point x="203" y="100"/>
      <point x="244" y="52"/>
      <point x="336" y="52" type="curve" smooth="yes"/>
      <point x="431" y="52"/>
      <point x="471" y="100"/>
      <point x="471" y="151" type="curve" smooth="yes"/>
      <point x="471" y="199"/>
      <point x="431" y="239"/>
      <point x="374" y="247" type="curve" smooth="yes"/>
      <point x="357" y="250"/>
      <point x="344" y="267"/>
      <point x="346" y="285" type="curve" smooth="yes"/>
      <point x="349" y="302"/>
      <point x="366" y="315"/>
      <point x="384" y="313" type="curve" smooth="yes"/>
      <point x="479" y="299"/>
      <point x="537" y="227"/>
      <point x="537" y="151" type="curve" smooth="yes"/>
      <point x="537" y="76"/>
      <point x="494" y="-14"/>
      <point x="336" y="-14" type="curve" smooth="yes"/>
      <point x="182" y="-14"/>
      <point x="137" y="74"/>
      <point x="137" y="151" type="curve" smooth="yes"/>
      <point x="137" y="227"/>
      <point x="194" y="298"/>
      <point x="289" y="313" type="curve" smooth="yes"/>
      <point x="306" y="315"/>
      <point x="324" y="303"/>
      <point x="327" y="285" type="curve" smooth="yes"/>
      <point x="329" y="268"/>
      <point x="317" y="250"/>
    </contour>
  </outline>
</glyph>
<glyph name="knGA" format="1">
  <advance width="611"/>
  <unicode hex="0C97"/>
  <outline>
    <contour>
      <point x="63" y="470" type="curve" smooth="yes"/>
      <point x="424" y="470" type="line" smooth="yes"/>
      <point x="483" y="470"/>
      <point x="518" y="490"/>
      <point x="544" y="532" type="curve" smooth="yes"/>
      <point x="553" y="547"/>
      <point x="574" y="552"/>
      <point x="589" y="543" type="curve" smooth="yes"/>
      <point x="604" y="534"/>
      <point x="609" y="513"/>
      <point x="600" y="498" type="curve" smooth="yes"/>
      <point x="562" y="436"/>
      <point x="511" y="404"/>
      <point x="424" y="404" type="curve" smooth="yes"/>
      <point x="63" y="404" type="line" smooth="yes"/>
      <point x="45" y="404"/>
      <point x="30" y="419"/>
      <point x="30" y="437" type="curve" smooth="yes"/>
      <point x="30" y="455"/>
      <point x="45" y="470"/>
    </contour>
    <contour>
      <point x="446" y="41" type="curve" smooth="yes"/>
      <point x="466" y="83"/>
      <point x="478" y="124"/>
      <point x="478" y="180" type="curve" smooth="yes"/>
      <point x="478" y="263"/>
      <point x="419" y="356"/>
      <point x="308" y="407" type="curve" smooth="yes"/>
      <point x="292" y="415"/>
      <point x="285" y="435"/>
      <point x="292" y="451" type="curve" smooth="yes"/>
      <point x="300" y="467"/>
      <point x="320" y="474"/>
      <point x="336" y="467" type="curve" smooth="yes"/>
      <point x="475" y="402"/>
      <point x="544" y="283"/>
      <point x="544" y="180" type="curve" smooth="yes"/>
      <point x="544" y="112"/>
      <point x="530" y="63"/>
      <point x="506" y="13" type="curve" smooth="yes"/>
      <point x="498" y="-3"/>
      <point x="478" y="-10"/>
      <point x="462" y="-3" type="curve" smooth="yes"/>
      <point x="446" y="5"/>
      <point x="439" y="25"/>
    </contour>
    <contour>
      <point x="298" y="407" type="curve" smooth="yes"/>
      <point x="189" y="357"/>
      <point x="135" y="264"/>
      <point x="135" y="180" type="curve" smooth="yes"/>
      <point x="135" y="125"/>
      <point x="146" y="82"/>
      <point x="166" y="42" type="curve" smooth="yes"/>
      <point x="175" y="26"/>
      <point x="168" y="6"/>
      <point x="152" y="-2" type="curve" smooth="yes"/>
      <point x="136" y="-11"/>
      <point x="116" y="-4"/>
      <point x="108" y="12" type="curve" smooth="yes"/>
      <point x="82" y="60"/>
      <point x="69" y="113"/>
      <point x="69" y="180" type="curve" smooth="yes"/>
      <point x="69" y="284"/>
      <point x="133" y="403"/>
      <point x="270" y="467" type="curve" smooth="yes"/>
      <point x="286" y="474"/>
      <point x="306" y="467"/>
      <point x="314" y="451" type="curve" smooth="yes"/>
      <point x="321" y="435"/>
      <point x="314" y="415"/>
    </contour>
  </outline>
</glyph>
<glyph name="knJA" format="1">
  <advance width="716"/>
  <unicode hex="0C9C"/>
  <outline>
    <contour>
      <point x="557" y="453" type="curve" smooth="yes"/>
      <point x="567" y="435"/>
      <point x="576" y="411"/>
      <point x="576" y="381" type="curve" smooth="yes"/>
      <point x="576" y="314"/>
      <point x="530" y="264"/>
      <point x="448" y="264" type="curve" smooth="yes"/>
      <point x="382" y="264"/>
      <point x="297" y="300"/>
      <point x="220" y="394" type="curve" smooth="yes"/>
      <point x="208" y="408"/>
      <point x="210" y="429"/>
      <point x="224" y="440" type="curve" smooth="yes"/>
      <point x="238" y="452"/>
      <point x="259" y="450"/>
      <point x="270" y="436" type="curve" smooth="yes"/>
      <point x="331" y="362"/>
      <point x="396" y="330"/>
      <point x="448" y="330" type="curve" smooth="yes"/>
      <point x="484" y="330"/>
      <point x="510" y="348"/>
      <point x="510" y="381" type="curve" smooth="yes"/>
      <point x="510" y="397"/>
      <point x="505" y="411"/>
      <point x="499" y="421" type="curve" smooth="yes"/>
      <point x="491" y="436"/>
      <point x="496" y="457"/>
      <point x="512" y="466" type="curve" smooth="yes"/>
      <point x="527" y="474"/>
      <point x="548" y="469"/>
    </contour>
    <component base="knO"/>
    <component base="knO"/>
  </outline>
</glyph>
<glyph name="knNYA" format="1">
  <advance width="897"/>
  <unicode hex="0C9E"/>
  <outline>
    <contour>
      <point x="574" y="366" type="curve" smooth="yes"/>
      <point x="610" y="427"/>
      <point x="659" y="470"/>
      <point x="723" y="470" type="curve" smooth="yes"/>
      <point x="811" y="470"/>
      <point x="842" y="403"/>
      <point x="842" y="350" type="curve" smooth="yes"/>
      <point x="842" y="312"/>
      <point x="830" y="276"/>
      <point x="813" y="241" type="curve" smooth="yes"/>
      <point x="805" y="225"/>
      <point x="785" y="218"/>
      <point x="769" y="225" type="curve" smooth="yes"/>
      <point x="753" y="233"/>
      <point x="746" y="253"/>
      <point x="753" y="269" type="curve" smooth="yes"/>
      <point x="766" y="296"/>
      <point x="776" y="322"/>
      <point x="776" y="350" type="curve" smooth="yes"/>
      <point x="776" y="373"/>
      <point x="763" y="404"/>
      <point x="723" y="404" type="curve" smooth="yes"/>
      <point x="681" y="404"/>
      <point x="654" y="371"/>
      <point x="632" y="332" type="curve" smooth="yes"/>
      <point x="623" y="317"/>
      <point x="602" y="312"/>
      <point x="586" y="320" type="curve" smooth="yes"/>
      <point x="571" y="329"/>
      <point x="566" y="350"/>
    </contour>
    <component base="knI"/>
    <component base="knI"/>
  </outline>
</glyph>
<glyph name="knNA" format="1">
  <advance width="625"/>
  <unicode hex="0CA8"/>
  <outline>
    <contour>
      <point x="81" y="470" type="curve" smooth="yes"/>
      <point x="415" y="470" type="line" smooth="yes"/>
      <point x="474" y="470"/>
      <point x="509" y="490"/>
      <point x="535" y="532" type="curve" smooth="yes"/>
      <point x="544" y="547"/>
      <point x="565" y="552"/>
      <point x="580" y="543" type="curve" smooth="yes"/>
      <point x="595" y="534"/>
      <point x="600" y="513"/>
      <point x="591" y="498" type="curve" smooth="yes"/>
      <point x="553" y="436"/>
      <point x="502" y="404"/>
      <point x="415" y="404" type="curve" smooth="yes"/>
      <point x="81" y="404" type="line" smooth="yes"/>
      <point x="63" y="404"/>
      <point x="48" y="419"/>
      <point x="48" y="437" type="curve" smooth="yes"/>
      <point x="48" y="455"/>
      <point x="63" y="470"/>
    </contour>
    <contour>
      <point x="87" y="5" type="curve" smooth="yes"/>
      <point x="79" y="43"/>
      <point x="75" y="82"/>
      <point x="76" y="113" type="curve" smooth="yes"/>
      <point x="79" y="164"/>
      <point x="94" y="206"/>
      <point x="117" y="228" type="curve" smooth="yes"/>
      <point x="143" y="256"/>
      <point x="169" y="267"/>
      <point x="207" y="267" type="curve" smooth="yes"/>
      <point x="253" y="267"/>
      <point x="304" y="239"/>
      <point x="349" y="164" type="curve" smooth="yes"/>
      <point x="386" y="103"/>
      <point x="407" y="60"/>
      <point x="459" y="60" type="curve" smooth="yes"/>
      <point x="504" y="60"/>
      <point x="534" y="104"/>
      <point x="534" y="155" type="curve" smooth="yes"/>
      <point x="534" y="263"/>
      <point x="458" y="356"/>
      <point x="327" y="406" type="curve" smooth="yes"/>
      <point x="311" y="413"/>
      <point x="302" y="432"/>
      <point x="308" y="449" type="curve" smooth="yes"/>
      <point x="315" y="465"/>
      <point x="334" y="474"/>
      <point x="351" y="468" type="curve" smooth="yes"/>
      <point x="514" y="406"/>
      <point x="600" y="287"/>
      <point x="600" y="155" type="curve" smooth="yes"/>
      <point x="600" y="58"/>
      <point x="536" y="-6"/>
      <point x="459" y="-6" type="curve" smooth="yes"/>
      <point x="387" y="-6"/>
      <point x="348" y="37"/>
      <point x="293" y="130" type="curve" smooth="yes"/>
      <point x="266" y="175"/>
      <point x="237" y="201"/>
      <point x="207" y="201" type="curve" smooth="yes"/>
      <point x="189" y="201"/>
      <point x="177" y="196"/>
      <point x="163" y="182" type="curve" smooth="yes"/>
      <point x="150" y="168"/>
      <point x="143" y="140"/>
      <point x="142" y="111" type="curve" smooth="yes"/>
      <point x="141" y="84"/>
      <point x="145" y="51"/>
      <point x="151" y="17" type="curve" smooth="yes"/>
      <point x="155" y="0"/>
      <point x="143" y="-18"/>
      <point x="125" y="-21" type="curve" smooth="yes"/>
      <point x="108" y="-25"/>
      <point x="90" y="-13"/>
    </contour>
  </outline>
</glyph>
<glyph name="knSA" format="1">
  <advance width="640"/>
  <unicode hex="0CB8"/>
  <outline>
    <contour>
      <point x="324" y="448" type="curve" smooth="yes"/>
      <point x="397" y="448"/>
      <point x="442" y="396"/>
      <point x="442" y="334" type="curve" smooth="yes"/>
      <point x="442" y="270"/>
      <point x="397" y="220"/>
      <point x="325" y="220" type="curve" smooth="yes"/>
      <point x="254" y="220"/>
      <point x="208" y="272"/>
      <point x="208" y="333" type="curve" smooth="yes"/>
      <point x="208" y="397"/>
      <point x="257" y="448"/>
    </contour>
    <contour>
      <point x="78" y="470" type="curve" smooth="yes"/>
      <point x="450" y="470" type="line" smooth="yes"/>
      <point x="509" y="470"/>
      <point x="544" y="490"/>
      <point x="570" y="532" type="curve" smooth="yes"/>
      <point x="579" y="547"/>
      <point x="600" y="552"/>
      <point x="615" y="543" type="curve" smooth="yes"/>
      <point x="630" y="534"/>
      <point x="635" y="513"/>
      <point x="626" y="498" type="curve" smooth="yes"/>
      <point x="588" y="436"/>
      <point x="537" y="404"/>
      <point x="450" y="404" type="curve" smooth="yes"/>
      <point x="78" y="404" type="line" smooth="yes"/>
      <point x="60" y="404"/>
      <point x="45" y="419"/>
      <point x="45" y="437" type="curve" smooth="yes"/>
      <point x="45" y="455"/>
      <point x="60" y="470"/>
    </contour>
    <contour>
      <point x="55" y="6" type="curve" smooth="yes"/>
      <point x="61" y="88"/>
      <point x="89" y="139"/>
      <point x="117" y="166" type="curve" smooth="yes"/>
      <point x="139" y="187"/>
      <point x="172" y="205"/>
      <point x="219" y="205" type="curve" smooth="yes"/>
      <point x="269" y="205"/>
      <point x="315" y="181"/>
      <point x="365" y="129" type="curve" smooth="yes"/>
      <point x="402" y="91"/>
      <point x="432" y="60"/>
      <point x="472" y="60" type="curve" smooth="yes"/>
      <point x="516" y="60"/>
      <point x="534" y="118"/>
      <point x="534" y="172" type="curve" smooth="yes"/>
      <point x="534" y="197"/>
      <point x="529" y="231"/>
      <point x="520" y="257" type="curve" smooth="yes"/>
      <point x="515" y="274"/>
      <point x="525" y="293"/>
      <point x="542" y="299" type="curve" smooth="yes"/>
      <point x="559" y="304"/>
      <point x="578" y="294"/>
      <point x="584" y="277" type="curve" smooth="yes"/>
      <point x="593" y="245"/>
      <point x="600" y="203"/>
      <point x="600" y="172" type="curve" smooth="yes"/>
      <point x="600" y="62"/>
      <point x="542" y="-6"/>
      <point x="472" y="-6" type="curve" smooth="yes"/>
      <point x="416" y="-6"/>
      <point x="372" y="27"/>
      <point x="317" y="83" type="curve" smooth="yes"/>
      <point x="283" y="119"/>
      <point x="253" y="139"/>
      <point x="219" y="139" type="curve" smooth="yes"/>
      <point x="194" y="139"/>
      <point x="175" y="131"/>
      <point x="163" y="118" type="curve" smooth="yes"/>
      <point x="143" y="99"/>
      <point x="125" y="60"/>
      <point x="121" y="2" type="curve" smooth="yes"/>
      <point x="120" y="-16"/>
      <point x="103" y="-30"/>
      <point x="86" y="-29" type="curve" smooth="yes"/>
      <point x="68" y="-28"/>
      <point x="54" y="-11"/>
    </contour>
    <contour>
      <point x="324" y="382" type="curve" smooth="yes"/>
      <point x="295" y="382"/>
      <point x="274" y="361"/>
      <point x="274" y="333" type="curve" smooth="yes"/>
      <point x="274" y="306"/>
      <point x="296" y="286"/>
      <point x="325" y="286" type="curve" smooth="yes"/>
      <point x="355" y="286"/>
      <point x="376" y="306"/>
      <point x="376" y="334" type="curve" smooth="yes"/>
      <point x="376" y="362"/>
      <point x="355" y="382"/>
    </contour>
  </outline>
</glyph>
<glyph name="knHA" format="1">
  <advance width="734"/>
  <unicode hex="0CB9"/>
  <outline>
    <contour>
      <point x="391" y="154" type="curve" smooth="yes"/>
      <point x="391" y="68"/>
      <point x="322" y="-10"/>
      <point x="211" y="-10" type="curve" smooth="yes"/>
      <point x="105" y="-10"/>
      <point x="40" y="67"/>
      <point x="40" y="154" type="curve"/>
      <point x="40" y="238"/>
      <point x="106" y="317"/>
      <point x="211" y="317" type="curve" smooth="yes"/>
      <point x="325" y="317"/>
      <point x="391" y="237"/>
    </contour>
    <contour>
      <point x="702" y="154" type="curve" smooth="yes"/>
      <point x="702" y="68"/>
      <point x="640" y="-10"/>
      <point x="529" y="-10" type="curve" smooth="yes"/>
      <point x="423" y="-10"/>
      <point x="351" y="68"/>
      <point x="351" y="154" type="curve" smooth="yes"/>
      <point x="351" y="237"/>
      <point x="421" y="317"/>
      <point x="529" y="317" type="curve" smooth="yes"/>
      <point x="639" y="317"/>
      <point x="702" y="238"/>
    </contour>
    <contour>
      <point x="325" y="154" type="curve" smooth="yes"/>
      <point x="325" y="207"/>
      <point x="279" y="251"/>
      <point x="211" y="251" type="curve" smooth="yes"/>
      <point x="148" y="251"/>
      <point x="106" y="206"/>
      <point x="106" y="154" type="curve" smooth="yes"/>
      <point x="106" y="101"/>
      <point x="147" y="56"/>
      <point x="211" y="56" type="curve" smooth="yes"/>
      <point x="278" y="56"/>
      <point x="325" y="100"/>
    </contour>
    <contour>
      <point x="636" y="154" type="curve" smooth="yes"/>
      <point x="636" y="206"/>
      <point x="595" y="251"/>
      <point x="529" y="251" type="curve" smooth="yes"/>
      <point x="465" y="251"/>
      <point x="417" y="207"/>
      <point x="417" y="154" type="curve" smooth="yes"/>
      <point x="417" y="100"/>
      <point x="465" y="56"/>
      <point x="529" y="56" type="curve" smooth="yes"/>
      <point x="596" y="56"/>
      <point x="636" y="101"/>
    </contour>
    <contour>
      <point x="90" y="470" type="curve" smooth="yes"/>
      <point x="531" y="470" type="line" smooth="yes"/>
      <point x="590" y="470"/>
      <point x="625" y="490"/>
      <point x="651" y="532" type="curve" smooth="yes"/>
      <point x="660" y="547"/>
      <point x="681" y="552"/>
      <point x="696" y="543" type="curve" smooth="yes"/>
      <point x="711" y="534"/>
      <point x="716" y="513"/>
      <point x="707" y="498" type="curve" smooth="yes"/>
      <point x="669" y="436"/>
      <point x="618" y="404"/>
      <point x="531" y="404" type="curve" smooth="yes"/>
      <point x="90" y="404" type="line" smooth="yes"/>
      <point x="72" y="404"/>
      <point x="57" y="419"/>
      <point x="57" y="437" type="curve" smooth="yes"/>
      <point x="57" y="455"/>
      <point x="72" y="470"/>
    </contour>
    <contour>
      <point x="338" y="248" type="curve" smooth="yes"/>
      <point x="338" y="409" type="line" smooth="yes"/>
      <point x="338" y="427"/>
      <point x="353" y="442"/>
      <point x="371" y="442" type="curve" smooth="yes"/>
      <point x="389" y="442"/>
      <point x="404" y="427"/>
      <point x="404" y="409" type="curve" smooth="yes"/>
      <point x="404" y="248" type="line" smooth="yes"/>
      <point x="404" y="230"/>
      <point x="389" y="215"/>
      <point x="371" y="215" type="curve" smooth="yes"/>
      <point x="353" y="215"/>
      <point x="338" y="230"/>
    </contour>
  </outline>
</glyph>
<glyph name="knmE" format="1">
  <advance width="0"/>
  <unicode hex="0CC6"/>
  <outline>
    <contour>
      <point x="-328" y="470" type="curve" smooth="yes"/>
      <point x="-207" y="470" type="line" smooth="yes"/>
      <point x="-139" y="470"/>
      <point x="-92" y="497"/>
      <point x="-92" y="535" type="curve" smooth="yes"/>
      <point x="-92" y="564"/>
      <point x="-116" y="586"/>
      <point x="-149" y="586" type="curve" smooth="yes"/>
      <point x="-192" y="586"/>
      <point x="-218" y="544"/>
      <point x="-218" y="495" type="curve" smooth="yes"/>
      <point x="-218" y="485"/>
      <point x="-217" y="473"/>
      <point x="-215" y="459" type="curve" smooth="yes"/>
      <point x="-213" y="442"/>
      <point x="-226" y="425"/>
      <point x="-244" y="422" type="curve" smooth="yes"/>
      <point x="-261" y="420"/>
      <point x="-278" y="433"/>
      <point x="-281" y="451" type="curve" smooth="yes"/>
      <point x="-283" y="467"/>
      <point x="-284" y="483"/>
      <point x="-284" y="495" type="curve" smooth="yes"/>
      <point x="-284" y="592"/>
      <point x="-222" y="652"/>
      <point x="-149" y="652" type="curve" smooth="yes"/>
      <point x="-72" y="652"/>
      <point x="-26" y="598"/>
      <point x="-26" y="535" type="curve" smooth="yes"/>
      <point x="-26" y="475"/>
      <point x="-69" y="404"/>
      <point x="-207" y="404" type="curve" smooth="yes"/>
      <point x="-328" y="404" type="line" smooth="yes"/>
      <point x="-346" y="404"/>
      <point x="-361" y="419"/>
      <point x="-361" y="437" type="curve" smooth="yes"/>
      <point x="-361" y="455"/>
      <point x="-346" y="470"/>
    </contour>
  </outline>
</glyph>
<glyph name="knmAU" format="1">
  <advance width="337"/>
  <unicode hex="0CCC"/>
  <outline>
    <contour>
      <point x="-251" y="641" type="curve" smooth="yes"/>
      <point x="23" y="641" type="line" smooth="yes"/>
      <point x="186" y="641"/>
      <point x="307" y="538"/>
      <point x="307" y="331" type="curve" smooth="yes"/>
      <point x="307" y="210"/>
      <point x="241" y="150"/>
      <point x="164" y="150" type="curve" smooth="yes"/>
      <point x="83" y="150"/>
      <point x="39" y="208"/>
      <point x="38" y="270" type="curve" smooth="yes"/>
      <point x="37" y="340"/>
      <point x="87" y="410"/>
      <point x="185" y="410" type="curve" smooth="yes"/>
      <point x="217" y="410"/>
      <point x="251" y="405"/>
      <point x="279" y="396" type="curve" smooth="yes"/>
      <point x="296" y="391"/>
      <point x="306" y="372"/>
      <point x="300" y="355" type="curve" smooth="yes"/>
      <point x="295" y="338"/>
      <point x="276" y="328"/>
      <point x="259" y="334" type="curve" smooth="yes"/>
      <point x="237" y="341"/>
      <point x="211" y="344"/>
      <point x="185" y="344" type="curve" smooth="yes"/>
      <point x="135" y="344"/>
      <point x="103" y="310"/>
      <point x="104" y="272" type="curve" smooth="yes"/>
      <point x="105" y="242"/>
      <point x="127" y="216"/>
      <point x="164" y="216" type="curve" smooth="yes"/>
      <point x="213" y="216"/>
      <point x="241" y="266"/>
      <point x="241" y="331" type="curve" smooth="yes"/>
      <point x="241" y="490"/>
      <point x="152" y="575"/>
      <point x="23" y="575" type="curve" smooth="yes"/>
      <point x="-251" y="575" type="line" smooth="yes"/>
      <point x="-269" y="575"/>
      <point x="-284" y="590"/>
      <point x="-284" y="608" type="curve" smooth="yes"/>
      <point x="-284" y="626"/>
      <point x="-269" y="641"/>
    </contour>
    <contour>
      <point x="-205" y="470" type="curve" smooth="yes"/>
      <point x="-122" y="470"/>
      <point x="-81" y="513"/>
      <point x="-57" y="611" type="curve" smooth="yes"/>
      <point x="-53" y="628"/>
      <point x="-34" y="639"/>
      <point x="-17" y="635" type="curve" smooth="yes"/>
      <point x="0" y="631"/>
      <point x="11" y="612"/>
      <point x="7" y="595" type="curve" smooth="yes"/>
      <point x="-27" y="455"/>
      <point x="-90" y="404"/>
      <point x="-205" y="404" type="curve" smooth="yes"/>
      <point x="-223" y="404"/>
      <point x="-238" y="419"/>
      <point x="-238" y="437" type="curve" smooth="yes"/>
      <point x="-238" y="455"/>
      <point x="-223" y="470"/>
    </contour>
  </outline>
</glyph>
<glyph name="knLLLA" format="1">
  <advance width="753"/>
  <unicode hex="0CDE"/>
  <outline>
    <contour>
      <point x="138" y="372" type="curve" smooth="yes"/>
      <point x="159" y="341"/>
      <point x="183" y="319"/>
      <point x="215" y="319" type="curve" smooth="yes"/>
      <point x="244" y="319"/>
      <point x="270" y="337"/>
      <point x="270" y="368" type="curve" smooth="yes"/>
      <point x="270" y="399"/>
      <point x="248" y="419"/>
      <point x="215" y="419" type="curve" smooth="yes"/>
      <point x="156" y="419"/>
      <point x="118" y="321"/>
      <point x="118" y="229" type="curve" smooth="yes"/>
      <point x="118" y="139"/>
      <point x="161" y="60"/>
      <point x="232" y="60" type="curve" smooth="yes"/>
      <point x="285" y="60"/>
      <point x="315" y="89"/>
      <point x="345" y="144" type="curve" smooth="yes"/>
      <point x="350" y="153"/>
      <point x="363" y="161"/>
      <point x="374" y="161" type="curve" smooth="yes"/>
      <point x="379" y="161" type="line" smooth="yes"/>
      <point x="390" y="161"/>
      <point x="403" y="153"/>
      <point x="408" y="144" type="curve" smooth="yes"/>
      <point x="438" y="89"/>
      <point x="468" y="60"/>
      <point x="521" y="60" type="curve" smooth="yes"/>
      <point x="592" y="60"/>
      <point x="635" y="139"/>
      <point x="635" y="229" type="curve" smooth="yes"/>
      <point x="635" y="321"/>
      <point x="597" y="419"/>
      <point x="538" y="419" type="curve" smooth="yes"/>
      <point x="505" y="419"/>
      <point x="483" y="399"/>
      <point x="483" y="368" type="curve" smooth="yes"/>
      <point x="483" y="337"/>
      <point x="509" y="319"/>
      <point x="538" y="319" type="curve" smooth="yes"/>
      <point x="570" y="319"/>
      <point x="594" y="341"/>
      <point x="615" y="372" type="curve" smooth="yes"/>
      <point x="624" y="387"/>
      <point x="645" y="391"/>
      <point x="660" y="381" type="curve" smooth="yes"/>
      <point x="675" y="372"/>
      <point x="679" y="351"/>
      <point x="669" y="336" type="curve" smooth="yes"/>
      <point x="634" y="283"/>
      <point x="590" y="253"/>
      <point x="538" y="253" type="curve" smooth="yes"/>
      <point x="471" y="253"/>
      <point x="417" y="299"/>
      <point x="417" y="368" type="curve" smooth="yes"/>
      <point x="417" y="435"/>
      <point x="461" y="485"/>
      <point x="538" y="485" type="curve" smooth="yes"/>
      <point x="617" y="485"/>
      <point x="701" y="383"/>
      <point x="701" y="229" type="curve" smooth="yes"/>
      <point x="701" y="87"/>
      <point x="620" y="-6"/>
      <point x="521" y="-6" type="curve" smooth="yes"/>
      <point x="444" y="-6"/>
      <point x="394" y="29"/>
      <point x="350" y="112" type="curve"/>
      <point x="379" y="95" type="line"/>
      <point x="374" y="95" type="line"/>
      <point x="403" y="112" type="line"/>
      <point x="359" y="29"/>
      <point x="309" y="-6"/>
      <point x="232" y="-6" type="curve" smooth="yes"/>
      <point x="133" y="-6"/>
      <point x="52" y="87"/>
      <point x="52" y="229" type="curve"/>
      <point x="52" y="383"/>
      <point x="136" y="485"/>
      <point x="215" y="485" type="curve" smooth="yes"/>
      <point x="292" y="485"/>
      <point x="336" y="435"/>
      <point x="336" y="368" type="curve" smooth="yes"/>
      <point x="336" y="299"/>
      <point x="282" y="253"/>
      <point x="215" y="253" type="curve" smooth="yes"/>
      <point x="163" y="253"/>
      <point x="119" y="283"/>
      <point x="84" y="336" type="curve" smooth="yes"/>
      <point x="74" y="351"/>
      <point x="78" y="372"/>
      <point x="93" y="381" type="curve" smooth="yes"/>
      <point x="108" y="391"/>
      <point x="129" y="387"/>
    </contour>
  </outline>
</glyph>
<glyph name="zerowidthjoiner" format="1">
  <advance width="0"/>
  <unicode hex="200D"/>
  <outline>
    <contour>
      <point x="-66" y="666" type="line" smooth="yes"/>
      <point x="-66" y="684"/>
      <point x="-51" y="699"/>
      <point x="-33" y="699" type="curve" smooth="yes"/>
      <point x="18" y="699" type="line" smooth="yes"/>
      <point x="36" y="699"/>
      <point x="51" y="684"/>
      <point x="51" y="666" type="curve" smooth="yes"/>
      <point x="51" y="-346" type="line" smooth="yes"/>
      <point x="51" y="-364"/>
      <point x="36" y="-379"/>
      <point x="18" y="-379" type="curve" smooth="yes"/>
      <point x="-33" y="-379" type="line" smooth="yes"/>
      <point x="-51" y="-379"/>
      <point x="-66" y="-364"/>
      <point x="-66" y="-346" type="curve" smooth="yes"/>
    </contour>
    <contour>
      <point x="155" y="594" type="line" smooth="yes"/>
      <point x="170" y="581"/>
      <point x="170" y="560"/>
      <point x="156" y="546" type="curve" smooth="yes"/>
      <point x="115" y="507" type="line" smooth="yes"/>
      <point x="102" y="495"/>
      <point x="81" y="495"/>
      <point x="69" y="508" type="curve" smooth="yes"/>
      <point x="-30" y="607" type="line"/>
      <point x="16" y="607" type="line"/>
      <point x="-84" y="508" type="line" smooth="yes"/>
      <point x="-96" y="495"/>
      <point x="-117" y="495"/>
      <point x="-129" y="507" type="curve" smooth="yes"/>
      <point x="-171" y="546" type="line" smooth="yes"/>
      <point x="-186" y="559"/>
      <point x="-186" y="581"/>
      <point x="-171" y="594" type="curve" smooth="yes"/>
      <point x="-67" y="689" type="line"/>
      <point x="-67" y="641" type="line"/>
      <point x="-171" y="737" type="line" smooth="yes"/>
      <point x="-186" y="750"/>
      <point x="-186" y="772"/>
      <point x="-171" y="785" type="curve" smooth="yes"/>
      <point x="-130" y="823" type="line" smooth="yes"/>
      <point x="-118" y="835"/>
      <point x="-97" y="835"/>
      <point x="-85" y="823" type="curve" smooth="yes"/>
      <point x="16" y="724" type="line"/>
      <point x="-30" y="723" type="line"/>
      <point x="70" y="822" type="line" smooth="yes"/>
      <point x="82" y="835"/>
      <point x="103" y="835"/>
      <point x="116" y="823" type="curve" smooth="yes"/>
      <point x="156" y="785" type="line" smooth="yes"/>
      <point x="170" y="772"/>
      <point x="170" y="750"/>
      <point x="155" y="737" type="curve" smooth="yes"/>
      <point x="51" y="641" type="line"/>
      <point x="51" y="689" type="line"/>
    </contour>
    <contour>
      <point x="0" y="666" type="line"/>
      <point x="0" y="-346" type="line"/>
      <point x="-33" y="-313" type="line"/>
      <point x="18" y="-313" type="line"/>
      <point x="-15" y="-346" type="line"/>
      <point x="-15" y="666" type="line"/>
      <point x="18" y="633" type="line"/>
      <point x="-33" y="633" type="line"/>
    </contour>
    <contour>
      <point x="111" y="546" type="line"/>
      <point x="7" y="641" type="line" smooth="yes"/>
      <point x="-8" y="654"/>
      <point x="-8" y="676"/>
      <point x="7" y="689" type="curve" smooth="yes"/>
      <point x="111" y="785" type="line"/>
      <point x="110" y="737" type="line"/>
      <point x="70" y="775" type="line"/>
      <point x="116" y="776" type="line"/>
      <point x="16" y="677" type="line" smooth="yes"/>
      <point x="3" y="664"/>
      <point x="-17" y="664"/>
      <point x="-30" y="676" type="curve" smooth="yes"/>
      <point x="-131" y="775" type="line"/>
      <point x="-86" y="775" type="line"/>
      <point x="-127" y="737" type="line"/>
      <point x="-127" y="785" type="line"/>
      <point x="-23" y="689" type="line" smooth="yes"/>
      <point x="-8" y="676"/>
      <point x="-8" y="654"/>
      <point x="-23" y="641" type="curve" smooth="yes"/>
      <point x="-127" y="546" type="line"/>
      <point x="-127" y="594" type="line"/>
      <point x="-85" y="555" type="line"/>
      <point x="-130" y="554" type="line"/>
      <point x="-30" y="653" type="line" smooth="yes"/>
      <point x="-17" y="666"/>
      <point x="4" y="666"/>
      <point x="16" y="653" type="curve" smooth="yes"/>
      <point x="115" y="554" type="line"/>
      <point x="69" y="555" type="line"/>
      <point x="110" y="594" type="line"/>
    </contour>
  </outline>
</glyph>
<glyph name="dottedcircle" format="1">
  <advance width="660"/>
  <unicode hex="25CC"/>
  <outline>
    <contour>
      <point x="106" y="517" type="curve" smooth="yes"/>
      <point x="106" y="561"/>
      <point x="138" y="594"/>
      <point x="183" y="594" type="curve" smooth="yes"/>
      <point x="229" y="594"/>
      <point x="260" y="561"/>
      <point x="260" y="517" type="curve" smooth="yes"/>
      <point x="260" y="472"/>
      <point x="228" y="439"/>
      <point x="183" y="439" type="curve" smooth="yes"/>
      <point x="138" y="439"/>
      <point x="106" y="472"/>
    </contour>
    <contour>
      <point x="24" y="407" type="curve" smooth="yes"/>
      <point x="24" y="450"/>
      <point x="58" y="484"/>
      <point x="103" y="484" type="curve" smooth="yes"/>
      <point x="145" y="484"/>
      <point x="180" y="451"/>
      <point x="180" y="407" type="curve" smooth="yes"/>
      <point x="180" y="363"/>
      <point x="145" y="330"/>
      <point x="103" y="330" type="curve" smooth="yes"/>
      <point x="58" y="330"/>
      <point x="24" y="364"/>
    </contour>
    <contour>
      <point x="11" y="281" type="curve" smooth="yes"/>
      <point x="11" y="327"/>
      <point x="45" y="359"/>
      <point x="88" y="359" type="curve" smooth="yes"/>
      <point x="133" y="359"/>
      <point x="165" y="327"/>
      <point x="165" y="281" type="curve" smooth="yes"/>
      <point x="165" y="237"/>
      <point x="134" y="205"/>
      <point x="88" y="205" type="curve" smooth="yes"/>
      <point x="44" y="205"/>
      <point x="11" y="237"/>
    </contour>
    <contour>
      <point x="63" y="165" type="curve"/>
      <point x="63" y="209"/>
      <point x="95" y="242"/>
      <point x="140" y="242" type="curve" smooth="yes"/>
      <point x="184" y="242"/>
      <point x="217" y="209"/>
      <point x="217" y="165" type="curve" smooth="yes"/>
      <point x="217" y="120"/>
      <point x="184" y="88"/>
      <point x="140" y="88" type="curve" smooth="yes"/>
      <point x="95" y="88"/>
      <point x="63" y="120"/>
    </contour>
    <contour>
      <point x="164" y="90" type="curve" smooth="yes"/>
      <point x="164" y="132"/>
      <point x="197" y="167"/>
      <point x="242" y="167" type="curve" smooth="yes"/>
      <point x="286" y="167"/>
      <point x="319" y="132"/>
      <point x="319" y="90" type="curve" smooth="yes"/>
      <point x="319" y="45"/>
      <point x="285" y="11"/>
      <point x="242" y="11" type="curve" smooth="yes"/>
      <point x="197" y="11"/>
      <point x="164" y="45"/>
    </contour>
    <contour>
      <point x="291" y="74" type="curve" smooth="yes"/>
      <point x="291" y="120"/>
      <point x="323" y="151"/>
      <point x="368" y="151" type="curve" smooth="yes"/>
      <point x="414" y="151"/>
      <point x="446" y="119"/>
      <point x="446" y="74" type="curve" smooth="yes"/>
      <point x="446" y="29"/>
      <point x="414" y="-3"/>
      <point x="368" y="-3" type="curve" smooth="yes"/>
      <point x="323" y="-3"/>
      <point x="291" y="29"/>
    </contour>
    <contour>
      <point x="412" y="127" type="curve" smooth="yes"/>
      <point x="412" y="171"/>
      <point x="445" y="204"/>
      <point x="489" y="204" type="curve" smooth="yes"/>
      <point x="533" y="204"/>
      <point x="567" y="170"/>
      <point x="567" y="127" type="curve" smooth="yes"/>
      <point x="567" y="82"/>
      <point x="533" y="50"/>
      <point x="489" y="50" type="curve" smooth="yes"/>
      <point x="445" y="50"/>
      <point x="412" y="82"/>
    </contour>
    <contour>
      <point x="485" y="225" type="curve" smooth="yes"/>
      <point x="485" y="270"/>
      <point x="518" y="303"/>
      <point x="563" y="303" type="curve" smooth="yes"/>
      <point x="605" y="303"/>
      <point x="639" y="271"/>
      <point x="639" y="225" type="curve" smooth="yes"/>
      <point x="639" y="181"/>
      <point x="605" y="148"/>
      <point x="563" y="148" type="curve" smooth="yes"/>
      <point x="518" y="148"/>
      <point x="485" y="182"/>
    </contour>
    <contour>
      <point x="495" y="359" type="curve" smooth="yes"/>
      <point x="495" y="405"/>
      <point x="527" y="436"/>
      <point x="572" y="436" type="curve" smooth="yes"/>
      <point x="616" y="436"/>
      <point x="649" y="405"/>
      <point x="649" y="359" type="curve" smooth="yes"/>
      <point x="649" y="314"/>
      <point x="616" y="282"/>
      <point x="572" y="282" type="curve" smooth="yes"/>
      <point x="527" y="282"/>
      <point x="495" y="314"/>
    </contour>
    <contour>
      <point x="445" y="477" type="curve" smooth="yes"/>
      <point x="445" y="523"/>
      <point x="479" y="555"/>
      <point x="522" y="555" type="curve" smooth="yes"/>
      <point x="567" y="555"/>
      <point x="599" y="523"/>
      <point x="599" y="477" type="curve" smooth="yes"/>
      <point x="599" y="433"/>
      <point x="568" y="400"/>
      <point x="522" y="400" type="curve" smooth="yes"/>
      <point x="478" y="400"/>
      <point x="445" y="433"/>
    </contour>
    <contour>
      <point x="350" y="545" type="curve" smooth="yes"/>
      <point x="350" y="590"/>
      <point x="383" y="623"/>
      <point x="428" y="623" type="curve" smooth="yes"/>
      <point x="471" y="623"/>
      <point x="504" y="591"/>
      <point x="504" y="545" type="curve" smooth="yes"/>
      <point x="504" y="503"/>
      <point x="472" y="468"/>
      <point x="428" y="468" type="curve" smooth="yes"/>
      <point x="383" y="468"/>
      <point x="350" y="503"/>
    </contour>
    <contour>
      <point x="224" y="560" type="curve" smooth="yes"/>
      <point x="224" y="606"/>
      <point x="256" y="637"/>
      <point x="301" y="637" type="curve" smooth="yes"/>
      <point x="347" y="637"/>
      <point x="378" y="606"/>
      <point x="378" y="560" type="curve" smooth="yes"/>
      <point x="378" y="515"/>
      <point x="347" y="483"/>
      <point x="301" y="483" type="curve" smooth="yes"/>
      <point x="256" y="483"/>
      <point x="224" y="515"/>
    </contour>
    <contour>
      <point x="172" y="517" type="curve" smooth="yes"/>
      <point x="172" y="511"/>
      <point x="176" y="505"/>
      <point x="183" y="505" type="curve" smooth="yes"/>
      <point x="190" y="505"/>
      <point x="194" y="511"/>
      <point x="194" y="517" type="curve" smooth="yes"/>
      <point x="194" y="523"/>
      <point x="190" y="528"/>
      <point x="183" y="528" type="curve" smooth="yes"/>
      <point x="177" y="528"/>
      <point x="172" y="523"/>
    </contour>
    <contour>
      <point x="90" y="407" type="curve" smooth="yes"/>
      <point x="90" y="400"/>
      <point x="97" y="396"/>
      <point x="103" y="396" type="curve" smooth="yes"/>
      <point x="109" y="396"/>
      <point x="114" y="401"/>
      <point x="114" y="407" type="curve" smooth="yes"/>
      <point x="114" y="413"/>
      <point x="109" y="418"/>
      <point x="103" y="418" type="curve" smooth="yes"/>
      <point x="97" y="418"/>
      <point x="90" y="414"/>
    </contour>
    <contour>
      <point x="77" y="281" type="curve" smooth="yes"/>
      <point x="77" y="275"/>
      <point x="82" y="271"/>
      <point x="88" y="271" type="curve" smooth="yes"/>
      <point x="94" y="271"/>
      <point x="99" y="275"/>
      <point x="99" y="281" type="curve" smooth="yes"/>
      <point x="99" y="288"/>
      <point x="95" y="293"/>
      <point x="88" y="293" type="curve" smooth="yes"/>
      <point x="81" y="293"/>
      <point x="77" y="288"/>
    </contour>
    <contour>
      <point x="129" y="165" type="curve" smooth="yes"/>
      <point x="129" y="159"/>
      <point x="134" y="154"/>
      <point x="140" y="154" type="curve" smooth="yes"/>
      <point x="146" y="154"/>
      <point x="151" y="159"/>
      <point x="151" y="165" type="curve" smooth="yes"/>
      <point x="151" y="171"/>
      <point x="146" y="176"/>
      <point x="140" y="176" type="curve" smooth="yes"/>
      <point x="134" y="176"/>
      <point x="129" y="171"/>
    </contour>
    <contour>
      <point x="230" y="90" type="curve" smooth="yes"/>
      <point x="230" y="83"/>
      <point x="235" y="77"/>
      <point x="242" y="77" type="curve" smooth="yes"/>
      <point x="249" y="77"/>
      <point x="253" y="84"/>
      <point x="253" y="90" type="curve" smooth="yes"/>
      <point x="253" y="96"/>
      <point x="248" y="101"/>
      <point x="242" y="101" type="curve" smooth="yes"/>
      <point x="236" y="101"/>
      <point x="230" y="96"/>
    </contour>
    <contour>
      <point x="357" y="74" type="curve" smooth="yes"/>
      <point x="357" y="67"/>
      <point x="362" y="63"/>
      <point x="368" y="63" type="curve" smooth="yes"/>
      <point x="375" y="63"/>
      <point x="380" y="67"/>
      <point x="380" y="74" type="curve" smooth="yes"/>
      <point x="380" y="81"/>
      <point x="375" y="85"/>
      <point x="368" y="85" type="curve" smooth="yes"/>
      <point x="362" y="85"/>
      <point x="357" y="80"/>
    </contour>
    <contour>
      <point x="478" y="127" type="curve" smooth="yes"/>
      <point x="478" y="120"/>
      <point x="483" y="116"/>
      <point x="489" y="116" type="curve" smooth="yes"/>
      <point x="495" y="116"/>
      <point x="501" y="120"/>
      <point x="501" y="127" type="curve" smooth="yes"/>
      <point x="501" y="134"/>
      <point x="495" y="138"/>
      <point x="489" y="138" type="curve" smooth="yes"/>
      <point x="483" y="138"/>
      <point x="478" y="133"/>
    </contour>
    <contour>
      <point x="551" y="225" type="curve" smooth="yes"/>
      <point x="551" y="218"/>
      <point x="557" y="214"/>
      <point x="563" y="214" type="curve" smooth="yes"/>
      <point x="569" y="214"/>
      <point x="573" y="219"/>
      <point x="573" y="225" type="curve" smooth="yes"/>
      <point x="573" y="231"/>
      <point x="569" y="237"/>
      <point x="563" y="237" type="curve" smooth="yes"/>
      <point x="556" y="237"/>
      <point x="551" y="232"/>
    </contour>
    <contour>
      <point x="561" y="359" type="curve" smooth="yes"/>
      <point x="561" y="353"/>
      <point x="566" y="348"/>
      <point x="572" y="348" type="curve" smooth="yes"/>
      <point x="578" y="348"/>
      <point x="583" y="353"/>
      <point x="583" y="359" type="curve" smooth="yes"/>
      <point x="583" y="366"/>
      <point x="578" y="370"/>
      <point x="572" y="370" type="curve" smooth="yes"/>
      <point x="566" y="370"/>
      <point x="561" y="366"/>
    </contour>
    <contour>
      <point x="511" y="477" type="curve" smooth="yes"/>
      <point x="511" y="471"/>
      <point x="516" y="466"/>
      <point x="522" y="466" type="curve" smooth="yes"/>
      <point x="529" y="466"/>
      <point x="533" y="471"/>
      <point x="533" y="477" type="curve" smooth="yes"/>
      <point x="533" y="484"/>
      <point x="529" y="489"/>
      <point x="522" y="489" type="curve" smooth="yes"/>
      <point x="515" y="489"/>
      <point x="511" y="484"/>
    </contour>
    <contour>
      <point x="416" y="545" type="curve" smooth="yes"/>
      <point x="416" y="539"/>
      <point x="422" y="534"/>
      <point x="428" y="534" type="curve" smooth="yes"/>
      <point x="434" y="534"/>
      <point x="438" y="539"/>
      <point x="438" y="545" type="curve" smooth="yes"/>
      <point x="438" y="551"/>
      <point x="435" y="557"/>
      <point x="428" y="557" type="curve" smooth="yes"/>
      <point x="421" y="557"/>
      <point x="416" y="552"/>
    </contour>
    <contour>
      <point x="290" y="560" type="curve" smooth="yes"/>
      <point x="290" y="554"/>
      <point x="295" y="549"/>
      <point x="301" y="549" type="curve" smooth="yes"/>
      <point x="308" y="549"/>
      <point x="312" y="554"/>
      <point x="312" y="560" type="curve" smooth="yes"/>
      <point x="312" y="567"/>
      <point x="308" y="571"/>
      <point x="301" y="571" type="curve" smooth="yes"/>
      <point x="295" y="571"/>
      <point x="290" y="567"/>
    </contour>
  </outline>
</glyph>
<glyph name="knBAc2" format="1">
  <advance width="0"/>
  <outline>
    <contour>
      <point x="-223" y="-275" type="line" smooth="yes"/>
      <point x="-203" y="-279"/>
      <point x="-191" y="-297"/>
      <point x="-196" y="-315" type="curve" smooth="yes"/>
      <point x="-209" y="-372"/>
      <point x="-256" y="-409"/>
      <point x="-329" y="-409" type="curve" smooth="yes"/>
      <point x="-418" y="-409"/>
      <point x="-470" y="-357"/>
      <point x="-470" y="-285" type="curve" smooth="yes"/>
      <point x="-470" y="-196"/>
      <point x="-345" y="-186"/>
      <point x="-345" y="-142" type="curve"/>
      <point x="-345" y="-151"/>
      <point x="-338" y="-153"/>
      <point x="-331" y="-153" type="curve" smooth="yes"/>
      <point x="-325" y="-153"/>
      <point x="-320" y="-151"/>
      <point x="-320" y="-144" type="curve"/>
      <point x="-320" y="-149"/>
      <point x="-319" y="-153"/>
      <point x="-318" y="-159" type="curve" smooth="yes"/>
      <point x="-313" y="-181"/>
      <point x="-327" y="-199"/>
      <point x="-350" y="-199" type="curve" smooth="yes"/>
      <point x="-425" y="-199" type="line" smooth="yes"/>
      <point x="-439" y="-199"/>
      <point x="-453" y="-188"/>
      <point x="-457" y="-175" type="curve" smooth="yes"/>
      <point x="-461" y="-162"/>
      <point x="-463" y="-151"/>
      <point x="-463" y="-138" type="curve" smooth="yes"/>
      <point x="-463" y="-67"/>
      <point x="-414" y="-18"/>
      <point x="-331" y="-18" type="curve" smooth="yes"/>
      <point x="-254" y="-18"/>
      <point x="-203" y="-69"/>
      <point x="-203" y="-140" type="curve" smooth="yes"/>
      <point x="-203" y="-222"/>
      <point x="-323" y="-237"/>
      <point x="-323" y="-282" type="curve" smooth="yes"/>
      <point x="-323" y="-282"/>
      <point x="-316" y="-275"/>
      <point x="-322" y="-275" type="curve"/>
      <point x="-310" y="-275"/>
      <point x="-305" y="-268"/>
      <point x="-305" y="-256" type="curve" smooth="yes"/>
      <point x="-305" y="-231" type="line" smooth="yes"/>
      <point x="-305" y="-213"/>
      <point x="-290" y="-198"/>
      <point x="-272" y="-198" type="curve" smooth="yes"/>
      <point x="-190" y="-198" type="line" smooth="yes"/>
      <point x="-172" y="-198"/>
      <point x="-157" y="-213"/>
      <point x="-157" y="-231" type="curve" smooth="yes"/>
      <point x="-157" y="-256" type="line" smooth="yes"/>
      <point x="-157" y="-259"/>
      <point x="-161" y="-275"/>
      <point x="-153" y="-275" type="curve" smooth="yes"/>
      <point x="-137" y="-275"/>
      <point x="-144" y="-242"/>
      <point x="-144" y="-231" type="curve" smooth="yes"/>
      <point x="-144" y="-194"/>
      <point x="-152" y="-155"/>
      <point x="-183" y="-155" type="curve" smooth="yes"/>
      <point x="-190" y="-155"/>
      <point x="-194" y="-156"/>
      <point x="-201" y="-158" type="curve" smooth="yes"/>
      <point x="-224" y="-165"/>
      <point x="-243" y="-150"/>
      <point x="-243" y="-126" type="curve" smooth="yes"/>
      <point x="-243" y="-57" type="line" smooth="yes"/>
      <point x="-243" y="-43"/>
      <point x="-232" y="-28"/>
      <point x="-217" y="-25" type="curve" smooth="yes"/>
      <point x="-202" y="-21"/>
      <point x="-187" y="-20"/>
      <point x="-173" y="-20" type="curve" smooth="yes"/>
      <point x="-72" y="-20"/>
      <point x="3" y="-102"/>
      <point x="3" y="-230" type="curve" smooth="yes"/>
      <point x="3" y="-344"/>
      <point x="-60" y="-409"/>
      <point x="-147" y="-409" type="curve" smooth="yes"/>
      <point x="-212" y="-409"/>
      <point x="-258" y="-369"/>
      <point x="-267" y="-312" type="curve" smooth="yes"/>
      <point x="-270" y="-287"/>
      <point x="-253" y="-270"/>
      <point x="-229" y="-274" type="curve" smooth="yes"/>
    </contour>
    <contour>
      <point x="-233" y="-341" type="line"/>
      <point x="-239" y="-340" type="line"/>
      <point x="-201" y="-302" type="line"/>
      <point x="-198" y="-329"/>
      <point x="-174" y="-343"/>
      <point x="-147" y="-343" type="curve" smooth="yes"/>
      <point x="-92" y="-343"/>
      <point x="-63" y="-294"/>
      <point x="-63" y="-230" type="curve" smooth="yes"/>
      <point x="-63" y="-150"/>
      <point x="-104" y="-86"/>
      <point x="-173" y="-86" type="curve" smooth="yes"/>
      <point x="-183" y="-86"/>
      <point x="-192" y="-87"/>
      <point x="-203" y="-89" type="curve"/>
      <point x="-177" y="-57" type="line"/>
      <point x="-177" y="-126" type="line"/>
      <point x="-219" y="-94" type="line"/>
      <point x="-206" y="-90"/>
      <point x="-198" y="-89"/>
      <point x="-183" y="-89" type="curve" smooth="yes"/>
      <point x="-124" y="-89"/>
      <point x="-78" y="-130"/>
      <point x="-78" y="-231" type="curve" smooth="yes"/>
      <point x="-78" y="-320"/>
      <point x="-113" y="-341"/>
      <point x="-153" y="-341" type="curve" smooth="yes"/>
      <point x="-189" y="-341"/>
      <point x="-223" y="-317"/>
      <point x="-223" y="-256" type="curve" smooth="yes"/>
      <point x="-223" y="-231" type="line"/>
      <point x="-190" y="-264" type="line"/>
      <point x="-272" y="-264" type="line"/>
      <point x="-239" y="-231" type="line"/>
      <point x="-239" y="-256" type="line" smooth="yes"/>
      <point x="-239" y="-312"/>
      <point x="-270" y="-341"/>
      <point x="-322" y="-341" type="curve" smooth="yes"/>
      <point x="-372" y="-341"/>
      <point x="-389" y="-314"/>
      <point x="-389" y="-282" type="curve" smooth="yes"/>
      <point x="-389" y="-237"/>
      <point x="-269" y="-222"/>
      <point x="-269" y="-140" type="curve" smooth="yes"/>
      <point x="-269" y="-105"/>
      <point x="-296" y="-84"/>
      <point x="-331" y="-84" type="curve" smooth="yes"/>
      <point x="-368" y="-84"/>
      <point x="-397" y="-103"/>
      <point x="-397" y="-138" type="curve" smooth="yes"/>
      <point x="-397" y="-145"/>
      <point x="-395" y="-150"/>
      <point x="-393" y="-157" type="curve"/>
      <point x="-425" y="-133" type="line"/>
      <point x="-350" y="-133" type="line"/>
      <point x="-382" y="-173" type="line"/>
      <point x="-385" y="-161"/>
      <point x="-386" y="-153"/>
      <point x="-386" y="-144" type="curve" smooth="yes"/>
      <point x="-386" y="-109"/>
      <point x="-367" y="-87"/>
      <point x="-331" y="-87" type="curve" smooth="yes"/>
      <point x="-299" y="-87"/>
      <point x="-279" y="-109"/>
      <point x="-279" y="-142" type="curve" smooth="yes"/>
      <point x="-279" y="-186"/>
      <point x="-404" y="-196"/>
      <point x="-404" y="-285" type="curve" smooth="yes"/>
      <point x="-404" y="-323"/>
      <point x="-370" y="-343"/>
      <point x="-329" y="-343" type="curve" smooth="yes"/>
      <point x="-294" y="-343"/>
      <point x="-267" y="-330"/>
      <point x="-260" y="-301" type="curve"/>
    </contour>
  </outline>
</glyph>
<glyph name="knCA.base" format="1">
  <advance width="780"/>
  <outline>
    <contour>
      <point x="448" y="312" type="curve" smooth="yes"/>
      <point x="730" y="312" type="line" smooth="yes"/>
      <point x="748" y="312"/>
      <point x="763" y="297"/>
      <point x="763" y="279" type="curve" smooth="yes"/>
      <point x="763" y="261"/>
      <point x="748" y="246"/>
      <point x="730" y="246" type="curve" smooth="yes"/>
      <point x="448" y="246" type="line" smooth="yes"/>
      <point x="430" y="246"/>
      <point x="415" y="261"/>
      <point x="415" y="279" type="curve" smooth="yes"/>
      <point x="415" y="297"/>
      <point x="430" y="312"/>
    </contour>
    <contour>
      <point x="450" y="470" type="curve" smooth="yes"/>
      <point x="607" y="470" type="line" smooth="yes"/>
      <point x="625" y="470"/>
      <point x="640" y="455"/>
      <point x="640" y="437" type="curve" smooth="yes"/>
      <point x="640" y="419"/>
      <point x="625" y="404"/>
      <point x="607" y="404" type="curve" smooth="yes"/>
      <point x="450" y="404" type="line" smooth="yes"/>
      <point x="432" y="404"/>
      <point x="417" y="419"/>
      <point x="417" y="437" type="curve" smooth="yes"/>
      <point x="417" y="455"/>
      <point x="432" y="470"/>
    </contour>
    <contour>
      <point x="567" y="285" type="curve" smooth="yes"/>
      <point x="567" y="409" type="line" smooth="yes"/>
      <point x="567" y="427"/>
      <point x="582" y="442"/>
      <point x="600" y="442" type="curve" smooth="yes"/>
      <point x="618" y="442"/>
      <point x="633" y="427"/>
      <point x="633" y="409" type="curve" smooth="yes"/>
      <point x="633" y="285" type="line" smooth="yes"/>
      <point x="633" y="267"/>
      <point x="618" y="252"/>
      <point x="600" y="252" type="curve" smooth="yes"/>
      <point x="582" y="252"/>
      <point x="567" y="267"/>
    </contour>
    <contour>
      <point x="73" y="428" type="curve" smooth="yes"/>
      <point x="107" y="463"/>
      <point x="148" y="485"/>
      <point x="196" y="485" type="curve" smooth="yes"/>
      <point x="270" y="485"/>
      <point x="314" y="435"/>
      <point x="314" y="375" type="curve" smooth="yes"/>
      <point x="314" y="329"/>
      <point x="292" y="287"/>
      <point x="223" y="231" type="curve" smooth="yes"/>
      <point x="184" y="200"/>
      <point x="156" y="168"/>
      <point x="156" y="129" type="curve" smooth="yes"/>
      <point x="156" y="90"/>
      <point x="186" y="60"/>
      <point x="235" y="60" type="curve" smooth="yes"/>
      <point x="291" y="60"/>
      <point x="327" y="86"/>
      <point x="364" y="145" type="curve" smooth="yes"/>
      <point x="369" y="154"/>
      <point x="382" y="161"/>
      <point x="392" y="161" type="curve" smooth="yes"/>
      <point x="397" y="161" type="line" smooth="yes"/>
      <point x="407" y="161"/>
      <point x="419" y="154"/>
      <point x="425" y="146" type="curve" smooth="yes"/>
      <point x="459" y="92"/>
      <point x="497" y="60"/>
      <point x="558" y="60" type="curve" smooth="yes"/>
      <point x="608" y="60"/>
      <point x="640" y="93"/>
      <point x="640" y="134" type="curve" smooth="yes"/>
      <point x="640" y="168"/>
      <point x="622" y="193"/>
      <point x="592" y="209" type="curve" smooth="yes"/>
      <point x="576" y="218"/>
      <point x="571" y="239"/>
      <point x="579" y="254" type="curve" smooth="yes"/>
      <point x="588" y="270"/>
      <point x="609" y="275"/>
      <point x="624" y="267" type="curve" smooth="yes"/>
      <point x="676" y="237"/>
      <point x="706" y="194"/>
      <point x="706" y="134" type="curve" smooth="yes"/>
      <point x="706" y="59"/>
      <point x="652" y="-6"/>
      <point x="558" y="-6" type="curve" smooth="yes"/>
      <point x="473" y="-6"/>
      <point x="419" y="34"/>
      <point x="369" y="110" type="curve"/>
      <point x="397" y="95" type="line"/>
      <point x="392" y="95" type="line"/>
      <point x="420" y="111" type="line"/>
      <point x="367" y="26"/>
      <point x="313" y="-6"/>
      <point x="235" y="-6" type="curve" smooth="yes"/>
      <point x="138" y="-6"/>
      <point x="90" y="58"/>
      <point x="90" y="129" type="curve" smooth="yes"/>
      <point x="90" y="186"/>
      <point x="124" y="236"/>
      <point x="181" y="283" type="curve" smooth="yes"/>
      <point x="226" y="319"/>
      <point x="248" y="343"/>
      <point x="248" y="375" type="curve" smooth="yes"/>
      <point x="248" y="401"/>
      <point x="226" y="419"/>
      <point x="196" y="419" type="curve" smooth="yes"/>
      <point x="166" y="419"/>
      <point x="141" y="403"/>
      <point x="119" y="382" type="curve" smooth="yes"/>
      <point x="107" y="369"/>
      <point x="85" y="369"/>
      <point x="73" y="382" type="curve" smooth="yes"/>
      <point x="60" y="394"/>
      <point x="60" y="416"/>
    </contour>
  </outline>
</glyph>
<glyph name="knCAc2" format="1">
  <advance width="0"/>
  <outline>
    <contour>
      <point x="-243" y="-273" type="line" smooth="yes"/>
      <point x="-224" y="-277"/>
      <point x="-212" y="-294"/>
      <point x="-216" y="-312" type="curve" smooth="yes"/>
      <point x="-226" y="-369"/>
      <point x="-274" y="-408"/>
      <point x="-351" y="-408" type="curve" smooth="yes"/>
      <point x="-439" y="-408"/>
      <point x="-493" y="-356"/>
      <point x="-493" y="-283" type="curve" smooth="yes"/>
      <point x="-493" y="-193"/>
      <point x="-366" y="-183"/>
      <point x="-366" y="-138" type="curve"/>
      <point x="-366" y="-147"/>
      <point x="-358" y="-148"/>
      <point x="-353" y="-148" type="curve" smooth="yes"/>
      <point x="-350" y="-148"/>
      <point x="-342" y="-150"/>
      <point x="-342" y="-141" type="curve"/>
      <point x="-342" y="-145"/>
      <point x="-341" y="-149"/>
      <point x="-340" y="-154" type="curve" smooth="yes"/>
      <point x="-334" y="-177"/>
      <point x="-349" y="-195"/>
      <point x="-372" y="-195" type="curve" smooth="yes"/>
      <point x="-448" y="-195" type="line" smooth="yes"/>
      <point x="-462" y="-195"/>
      <point x="-476" y="-184"/>
      <point x="-480" y="-171" type="curve" smooth="yes"/>
      <point x="-484" y="-158"/>
      <point x="-485" y="-147"/>
      <point x="-485" y="-134" type="curve" smooth="yes"/>
      <point x="-485" y="-63"/>
      <point x="-436" y="-13"/>
      <point x="-353" y="-13" type="curve" smooth="yes"/>
      <point x="-276" y="-13"/>
      <point x="-223" y="-65"/>
      <point x="-223" y="-136" type="curve" smooth="yes"/>
      <point x="-223" y="-219"/>
      <point x="-345" y="-234"/>
      <point x="-345" y="-280" type="curve" smooth="yes"/>
      <point x="-345" y="-281"/>
      <point x="-337" y="-273"/>
      <point x="-343" y="-273" type="curve"/>
      <point x="-331" y="-273"/>
      <point x="-326" y="-265"/>
      <point x="-326" y="-253" type="curve" smooth="yes"/>
      <point x="-326" y="-232" type="line" smooth="yes"/>
      <point x="-326" y="-214"/>
      <point x="-311" y="-199"/>
      <point x="-293" y="-199" type="curve" smooth="yes"/>
      <point x="-210" y="-199" type="line" smooth="yes"/>
      <point x="-192" y="-199"/>
      <point x="-177" y="-214"/>
      <point x="-177" y="-232" type="curve" smooth="yes"/>
      <point x="-177" y="-253" type="line" smooth="yes"/>
      <point x="-177" y="-261"/>
      <point x="-177" y="-273"/>
      <point x="-167" y="-273" type="curve" smooth="yes"/>
      <point x="-165" y="-273"/>
      <point x="-166" y="-270"/>
      <point x="-166" y="-269" type="curve" smooth="yes"/>
      <point x="-166" y="-251"/>
      <point x="-189" y="-252"/>
      <point x="-205" y="-252" type="curve" smooth="yes"/>
      <point x="-224" y="-252"/>
      <point x="-239" y="-238"/>
      <point x="-239" y="-219" type="curve" smooth="yes"/>
      <point x="-239" y="-197" type="line" smooth="yes"/>
      <point x="-239" y="-183"/>
      <point x="-228" y="-168"/>
      <point x="-214" y="-165" type="curve" smooth="yes"/>
      <point x="-199" y="-161"/>
      <point x="-195" y="-160"/>
      <point x="-169" y="-160" type="curve" smooth="yes"/>
      <point x="-70" y="-160"/>
      <point x="-18" y="-212"/>
      <point x="-18" y="-281" type="curve" smooth="yes"/>
      <point x="-18" y="-355"/>
      <point x="-72" y="-408"/>
      <point x="-161" y="-408" type="curve" smooth="yes"/>
      <point x="-234" y="-408"/>
      <point x="-280" y="-368"/>
      <point x="-287" y="-309" type="curve" smooth="yes"/>
      <point x="-290" y="-285"/>
      <point x="-272" y="-268"/>
      <point x="-249" y="-272" type="curve" smooth="yes"/>
    </contour>
    <contour>
      <point x="-2" y="-219" type="line" smooth="yes"/>
      <point x="-2" y="-237"/>
      <point x="-17" y="-252"/>
      <point x="-35" y="-252" type="curve" smooth="yes"/>
      <point x="-206" y="-252" type="line" smooth="yes"/>
      <point x="-224" y="-252"/>
      <point x="-239" y="-237"/>
      <point x="-239" y="-219" type="curve" smooth="yes"/>
      <point x="-239" y="-155" type="line" smooth="yes"/>
      <point x="-239" y="-137"/>
      <point x="-224" y="-122"/>
      <point x="-206" y="-122" type="curve" smooth="yes"/>
      <point x="-35" y="-122" type="line" smooth="yes"/>
      <point x="-17" y="-122"/>
      <point x="-2" y="-137"/>
      <point x="-2" y="-155" type="curve" smooth="yes"/>
    </contour>
    <contour>
      <point x="-56" y="-173" type="line" smooth="yes"/>
      <point x="-56" y="-191"/>
      <point x="-71" y="-206"/>
      <point x="-89" y="-206" type="curve" smooth="yes"/>
      <point x="-160" y="-206" type="line" smooth="yes"/>
      <point x="-178" y="-206"/>
      <point x="-193" y="-191"/>
      <point x="-193" y="-173" type="curve" smooth="yes"/>
      <point x="-193" y="-106" type="line" smooth="yes"/>
      <point x="-193" y="-88"/>
      <point x="-178" y="-73"/>
      <point x="-160" y="-73" type="curve" smooth="yes"/>
      <point x="-89" y="-73" type="line" smooth="yes"/>
      <point x="-71" y="-73"/>
      <point x="-56" y="-88"/>
      <point x="-56" y="-106" type="curve" smooth="yes"/>
    </contour>
    <contour>
      <point x="-122" y="-149" type="curve" smooth="yes"/>
      <point x="-206" y="-149" type="line" smooth="yes"/>
      <point x="-224" y="-149"/>
      <point x="-239" y="-134"/>
      <point x="-239" y="-116" type="curve" smooth="yes"/>
      <point x="-239" y="-52" type="line" smooth="yes"/>
      <point x="-239" y="-34"/>
      <point x="-224" y="-19"/>
      <point x="-206" y="-19" type="curve" smooth="yes"/>
      <point x="-137" y="-19" type="line"/>
      <point x="-151" y="-19"/>
      <point x="-139" y="-31"/>
      <point x="-139" y="-32" type="curve" smooth="yes"/>
      <point x="-139" y="-33"/>
      <point x="-139" y="-33"/>
      <point x="-139" y="-34" type="curve"/>
      <point x="-162" y="-4"/>
      <point x="-150" y="20"/>
      <point x="-113" y="20" type="curve" smooth="yes"/>
      <point x="-39" y="20" type="line" smooth="yes"/>
      <point x="-29" y="20"/>
      <point x="-16" y="13"/>
      <point x="-10" y="4" type="curve" smooth="yes"/>
      <point x="0" y="-14"/>
      <point x="3" y="-33"/>
      <point x="3" y="-50" type="curve" smooth="yes"/>
      <point x="3" y="-110"/>
      <point x="-31" y="-149"/>
    </contour>
    <contour>
      <point x="-253" y="-339" type="line"/>
      <point x="-259" y="-338" type="line"/>
      <point x="-221" y="-301" type="line"/>
      <point x="-218" y="-330"/>
      <point x="-192" y="-342"/>
      <point x="-161" y="-342" type="curve" smooth="yes"/>
      <point x="-118" y="-342"/>
      <point x="-84" y="-321"/>
      <point x="-84" y="-281" type="curve" smooth="yes"/>
      <point x="-84" y="-242"/>
      <point x="-124" y="-226"/>
      <point x="-169" y="-226" type="curve" smooth="yes"/>
      <point x="-185" y="-226"/>
      <point x="-189" y="-227"/>
      <point x="-198" y="-229" type="curve"/>
      <point x="-173" y="-197" type="line"/>
      <point x="-173" y="-219" type="line"/>
      <point x="-207" y="-186" type="line"/>
      <point x="-127" y="-184"/>
      <point x="-100" y="-219"/>
      <point x="-100" y="-269" type="curve" smooth="yes"/>
      <point x="-100" y="-316"/>
      <point x="-127" y="-339"/>
      <point x="-167" y="-339" type="curve" smooth="yes"/>
      <point x="-211" y="-339"/>
      <point x="-243" y="-315"/>
      <point x="-243" y="-253" type="curve" smooth="yes"/>
      <point x="-243" y="-232" type="line"/>
      <point x="-210" y="-265" type="line"/>
      <point x="-293" y="-265" type="line"/>
      <point x="-260" y="-232" type="line"/>
      <point x="-260" y="-253" type="line" smooth="yes"/>
      <point x="-260" y="-311"/>
      <point x="-291" y="-339"/>
      <point x="-343" y="-339" type="curve" smooth="yes"/>
      <point x="-395" y="-339"/>
      <point x="-411" y="-311"/>
      <point x="-411" y="-280" type="curve" smooth="yes"/>
      <point x="-411" y="-234"/>
      <point x="-289" y="-219"/>
      <point x="-289" y="-136" type="curve" smooth="yes"/>
      <point x="-289" y="-101"/>
      <point x="-318" y="-79"/>
      <point x="-353" y="-79" type="curve" smooth="yes"/>
      <point x="-391" y="-79"/>
      <point x="-419" y="-99"/>
      <point x="-419" y="-134" type="curve" smooth="yes"/>
      <point x="-419" y="-141"/>
      <point x="-418" y="-146"/>
      <point x="-416" y="-153" type="curve"/>
      <point x="-448" y="-129" type="line"/>
      <point x="-372" y="-129" type="line"/>
      <point x="-404" y="-170" type="line"/>
      <point x="-407" y="-159"/>
      <point x="-408" y="-149"/>
      <point x="-408" y="-141" type="curve" smooth="yes"/>
      <point x="-408" y="-99"/>
      <point x="-383" y="-82"/>
      <point x="-353" y="-82" type="curve" smooth="yes"/>
      <point x="-324" y="-82"/>
      <point x="-300" y="-101"/>
      <point x="-300" y="-138" type="curve" smooth="yes"/>
      <point x="-300" y="-183"/>
      <point x="-427" y="-193"/>
      <point x="-427" y="-283" type="curve" smooth="yes"/>
      <point x="-427" y="-322"/>
      <point x="-393" y="-342"/>
      <point x="-351" y="-342" type="curve" smooth="yes"/>
      <point x="-316" y="-342"/>
      <point x="-286" y="-329"/>
      <point x="-280" y="-300" type="curve"/>
    </contour>
    <contour>
      <point x="-68" y="-219" type="line"/>
      <point x="-68" y="-155" type="line"/>
      <point x="-35" y="-188" type="line"/>
      <point x="-206" y="-188" type="line"/>
      <point x="-173" y="-155" type="line"/>
      <point x="-173" y="-219" type="line"/>
      <point x="-206" y="-186" type="line"/>
      <point x="-35" y="-186" type="line"/>
    </contour>
    <contour>
      <point x="-122" y="-173" type="line"/>
      <point x="-122" y="-106" type="line"/>
      <point x="-89" y="-139" type="line"/>
      <point x="-160" y="-139" type="line"/>
      <point x="-127" y="-106" type="line"/>
      <point x="-127" y="-173" type="line"/>
      <point x="-160" y="-140" type="line"/>
      <point x="-89" y="-140" type="line"/>
    </contour>
    <contour>
      <point x="-122" y="-83" type="line" smooth="yes"/>
      <point x="-92" y="-83"/>
      <point x="-63" y="-78"/>
      <point x="-63" y="-50" type="curve" smooth="yes"/>
      <point x="-63" y="-43"/>
      <point x="-64" y="-36"/>
      <point x="-68" y="-30" type="curve"/>
      <point x="-39" y="-46" type="line"/>
      <point x="-113" y="-46" type="line"/>
      <point x="-87" y="8" type="line"/>
      <point x="-79" y="-3"/>
      <point x="-73" y="-15"/>
      <point x="-73" y="-32" type="curve" smooth="yes"/>
      <point x="-73" y="-59"/>
      <point x="-81" y="-85"/>
      <point x="-137" y="-85" type="curve" smooth="yes"/>
      <point x="-206" y="-85" type="line"/>
      <point x="-173" y="-52" type="line"/>
      <point x="-173" y="-116" type="line"/>
      <point x="-206" y="-83" type="line"/>
    </contour>
  </outline>
</glyph>
<glyph name="knCHA.base" format="1">
  <advance width="744"/>
  <outline>
    <contour>
      <point x="448" y="470" type="curve" smooth="yes"/>
      <point x="547" y="470" type="line" smooth="yes"/>
      <point x="565" y="470"/>
      <point x="580" y="455"/>
      <point x="580" y="437" type="curve" smooth="yes"/>
      <point x="580" y="419"/>
      <point x="565" y="404"/>
      <point x="547" y="404" type="curve" smooth="yes"/>
      <point x="448" y="404" type="line" smooth="yes"/>
      <point x="430" y="404"/>
      <point x="415" y="419"/>
      <point x="415" y="437" type="curve" smooth="yes"/>
      <point x="415" y="455"/>
      <point x="430" y="470"/>
    </contour>
    <contour>
      <point x="410" y="-89" type="curve" smooth="yes"/>
      <point x="410" y="-192" type="line" smooth="yes"/>
      <point x="410" y="-210"/>
      <point x="395" y="-225"/>
      <point x="377" y="-225" type="curve" smooth="yes"/>
      <point x="359" y="-225"/>
      <point x="344" y="-210"/>
      <point x="344" y="-192" type="curve" smooth="yes"/>
      <point x="344" y="-89" type="line" smooth="yes"/>
      <point x="344" y="-71"/>
      <point x="359" y="-56"/>
      <point x="377" y="-56" type="curve" smooth="yes"/>
      <point x="395" y="-56"/>
      <point x="410" y="-71"/>
    </contour>
    <contour>
      <point x="138" y="372" type="curve" smooth="yes"/>
      <point x="159" y="341"/>
      <point x="183" y="319"/>
      <point x="215" y="319" type="curve" smooth="yes"/>
      <point x="244" y="319"/>
      <point x="270" y="337"/>
      <point x="270" y="368" type="curve" smooth="yes"/>
      <point x="270" y="399"/>
      <point x="248" y="419"/>
      <point x="215" y="419" type="curve" smooth="yes"/>
      <point x="156" y="419"/>
      <point x="118" y="321"/>
      <point x="118" y="229" type="curve" smooth="yes"/>
      <point x="118" y="139"/>
      <point x="161" y="60"/>
      <point x="232" y="60" type="curve" smooth="yes"/>
      <point x="285" y="60"/>
      <point x="315" y="89"/>
      <point x="345" y="144" type="curve" smooth="yes"/>
      <point x="350" y="153"/>
      <point x="363" y="161"/>
      <point x="374" y="161" type="curve" smooth="yes"/>
      <point x="379" y="161" type="line" smooth="yes"/>
      <point x="390" y="161"/>
      <point x="402" y="154"/>
      <point x="408" y="144" type="curve" smooth="yes"/>
      <point x="438" y="90"/>
      <point x="477" y="60"/>
      <point x="525" y="60" type="curve" smooth="yes"/>
      <point x="590" y="60"/>
      <point x="627" y="113"/>
      <point x="627" y="183" type="curve" smooth="yes"/>
      <point x="627" y="269"/>
      <point x="589" y="345"/>
      <point x="499" y="410" type="curve" smooth="yes"/>
      <point x="484" y="421"/>
      <point x="481" y="442"/>
      <point x="491" y="456" type="curve" smooth="yes"/>
      <point x="502" y="471"/>
      <point x="523" y="474"/>
      <point x="537" y="464" type="curve" smooth="yes"/>
      <point x="649" y="383"/>
      <point x="693" y="289"/>
      <point x="693" y="183" type="curve" smooth="yes"/>
      <point x="693" y="67"/>
      <point x="626" y="-6"/>
      <point x="525" y="-6" type="curve" smooth="yes"/>
      <point x="455" y="-6"/>
      <point x="396" y="32"/>
      <point x="350" y="112" type="curve"/>
      <point x="379" y="95" type="line"/>
      <point x="374" y="95" type="line"/>
      <point x="403" y="112" type="line"/>
      <point x="359" y="29"/>
      <point x="309" y="-6"/>
      <point x="232" y="-6" type="curve" smooth="yes"/>
      <point x="133" y="-6"/>
      <point x="52" y="87"/>
      <point x="52" y="229" type="curve"/>
      <point x="52" y="383"/>
      <point x="136" y="485"/>
      <point x="215" y="485" type="curve" smooth="yes"/>
      <point x="292" y="485"/>
      <point x="336" y="435"/>
      <point x="336" y="368" type="curve" smooth="yes"/>
      <point x="336" y="299"/>
      <point x="282" y="253"/>
      <point x="215" y="253" type="curve" smooth="yes"/>
      <point x="163" y="253"/>
      <point x="119" y="283"/>
      <point x="84" y="336" type="curve" smooth="yes"/>
      <point x="74" y="351"/>
      <point x="78" y="372"/>
      <point x="93" y="381" type="curve" smooth="yes"/>
      <point x="108" y="391"/>
      <point x="129" y="387"/>
    </contour>
  </outline>
</glyph>
<glyph name="knDDAc2" format="1">
  <advance width="0"/>
  <outline>
    <contour>
      <point x="-252" y="-273" type="line" smooth="yes"/>
      <point x="-233" y="-277"/>
      <point x="-221" y="-294"/>
      <point x="-225" y="-313" type="curve" smooth="yes"/>
      <point x="-237" y="-369"/>
      <point x="-286" y="-408"/>
      <point x="-353" y="-408" type="curve" smooth="yes"/>
      <point x="-444" y="-408"/>
      <point x="-504" y="-349"/>
      <point x="-504" y="-250" type="curve" smooth="yes"/>
      <point x="-504" y="-135"/>
      <point x="-419" y="-20"/>
      <point x="-252" y="-20" type="curve" smooth="yes"/>
      <point x="-81" y="-20"/>
      <point x="3" y="-129"/>
      <point x="3" y="-245" type="curve" smooth="yes"/>
      <point x="3" y="-340"/>
      <point x="-66" y="-408"/>
      <point x="-164" y="-408" type="curve" smooth="yes"/>
      <point x="-235" y="-408"/>
      <point x="-288" y="-364"/>
      <point x="-296" y="-310" type="curve" smooth="yes"/>
      <point x="-299" y="-285"/>
      <point x="-282" y="-268"/>
      <point x="-258" y="-272" type="curve" smooth="yes"/>
    </contour>
    <contour>
      <point x="-355" y="-249" type="curve" smooth="yes"/>
      <point x="-355" y="-258"/>
      <point x="-356" y="-273"/>
      <point x="-345" y="-273" type="curve" smooth="yes"/>
      <point x="-336" y="-273"/>
      <point x="-335" y="-261"/>
      <point x="-335" y="-253" type="curve" smooth="yes"/>
      <point x="-335" y="-245" type="line" smooth="yes"/>
      <point x="-335" y="-227"/>
      <point x="-320" y="-212"/>
      <point x="-302" y="-212" type="curve" smooth="yes"/>
      <point x="-219" y="-212" type="line" smooth="yes"/>
      <point x="-201" y="-212"/>
      <point x="-186" y="-227"/>
      <point x="-186" y="-245" type="curve" smooth="yes"/>
      <point x="-186" y="-253" type="line" smooth="yes"/>
      <point x="-186" y="-267"/>
      <point x="-176" y="-273"/>
      <point x="-162" y="-273" type="curve" smooth="yes"/>
      <point x="-141" y="-273"/>
      <point x="-128" y="-258"/>
      <point x="-128" y="-236" type="curve" smooth="yes"/>
      <point x="-128" y="-231"/>
      <point x="-130" y="-227"/>
      <point x="-131" y="-221" type="curve" smooth="yes"/>
      <point x="-144" y="-185"/>
      <point x="-123" y="-166"/>
      <point x="-87" y="-181" type="curve" smooth="yes"/>
      <point x="-68" y="-189" type="line" smooth="yes"/>
      <point x="-53" y="-195"/>
      <point x="-45" y="-212"/>
      <point x="-49" y="-228" type="curve" smooth="yes"/>
      <point x="-61" y="-269"/>
      <point x="-102" y="-301"/>
      <point x="-155" y="-301" type="curve" smooth="yes"/>
      <point x="-223" y="-301"/>
      <point x="-270" y="-255"/>
      <point x="-270" y="-190" type="curve" smooth="yes"/>
      <point x="-270" y="-133"/>
      <point x="-231" y="-86"/>
      <point x="-178" y="-79" type="curve" smooth="yes"/>
      <point x="-153" y="-76"/>
      <point x="-136" y="-94"/>
      <point x="-142" y="-119" type="curve" smooth="yes"/>
      <point x="-146" y="-138" type="line" smooth="yes"/>
      <point x="-150" y="-159"/>
      <point x="-170" y="-169"/>
      <point x="-190" y="-162" type="curve" smooth="yes"/>
      <point x="-207" y="-155"/>
      <point x="-228" y="-152"/>
      <point x="-251" y="-152" type="curve" smooth="yes"/>
      <point x="-318" y="-152"/>
      <point x="-355" y="-202"/>
    </contour>
    <contour>
      <point x="-141" y="-186" type="curve" smooth="yes"/>
      <point x="-141" y="-183"/>
      <point x="-142" y="-179"/>
      <point x="-147" y="-179" type="curve" smooth="yes"/>
      <point x="-150" y="-179"/>
      <point x="-153" y="-181"/>
      <point x="-153" y="-185" type="curve" smooth="yes"/>
      <point x="-153" y="-189"/>
      <point x="-150" y="-191"/>
      <point x="-147" y="-191" type="curve" smooth="yes"/>
      <point x="-144" y="-191"/>
      <point x="-141" y="-190"/>
    </contour>
    <contour>
      <point x="-262" y="-339" type="line"/>
      <point x="-268" y="-338" type="line"/>
      <point x="-230" y="-300" type="line"/>
      <point x="-226" y="-328"/>
      <point x="-195" y="-342"/>
      <point x="-164" y="-342" type="curve" smooth="yes"/>
      <point x="-106" y="-342"/>
      <point x="-63" y="-302"/>
      <point x="-63" y="-245" type="curve" smooth="yes"/>
      <point x="-63" y="-159"/>
      <point x="-131" y="-86"/>
      <point x="-252" y="-86" type="curve" smooth="yes"/>
      <point x="-371" y="-86"/>
      <point x="-438" y="-165"/>
      <point x="-438" y="-250" type="curve" smooth="yes"/>
      <point x="-438" y="-305"/>
      <point x="-406" y="-342"/>
      <point x="-353" y="-342" type="curve" smooth="yes"/>
      <point x="-322" y="-342"/>
      <point x="-295" y="-327"/>
      <point x="-289" y="-299" type="curve"/>
    </contour>
    <contour>
      <point x="-421" y="-249" type="curve" smooth="yes"/>
      <point x="-421" y="-172"/>
      <point x="-364" y="-86"/>
      <point x="-251" y="-86" type="curve" smooth="yes"/>
      <point x="-218" y="-86"/>
      <point x="-191" y="-91"/>
      <point x="-166" y="-100" type="curve"/>
      <point x="-210" y="-124" type="line"/>
      <point x="-206" y="-105" type="line"/>
      <point x="-170" y="-145" type="line"/>
      <point x="-191" y="-148"/>
      <point x="-204" y="-169"/>
      <point x="-204" y="-190" type="curve" smooth="yes"/>
      <point x="-204" y="-217"/>
      <point x="-183" y="-235"/>
      <point x="-155" y="-235" type="curve" smooth="yes"/>
      <point x="-136" y="-235"/>
      <point x="-117" y="-227"/>
      <point x="-113" y="-210" type="curve"/>
      <point x="-94" y="-249" type="line"/>
      <point x="-113" y="-241" type="line"/>
      <point x="-69" y="-201" type="line"/>
      <point x="-64" y="-213"/>
      <point x="-62" y="-225"/>
      <point x="-62" y="-236" type="curve"/>
      <point x="-62" y="-302"/>
      <point x="-103" y="-339"/>
      <point x="-162" y="-339" type="curve" smooth="yes"/>
      <point x="-220" y="-339"/>
      <point x="-252" y="-305"/>
      <point x="-252" y="-253" type="curve" smooth="yes"/>
      <point x="-252" y="-245" type="line"/>
      <point x="-219" y="-278" type="line"/>
      <point x="-302" y="-278" type="line"/>
      <point x="-269" y="-245" type="line"/>
      <point x="-269" y="-253" type="line" smooth="yes"/>
      <point x="-269" y="-311"/>
      <point x="-304" y="-339"/>
      <point x="-345" y="-339" type="curve" smooth="yes"/>
      <point x="-388" y="-339"/>
      <point x="-421" y="-314"/>
    </contour>
    <contour>
      <point x="-207" y="-186" type="curve" smooth="yes"/>
      <point x="-207" y="-148"/>
      <point x="-180" y="-125"/>
      <point x="-147" y="-125" type="curve" smooth="yes"/>
      <point x="-114" y="-125"/>
      <point x="-87" y="-149"/>
      <point x="-87" y="-185" type="curve" smooth="yes"/>
      <point x="-87" y="-221"/>
      <point x="-114" y="-245"/>
      <point x="-147" y="-245" type="curve" smooth="yes"/>
      <point x="-186" y="-245"/>
      <point x="-207" y="-219"/>
    </contour>
  </outline>
</glyph>
<glyph name="knDHI" format="1">
  <advance width="810"/>
  <outline>
    <contour>
      <point x="372" y="109" type="curve"/>
      <point x="438" y="109" type="line"/>
      <point x="423" y="18"/>
      <point x="349" y="-42"/>
      <point x="243" y="-42" type="curve" smooth="yes"/>
      <point x="87" y="-42"/>
      <point x="-3" y="61"/>
      <point x="-3" y="225" type="curve" smooth="yes"/>
      <point x="-3" y="427"/>
      <point x="141" y="601"/>
      <point x="405" y="601" type="curve" smooth="yes"/>
      <point x="669" y="601"/>
      <point x="813" y="427"/>
      <point x="813" y="225" type="curve" smooth="yes"/>
      <point x="813" y="61"/>
      <point x="723" y="-42"/>
      <point x="567" y="-42" type="curve" smooth="yes"/>
      <point x="461" y="-42"/>
      <point x="387" y="18"/>
    </contour>
    <contour>
      <point x="515" y="-196" type="line" smooth="yes"/>
      <point x="515" y="-214"/>
      <point x="500" y="-229"/>
      <point x="482" y="-229" type="curve" smooth="yes"/>
      <point x="328" y="-229" type="line" smooth="yes"/>
      <point x="310" y="-229"/>
      <point x="295" y="-214"/>
      <point x="295" y="-196" type="curve" smooth="yes"/>
      <point x="295" y="-181" type="line" smooth="yes"/>
      <point x="295" y="-179"/>
      <point x="295" y="-175"/>
      <point x="296" y="-173" type="curve" smooth="yes"/>
      <point x="340" y="12" type="line" smooth="yes"/>
      <point x="343" y="26"/>
      <point x="358" y="37"/>
      <point x="372" y="37" type="curve" smooth="yes"/>
      <point x="438" y="37" type="line" smooth="yes"/>
      <point x="452" y="37"/>
      <point x="467" y="26"/>
      <point x="470" y="12" type="curve" smooth="yes"/>
      <point x="514" y="-173" type="line" smooth="yes"/>
      <point x="515" y="-175"/>
      <point x="515" y="-179"/>
      <point x="515" y="-181" type="curve" smooth="yes"/>
    </contour>
    <contour>
      <point x="205" y="235" type="curve" smooth="yes"/>
      <point x="205" y="189"/>
      <point x="216" y="139"/>
      <point x="258" y="139" type="curve" smooth="yes"/>
      <point x="291" y="139"/>
      <point x="301" y="174"/>
      <point x="301" y="210" type="curve" smooth="yes"/>
      <point x="301" y="241" type="line" smooth="yes"/>
      <point x="301" y="259"/>
      <point x="316" y="274"/>
      <point x="334" y="274" type="curve" smooth="yes"/>
      <point x="476" y="274" type="line" smooth="yes"/>
      <point x="494" y="274"/>
      <point x="509" y="259"/>
      <point x="509" y="241" type="curve" smooth="yes"/>
      <point x="509" y="210" type="line" smooth="yes"/>
      <point x="509" y="174"/>
      <point x="519" y="139"/>
      <point x="552" y="139" type="curve" smooth="yes"/>
      <point x="594" y="139"/>
      <point x="605" y="189"/>
      <point x="605" y="235" type="curve" smooth="yes"/>
      <point x="605" y="329"/>
      <point x="545" y="423"/>
      <point x="405" y="423" type="curve" smooth="yes"/>
      <point x="265" y="423"/>
      <point x="205" y="329"/>
    </contour>
    <contour>
      <point x="335" y="841" type="curve" smooth="yes"/>
      <point x="603" y="841"/>
      <point x="813" y="616"/>
      <point x="813" y="235" type="curve" smooth="yes"/>
      <point x="813" y="195"/>
      <point x="786" y="184"/>
      <point x="757" y="211" type="curve" smooth="yes"/>
      <point x="637" y="326" type="line" smooth="yes"/>
      <point x="632" y="331"/>
      <point x="627" y="341"/>
      <point x="627" y="348" type="curve" smooth="yes"/>
      <point x="618" y="535"/>
      <point x="495" y="663"/>
      <point x="347" y="663" type="curve" smooth="yes"/>
      <point x="309" y="663"/>
      <point x="264" y="659"/>
      <point x="264" y="630" type="curve" smooth="yes"/>
      <point x="264" y="595"/>
      <point x="341" y="598"/>
      <point x="398" y="601" type="curve" smooth="yes"/>
      <point x="449" y="603"/>
      <point x="460" y="561"/>
      <point x="415" y="538" type="curve" smooth="yes"/>
      <point x="275" y="469" type="line" smooth="yes"/>
      <point x="271" y="468"/>
      <point x="265" y="466"/>
      <point x="261" y="466" type="curve" smooth="yes"/>
      <point x="131" y="462"/>
      <point x="56" y="539"/>
      <point x="56" y="638" type="curve"/>
      <point x="56" y="742"/>
      <point x="142" y="841"/>
    </contour>
    <contour>
      <point x="438" y="119" type="curve" smooth="yes"/>
      <point x="447" y="58"/>
      <point x="499" y="24"/>
      <point x="567" y="24" type="curve" smooth="yes"/>
      <point x="685" y="24"/>
      <point x="747" y="105"/>
      <point x="747" y="225" type="curve" smooth="yes"/>
      <point x="747" y="395"/>
      <point x="623" y="535"/>
      <point x="405" y="535" type="curve" smooth="yes"/>
      <point x="187" y="535"/>
      <point x="63" y="395"/>
      <point x="63" y="225" type="curve"/>
      <point x="63" y="105"/>
      <point x="125" y="24"/>
      <point x="243" y="24" type="curve" smooth="yes"/>
      <point x="311" y="24"/>
      <point x="363" y="58"/>
      <point x="372" y="119" type="curve" smooth="yes"/>
      <point x="381" y="172"/>
      <point x="429" y="172"/>
    </contour>
    <contour>
      <point x="449" y="-196" type="line"/>
      <point x="449" y="-181" type="line"/>
      <point x="450" y="-189" type="line"/>
      <point x="406" y="-4" type="line"/>
      <point x="438" y="-29" type="line"/>
      <point x="372" y="-29" type="line"/>
      <point x="404" y="-4" type="line"/>
      <point x="360" y="-189" type="line"/>
      <point x="361" y="-181" type="line"/>
      <point x="361" y="-196" type="line"/>
      <point x="328" y="-163" type="line"/>
      <point x="482" y="-163" type="line"/>
    </contour>
    <contour>
      <point x="139" y="235" type="curve" smooth="yes"/>
      <point x="139" y="361"/>
      <point x="215" y="489"/>
      <point x="405" y="489" type="curve" smooth="yes"/>
      <point x="595" y="489"/>
      <point x="671" y="361"/>
      <point x="671" y="235" type="curve" smooth="yes"/>
      <point x="671" y="131"/>
      <point x="624" y="73"/>
      <point x="552" y="73" type="curve" smooth="yes"/>
      <point x="489" y="73"/>
      <point x="443" y="120"/>
      <point x="443" y="210" type="curve" smooth="yes"/>
      <point x="443" y="241" type="line"/>
      <point x="476" y="208" type="line"/>
      <point x="334" y="208" type="line"/>
      <point x="367" y="241" type="line"/>
      <point x="367" y="210" type="line" smooth="yes"/>
      <point x="367" y="120"/>
      <point x="321" y="73"/>
      <point x="258" y="73" type="curve" smooth="yes"/>
      <point x="186" y="73"/>
      <point x="139" y="131"/>
    </contour>
    <contour>
      <point x="335" y="775" type="curve" smooth="yes"/>
      <point x="204" y="775"/>
      <point x="122" y="718"/>
      <point x="122" y="638" type="curve" smooth="yes"/>
      <point x="122" y="571"/>
      <point x="179" y="530"/>
      <point x="259" y="532" type="curve"/>
      <point x="245" y="529" type="line"/>
      <point x="385" y="598" type="line"/>
      <point x="402" y="535" type="line"/>
      <point x="213" y="526"/>
      <point x="198" y="577"/>
      <point x="198" y="630" type="curve" smooth="yes"/>
      <point x="198" y="681"/>
      <point x="232" y="729"/>
      <point x="347" y="729" type="curve" smooth="yes"/>
      <point x="525" y="729"/>
      <point x="682" y="581"/>
      <point x="693" y="352" type="curve"/>
      <point x="683" y="374" type="line"/>
      <point x="803" y="259" type="line"/>
      <point x="747" y="235" type="line"/>
      <point x="747" y="564"/>
      <point x="573" y="775"/>
    </contour>
  </outline>
</glyph>
<glyph name="knGA.base" format="1">
  <advance width="611"/>
  <outline>
    <contour>
      <point x="99" y="470" type="curve" smooth="yes"/>
      <point x="460" y="470" type="line" smooth="yes"/>
      <point x="478" y="470"/>
      <point x="493" y="455"/>
      <point x="493" y="437" type="curve" smooth="yes"/>
      <point x="493" y="419"/>
      <point x="478" y="404"/>
      <point x="460" y="404" type="curve" smooth="yes"/>
      <point x="99" y="404" type="line" smooth="yes"/>
      <point x="81" y="404"/>
      <point x="66" y="419"/>
      <point x="66" y="437" type="curve" smooth="yes"/>
      <point x="66" y="455"/>
      <point x="81" y="470"/>
    </contour>
    <contour>
      <point x="482" y="41" type="curve" smooth="yes"/>
      <point x="502" y="83"/>
      <point x="514" y="124"/>
      <point x="514" y="180" type="curve" smooth="yes"/>
      <point x="514" y="263"/>
      <point x="455" y="356"/>
      <point x="344" y="407" type="curve" smooth="yes"/>
      <point x="328" y="415"/>
      <point x="321" y="435"/>
      <point x="328" y="451" type="curve" smooth="yes"/>
      <point x="336" y="467"/>
      <point x="356" y="474"/>
      <point x="372" y="467" type="curve" smooth="yes"/>
      <point x="511" y="402"/>
      <point x="580" y="283"/>
      <point x="580" y="180" type="curve" smooth="yes"/>
      <point x="580" y="112"/>
      <point x="566" y="63"/>
      <point x="542" y="13" type="curve" smooth="yes"/>
      <point x="534" y="-3"/>
      <point x="514" y="-10"/>
      <point x="498" y="-3" type="curve" smooth="yes"/>
      <point x="482" y="5"/>
      <point x="475" y="25"/>
    </contour>
    <contour>
      <point x="334" y="407" type="curve" smooth="yes"/>
      <point x="225" y="357"/>
      <point x="171" y="264"/>
      <point x="171" y="180" type="curve" smooth="yes"/>
      <point x="171" y="125"/>
      <point x="182" y="82"/>
      <point x="202" y="42" type="curve" smooth="yes"/>
      <point x="211" y="26"/>
      <point x="204" y="6"/>
      <point x="188" y="-2" type="curve" smooth="yes"/>
      <point x="172" y="-11"/>
      <point x="152" y="-4"/>
      <point x="144" y="12" type="curve" smooth="yes"/>
      <point x="118" y="60"/>
      <point x="105" y="113"/>
      <point x="105" y="180" type="curve" smooth="yes"/>
      <point x="105" y="284"/>
      <point x="169" y="403"/>
      <point x="306" y="467" type="curve" smooth="yes"/>
      <point x="322" y="474"/>
      <point x="342" y="467"/>
      <point x="350" y="451" type="curve" smooth="yes"/>
      <point x="357" y="435"/>
      <point x="350" y="415"/>
    </contour>
  </outline>
</glyph>
<glyph name="knGAc2" format="1">
  <advance width="0"/>
  <outline>
    <contour>
      <point x="-194" y="-359" type="curve" smooth="yes"/>
      <point x="-186" y="-383"/>
      <point x="-200" y="-402"/>
      <point x="-225" y="-402" type="curve" smooth="yes"/>
      <point x="-316" y="-402" type="line" smooth="yes"/>
      <point x="-330" y="-402"/>
      <point x="-344" y="-391"/>
      <point x="-348" y="-378" type="curve" smooth="yes"/>
      <point x="-357" y="-346"/>
      <point x="-363" y="-307"/>
      <point x="-363" y="-245" type="curve" smooth="yes"/>
      <point x="-363" y="-160"/>
      <point x="-319" y="-15"/>
      <point x="-180" y="-15" type="curve" smooth="yes"/>
      <point x="-41" y="-15"/>
      <point x="3" y="-160"/>
      <point x="3" y="-245" type="curve" smooth="yes"/>
      <point x="3" y="-307"/>
      <point x="-3" y="-346"/>
      <point x="-12" y="-378" type="curve" smooth="yes"/>
      <point x="-16" y="-391"/>
      <point x="-30" y="-402"/>
      <point x="-44" y="-402" type="curve" smooth="yes"/>
      <point x="-135" y="-402" type="line" smooth="yes"/>
      <point x="-160" y="-402"/>
      <point x="-174" y="-383"/>
      <point x="-166" y="-359" type="curve" smooth="yes"/>
      <point x="-156" y="-327"/>
      <point x="-151" y="-295"/>
      <point x="-151" y="-248" type="curve" smooth="yes"/>
      <point x="-151" y="-223"/>
      <point x="-143" y="-153"/>
      <point x="-180" y="-153" type="curve" smooth="yes"/>
      <point x="-218" y="-153"/>
      <point x="-209" y="-223"/>
      <point x="-209" y="-248" type="curve" smooth="yes"/>
      <point x="-209" y="-295"/>
      <point x="-204" y="-327"/>
    </contour>
    <contour>
      <point x="-256" y="-379" type="line"/>
      <point x="-268" y="-341"/>
      <point x="-275" y="-303"/>
      <point x="-275" y="-248" type="curve" smooth="yes"/>
      <point x="-275" y="-165"/>
      <point x="-244" y="-87"/>
      <point x="-180" y="-87" type="curve" smooth="yes"/>
      <point x="-117" y="-87"/>
      <point x="-85" y="-165"/>
      <point x="-85" y="-248" type="curve" smooth="yes"/>
      <point x="-85" y="-303"/>
      <point x="-92" y="-341"/>
      <point x="-104" y="-379" type="curve"/>
      <point x="-135" y="-336" type="line"/>
      <point x="-44" y="-336" type="line"/>
      <point x="-76" y="-360" type="line"/>
      <point x="-67" y="-332"/>
      <point x="-63" y="-299"/>
      <point x="-63" y="-245" type="curve" smooth="yes"/>
      <point x="-63" y="-190"/>
      <point x="-81" y="-81"/>
      <point x="-180" y="-81" type="curve" smooth="yes"/>
      <point x="-279" y="-81"/>
      <point x="-297" y="-190"/>
      <point x="-297" y="-245" type="curve" smooth="yes"/>
      <point x="-297" y="-299"/>
      <point x="-293" y="-332"/>
      <point x="-284" y="-360" type="curve"/>
      <point x="-316" y="-336" type="line"/>
      <point x="-225" y="-336" type="line"/>
    </contour>
  </outline>
</glyph>
<glyph name="knGHA.base" format="1">
  <advance width="828"/>
  <outline>
    <contour>
      <point x="358" y="448" type="curve" smooth="yes"/>
      <point x="431" y="448"/>
      <point x="476" y="396"/>
      <point x="476" y="334" type="curve" smooth="yes"/>
      <point x="476" y="270"/>
      <point x="431" y="220"/>
      <point x="359" y="220" type="curve" smooth="yes"/>
      <point x="288" y="220"/>
      <point x="242" y="272"/>
      <point x="242" y="333" type="curve" smooth="yes"/>
      <point x="242" y="397"/>
      <point x="291" y="448"/>
    </contour>
    <contour>
      <point x="729" y="383" type="curve" smooth="yes"/>
      <point x="750" y="359"/>
      <point x="766" y="329"/>
      <point x="766" y="287" type="curve" smooth="yes"/>
      <point x="766" y="232"/>
      <point x="725" y="181"/>
      <point x="661" y="181" type="curve" smooth="yes"/>
      <point x="630" y="181"/>
      <point x="594" y="192"/>
      <point x="565" y="208" type="curve" smooth="yes"/>
      <point x="550" y="217"/>
      <point x="545" y="238"/>
      <point x="553" y="254" type="curve" smooth="yes"/>
      <point x="562" y="269"/>
      <point x="583" y="274"/>
      <point x="599" y="266" type="curve" smooth="yes"/>
      <point x="618" y="254"/>
      <point x="640" y="247"/>
      <point x="661" y="247" type="curve" smooth="yes"/>
      <point x="685" y="247"/>
      <point x="700" y="266"/>
      <point x="700" y="287" type="curve" smooth="yes"/>
      <point x="700" y="311"/>
      <point x="690" y="327"/>
      <point x="679" y="341" type="curve" smooth="yes"/>
      <point x="667" y="354"/>
      <point x="669" y="376"/>
      <point x="683" y="387" type="curve" smooth="yes"/>
      <point x="696" y="399"/>
      <point x="718" y="397"/>
    </contour>
    <contour>
      <point x="392" y="-89" type="curve" smooth="yes"/>
      <point x="392" y="-192" type="line" smooth="yes"/>
      <point x="392" y="-210"/>
      <point x="377" y="-225"/>
      <point x="359" y="-225" type="curve" smooth="yes"/>
      <point x="341" y="-225"/>
      <point x="326" y="-210"/>
      <point x="326" y="-192" type="curve" smooth="yes"/>
      <point x="326" y="-89" type="line" smooth="yes"/>
      <point x="326" y="-71"/>
      <point x="341" y="-56"/>
      <point x="359" y="-56" type="curve" smooth="yes"/>
      <point x="377" y="-56"/>
      <point x="392" y="-71"/>
    </contour>
    <contour>
      <point x="91" y="470" type="curve" smooth="yes"/>
      <point x="616" y="470" type="line" smooth="yes"/>
      <point x="634" y="470"/>
      <point x="649" y="455"/>
      <point x="649" y="437" type="curve" smooth="yes"/>
      <point x="649" y="419"/>
      <point x="634" y="404"/>
      <point x="616" y="404" type="curve" smooth="yes"/>
      <point x="91" y="404" type="line" smooth="yes"/>
      <point x="73" y="404"/>
      <point x="58" y="419"/>
      <point x="58" y="437" type="curve" smooth="yes"/>
      <point x="58" y="455"/>
      <point x="73" y="470"/>
    </contour>
    <contour>
      <point x="358" y="382" type="curve" smooth="yes"/>
      <point x="329" y="382"/>
      <point x="308" y="361"/>
      <point x="308" y="333" type="curve" smooth="yes"/>
      <point x="308" y="306"/>
      <point x="330" y="286"/>
      <point x="359" y="286" type="curve" smooth="yes"/>
      <point x="389" y="286"/>
      <point x="410" y="306"/>
      <point x="410" y="334" type="curve" smooth="yes"/>
      <point x="410" y="362"/>
      <point x="389" y="382"/>
    </contour>
    <contour>
      <point x="197" y="192" type="curve" smooth="yes"/>
      <point x="153" y="192"/>
      <point x="121" y="158"/>
      <point x="121" y="125" type="curve" smooth="yes"/>
      <point x="121" y="88"/>
      <point x="154" y="60"/>
      <point x="199" y="60" type="curve" smooth="yes"/>
      <point x="261" y="60"/>
      <point x="297" y="87"/>
      <point x="327" y="144" type="curve" smooth="yes"/>
      <point x="332" y="153"/>
      <point x="345" y="161"/>
      <point x="356" y="161" type="curve" smooth="yes"/>
      <point x="361" y="161" type="line" smooth="yes"/>
      <point x="371" y="161"/>
      <point x="383" y="154"/>
      <point x="389" y="146" type="curve" smooth="yes"/>
      <point x="423" y="92"/>
      <point x="461" y="60"/>
      <point x="522" y="60" type="curve" smooth="yes"/>
      <point x="572" y="60"/>
      <point x="604" y="93"/>
      <point x="604" y="134" type="curve" smooth="yes"/>
      <point x="604" y="168"/>
      <point x="586" y="193"/>
      <point x="556" y="209" type="curve" smooth="yes"/>
      <point x="540" y="218"/>
      <point x="535" y="239"/>
      <point x="543" y="254" type="curve" smooth="yes"/>
      <point x="552" y="270"/>
      <point x="573" y="275"/>
      <point x="588" y="267" type="curve" smooth="yes"/>
      <point x="640" y="237"/>
      <point x="670" y="194"/>
      <point x="670" y="134" type="curve" smooth="yes"/>
      <point x="670" y="59"/>
      <point x="616" y="-6"/>
      <point x="522" y="-6" type="curve" smooth="yes"/>
      <point x="437" y="-6"/>
      <point x="383" y="34"/>
      <point x="333" y="110" type="curve"/>
      <point x="361" y="95" type="line"/>
      <point x="356" y="95" type="line"/>
      <point x="385" y="112" type="line"/>
      <point x="341" y="31"/>
      <point x="289" y="-6"/>
      <point x="199" y="-6" type="curve" smooth="yes"/>
      <point x="108" y="-6"/>
      <point x="55" y="56"/>
      <point x="55" y="125" type="curve"/>
      <point x="55" y="188"/>
      <point x="111" y="258"/>
      <point x="197" y="258" type="curve" smooth="yes"/>
      <point x="215" y="258"/>
      <point x="230" y="243"/>
      <point x="230" y="225" type="curve" smooth="yes"/>
      <point x="230" y="207"/>
      <point x="215" y="192"/>
    </contour>
  </outline>
</glyph>
<glyph name="knGHI" format="1">
  <advance width="907"/>
  <outline>
    <contour>
      <point x="362" y="109" type="curve"/>
      <point x="427" y="108" type="line"/>
      <point x="409" y="16"/>
      <point x="336" y="-43"/>
      <point x="233" y="-43" type="curve" smooth="yes"/>
      <point x="84" y="-43"/>
      <point x="-3" y="50"/>
      <point x="-3" y="184" type="curve" smooth="yes"/>
      <point x="-3" y="320"/>
      <point x="88" y="405"/>
      <point x="209" y="405" type="curve" smooth="yes"/>
      <point x="227" y="405"/>
      <point x="247" y="403"/>
      <point x="267" y="398" type="curve" smooth="yes"/>
      <point x="281" y="395"/>
      <point x="293" y="381"/>
      <point x="293" y="366" type="curve" smooth="yes"/>
      <point x="293" y="254" type="line" smooth="yes"/>
      <point x="293" y="230"/>
      <point x="274" y="216"/>
      <point x="251" y="222" type="curve" smooth="yes"/>
      <point x="247" y="223"/>
      <point x="243" y="224"/>
      <point x="239" y="224" type="curve" smooth="yes"/>
      <point x="217" y="224"/>
      <point x="205" y="205"/>
      <point x="205" y="184" type="curve" smooth="yes"/>
      <point x="205" y="156"/>
      <point x="220" y="139"/>
      <point x="245" y="139" type="curve" smooth="yes"/>
      <point x="280" y="139"/>
      <point x="291" y="173"/>
      <point x="291" y="210" type="curve" smooth="yes"/>
      <point x="291" y="246" type="line" smooth="yes"/>
      <point x="291" y="264"/>
      <point x="306" y="279"/>
      <point x="324" y="279" type="curve" smooth="yes"/>
      <point x="466" y="279" type="line" smooth="yes"/>
      <point x="484" y="279"/>
      <point x="499" y="264"/>
      <point x="499" y="246" type="curve" smooth="yes"/>
      <point x="499" y="210" type="line" smooth="yes"/>
      <point x="499" y="177"/>
      <point x="505" y="139"/>
      <point x="542" y="139" type="curve" smooth="yes"/>
      <point x="574" y="139"/>
      <point x="582" y="173"/>
      <point x="582" y="200" type="curve" smooth="yes"/>
      <point x="582" y="224"/>
      <point x="573" y="245"/>
      <point x="548" y="245" type="curve" smooth="yes"/>
      <point x="544" y="245"/>
      <point x="540" y="244"/>
      <point x="536" y="243" type="curve" smooth="yes"/>
      <point x="513" y="237"/>
      <point x="494" y="251"/>
      <point x="494" y="275" type="curve" smooth="yes"/>
      <point x="494" y="387" type="line" smooth="yes"/>
      <point x="494" y="402"/>
      <point x="506" y="416"/>
      <point x="520" y="419" type="curve" smooth="yes"/>
      <point x="540" y="424"/>
      <point x="560" y="426"/>
      <point x="578" y="426" type="curve" smooth="yes"/>
      <point x="699" y="426"/>
      <point x="790" y="336"/>
      <point x="790" y="200" type="curve" smooth="yes"/>
      <point x="790" y="71"/>
      <point x="705" y="-43"/>
      <point x="558" y="-43" type="curve" smooth="yes"/>
      <point x="457" y="-43"/>
      <point x="377" y="14"/>
    </contour>
    <contour>
      <point x="504" y="-186" type="line" smooth="yes"/>
      <point x="504" y="-204"/>
      <point x="489" y="-219"/>
      <point x="471" y="-219" type="curve" smooth="yes"/>
      <point x="317" y="-219" type="line" smooth="yes"/>
      <point x="299" y="-219"/>
      <point x="284" y="-204"/>
      <point x="284" y="-186" type="curve" smooth="yes"/>
      <point x="284" y="-171" type="line" smooth="yes"/>
      <point x="284" y="-169"/>
      <point x="284" y="-165"/>
      <point x="285" y="-163" type="curve" smooth="yes"/>
      <point x="329" y="22" type="line" smooth="yes"/>
      <point x="332" y="36"/>
      <point x="347" y="47"/>
      <point x="361" y="47" type="curve" smooth="yes"/>
      <point x="427" y="47" type="line" smooth="yes"/>
      <point x="441" y="47"/>
      <point x="456" y="36"/>
      <point x="459" y="22" type="curve" smooth="yes"/>
      <point x="503" y="-163" type="line" smooth="yes"/>
      <point x="504" y="-165"/>
      <point x="504" y="-169"/>
      <point x="504" y="-171" type="curve" smooth="yes"/>
    </contour>
    <contour>
      <point x="501" y="361" type="curve" smooth="yes"/>
      <point x="501" y="301"/>
      <point x="456" y="256"/>
      <point x="396" y="256" type="curve" smooth="yes"/>
      <point x="336" y="256"/>
      <point x="291" y="301"/>
      <point x="291" y="361" type="curve" smooth="yes"/>
      <point x="291" y="421"/>
      <point x="336" y="466"/>
      <point x="396" y="466" type="curve" smooth="yes"/>
      <point x="456" y="466"/>
      <point x="501" y="421"/>
    </contour>
    <contour>
      <point x="920" y="375" type="curve" smooth="yes"/>
      <point x="920" y="293"/>
      <point x="870" y="236"/>
      <point x="783" y="236" type="curve" smooth="yes"/>
      <point x="707" y="236"/>
      <point x="648" y="296"/>
      <point x="619" y="349" type="curve" smooth="yes"/>
      <point x="611" y="363"/>
      <point x="616" y="382"/>
      <point x="628" y="391" type="curve" smooth="yes"/>
      <point x="640" y="400" type="line" smooth="yes"/>
      <point x="649" y="407"/>
      <point x="665" y="409"/>
      <point x="675" y="403" type="curve" smooth="yes"/>
      <point x="691" y="395"/>
      <point x="703" y="388"/>
      <point x="720" y="388" type="curve" smooth="yes"/>
      <point x="727" y="388"/>
      <point x="732" y="391"/>
      <point x="732" y="399" type="curve" smooth="yes"/>
      <point x="732" y="409"/>
      <point x="728" y="421"/>
      <point x="722" y="430" type="curve" smooth="yes"/>
      <point x="704" y="458"/>
      <point x="717" y="481"/>
      <point x="750" y="481" type="curve" smooth="yes"/>
      <point x="866" y="481" type="line" smooth="yes"/>
      <point x="876" y="481"/>
      <point x="888" y="474"/>
      <point x="893" y="466" type="curve" smooth="yes"/>
      <point x="911" y="440"/>
      <point x="920" y="405"/>
    </contour>
    <contour>
      <point x="525" y="431" type="curve" smooth="yes"/>
      <point x="44" y="431" type="line" smooth="yes"/>
      <point x="26" y="431"/>
      <point x="11" y="446"/>
      <point x="11" y="464" type="curve"/>
      <point x="11" y="576" type="line"/>
      <point x="11" y="594"/>
      <point x="26" y="609"/>
      <point x="44" y="609" type="curve" smooth="yes"/>
      <point x="506" y="609" type="line" smooth="yes"/>
      <point x="565" y="609"/>
      <point x="609" y="616"/>
      <point x="609" y="681" type="curve" smooth="yes"/>
      <point x="609" y="708"/>
      <point x="599" y="741"/>
      <point x="569" y="741" type="curve" smooth="yes"/>
      <point x="566" y="741"/>
      <point x="555" y="744"/>
      <point x="555" y="737" type="curve" smooth="yes"/>
      <point x="555" y="732"/>
      <point x="562" y="735"/>
      <point x="564" y="735" type="curve" smooth="yes"/>
      <point x="572" y="735"/>
      <point x="581" y="737"/>
      <point x="590" y="740" type="curve" smooth="yes"/>
      <point x="614" y="747"/>
      <point x="633" y="733"/>
      <point x="633" y="708" type="curve" smooth="yes"/>
      <point x="633" y="629" type="line" smooth="yes"/>
      <point x="633" y="617"/>
      <point x="624" y="604"/>
      <point x="613" y="599" type="curve" smooth="yes"/>
      <point x="592" y="589"/>
      <point x="562" y="584"/>
      <point x="538" y="584" type="curve" smooth="yes"/>
      <point x="433" y="584"/>
      <point x="370" y="643"/>
      <point x="370" y="740" type="curve" smooth="yes"/>
      <point x="370" y="830"/>
      <point x="439" y="909"/>
      <point x="565" y="909" type="curve" smooth="yes"/>
      <point x="715" y="909"/>
      <point x="795" y="795"/>
      <point x="795" y="676" type="curve" smooth="yes"/>
      <point x="795" y="537"/>
      <point x="713" y="431"/>
    </contour>
    <contour>
      <point x="428" y="119" type="curve" smooth="yes"/>
      <point x="437" y="56"/>
      <point x="493" y="23"/>
      <point x="558" y="23" type="curve" smooth="yes"/>
      <point x="665" y="23"/>
      <point x="724" y="107"/>
      <point x="724" y="200" type="curve" smooth="yes"/>
      <point x="724" y="294"/>
      <point x="663" y="360"/>
      <point x="578" y="360" type="curve" smooth="yes"/>
      <point x="564" y="360"/>
      <point x="550" y="358"/>
      <point x="534" y="355" type="curve"/>
      <point x="560" y="387" type="line"/>
      <point x="560" y="275" type="line"/>
      <point x="518" y="307" type="line"/>
      <point x="528" y="310"/>
      <point x="538" y="311"/>
      <point x="548" y="311" type="curve" smooth="yes"/>
      <point x="611" y="311"/>
      <point x="648" y="272"/>
      <point x="648" y="200" type="curve" smooth="yes"/>
      <point x="648" y="129"/>
      <point x="610" y="73"/>
      <point x="542" y="73" type="curve" smooth="yes"/>
      <point x="471" y="73"/>
      <point x="433" y="125"/>
      <point x="433" y="210" type="curve" smooth="yes"/>
      <point x="433" y="246" type="line"/>
      <point x="466" y="213" type="line"/>
      <point x="324" y="213" type="line"/>
      <point x="357" y="246" type="line"/>
      <point x="357" y="210" type="line" smooth="yes"/>
      <point x="357" y="121"/>
      <point x="312" y="73"/>
      <point x="245" y="73" type="curve" smooth="yes"/>
      <point x="184" y="73"/>
      <point x="139" y="108"/>
      <point x="139" y="184" type="curve" smooth="yes"/>
      <point x="139" y="247"/>
      <point x="181" y="290"/>
      <point x="239" y="290" type="curve" smooth="yes"/>
      <point x="249" y="290"/>
      <point x="259" y="289"/>
      <point x="269" y="286" type="curve"/>
      <point x="227" y="254" type="line"/>
      <point x="227" y="366" type="line"/>
      <point x="253" y="334" type="line"/>
      <point x="237" y="337"/>
      <point x="223" y="339"/>
      <point x="209" y="339" type="curve" smooth="yes"/>
      <point x="124" y="339"/>
      <point x="63" y="278"/>
      <point x="63" y="184" type="curve"/>
      <point x="63" y="88"/>
      <point x="128" y="23"/>
      <point x="233" y="23" type="curve" smooth="yes"/>
      <point x="300" y="23"/>
      <point x="351" y="60"/>
      <point x="363" y="120" type="curve" smooth="yes"/>
      <point x="373" y="172"/>
      <point x="420" y="171"/>
    </contour>
    <contour>
      <point x="438" y="-186" type="line"/>
      <point x="438" y="-171" type="line"/>
      <point x="439" y="-179" type="line"/>
      <point x="395" y="6" type="line"/>
      <point x="427" y="-19" type="line"/>
      <point x="361" y="-19" type="line"/>
      <point x="393" y="6" type="line"/>
      <point x="349" y="-179" type="line"/>
      <point x="350" y="-171" type="line"/>
      <point x="350" y="-186" type="line"/>
      <point x="317" y="-153" type="line"/>
      <point x="471" y="-153" type="line"/>
    </contour>
    <contour>
      <point x="435" y="361" type="curve" smooth="yes"/>
      <point x="435" y="383"/>
      <point x="418" y="400"/>
      <point x="396" y="400" type="curve" smooth="yes"/>
      <point x="374" y="400"/>
      <point x="357" y="383"/>
      <point x="357" y="361" type="curve" smooth="yes"/>
      <point x="357" y="339"/>
      <point x="374" y="322"/>
      <point x="396" y="322" type="curve" smooth="yes"/>
      <point x="418" y="322"/>
      <point x="435" y="339"/>
    </contour>
    <contour>
      <point x="854" y="375" type="curve" smooth="yes"/>
      <point x="854" y="393"/>
      <point x="849" y="414"/>
      <point x="839" y="430" type="curve"/>
      <point x="866" y="415" type="line"/>
      <point x="750" y="415" type="line"/>
      <point x="778" y="466" type="line"/>
      <point x="790" y="447"/>
      <point x="798" y="419"/>
      <point x="798" y="399" type="curve" smooth="yes"/>
      <point x="798" y="347"/>
      <point x="766" y="322"/>
      <point x="720" y="322" type="curve" smooth="yes"/>
      <point x="693" y="322"/>
      <point x="671" y="331"/>
      <point x="645" y="345" type="curve"/>
      <point x="680" y="348" type="line"/>
      <point x="668" y="339" type="line"/>
      <point x="677" y="381" type="line"/>
      <point x="696" y="346"/>
      <point x="731" y="302"/>
      <point x="783" y="302" type="curve" smooth="yes"/>
      <point x="828" y="302"/>
      <point x="854" y="333"/>
    </contour>
    <contour>
      <point x="525" y="497" type="line" smooth="yes"/>
      <point x="663" y="497"/>
      <point x="729" y="571"/>
      <point x="729" y="676" type="curve" smooth="yes"/>
      <point x="729" y="761"/>
      <point x="673" y="843"/>
      <point x="565" y="843" type="curve" smooth="yes"/>
      <point x="489" y="843"/>
      <point x="436" y="800"/>
      <point x="436" y="740" type="curve" smooth="yes"/>
      <point x="436" y="681"/>
      <point x="477" y="650"/>
      <point x="538" y="650" type="curve" smooth="yes"/>
      <point x="554" y="650"/>
      <point x="572" y="653"/>
      <point x="587" y="659" type="curve"/>
      <point x="567" y="629" type="line"/>
      <point x="567" y="708" type="line"/>
      <point x="610" y="676" type="line"/>
      <point x="593" y="671"/>
      <point x="578" y="669"/>
      <point x="564" y="669" type="curve" smooth="yes"/>
      <point x="512" y="669"/>
      <point x="489" y="698"/>
      <point x="489" y="737" type="curve" smooth="yes"/>
      <point x="489" y="774"/>
      <point x="518" y="807"/>
      <point x="569" y="807" type="curve" smooth="yes"/>
      <point x="633" y="807"/>
      <point x="675" y="752"/>
      <point x="675" y="681" type="curve" smooth="yes"/>
      <point x="675" y="574"/>
      <point x="619" y="543"/>
      <point x="506" y="543" type="curve" smooth="yes"/>
      <point x="44" y="543" type="line"/>
      <point x="77" y="576" type="line"/>
      <point x="77" y="464" type="line"/>
      <point x="44" y="497" type="line"/>
    </contour>
  </outline>
</glyph>
<glyph name="knHAc2" format="1">
  <advance width="0"/>
  <outline>
    <contour>
      <point x="-250" y="-353" type="curve"/>
      <point x="-195" y="-353" type="line"/>
      <point x="-216" y="-385"/>
      <point x="-257" y="-407"/>
      <point x="-306" y="-407" type="curve" smooth="yes"/>
      <point x="-389" y="-407"/>
      <point x="-447" y="-350"/>
      <point x="-447" y="-264" type="curve" smooth="yes"/>
      <point x="-447" y="-179"/>
      <point x="-389" y="-120"/>
      <point x="-299" y="-120" type="curve" smooth="yes"/>
      <point x="-248" y="-120"/>
      <point x="-198" y="-155"/>
      <point x="-187" y="-194" type="curve" smooth="yes"/>
      <point x="-181" y="-217"/>
      <point x="-195" y="-236"/>
      <point x="-219" y="-236" type="curve" smooth="yes"/>
      <point x="-225" y="-236" type="line" smooth="yes"/>
      <point x="-249" y="-236"/>
      <point x="-263" y="-217"/>
      <point x="-257" y="-194" type="curve" smooth="yes"/>
      <point x="-246" y="-155"/>
      <point x="-197" y="-120"/>
      <point x="-142" y="-120" type="curve" smooth="yes"/>
      <point x="-55" y="-120"/>
      <point x="3" y="-179"/>
      <point x="3" y="-264" type="curve" smooth="yes"/>
      <point x="3" y="-349"/>
      <point x="-57" y="-407"/>
      <point x="-140" y="-407" type="curve" smooth="yes"/>
      <point x="-189" y="-407"/>
      <point x="-228" y="-386"/>
    </contour>
    <contour>
      <point x="-305" y="-265" type="curve" smooth="yes"/>
      <point x="-305" y="-270"/>
      <point x="-303" y="-275"/>
      <point x="-297" y="-275" type="curve" smooth="yes"/>
      <point x="-291" y="-275"/>
      <point x="-292" y="-267"/>
      <point x="-292" y="-263" type="curve" smooth="yes"/>
      <point x="-292" y="-258"/>
      <point x="-293" y="-251"/>
      <point x="-299" y="-251" type="curve" smooth="yes"/>
      <point x="-306" y="-251"/>
      <point x="-305" y="-261"/>
    </contour>
    <contour>
      <point x="-152" y="-263" type="curve" smooth="yes"/>
      <point x="-152" y="-269"/>
      <point x="-151" y="-275"/>
      <point x="-144" y="-275" type="curve" smooth="yes"/>
      <point x="-139" y="-275"/>
      <point x="-139" y="-268"/>
      <point x="-139" y="-265" type="curve" smooth="yes"/>
      <point x="-139" y="-261"/>
      <point x="-138" y="-251"/>
      <point x="-145" y="-251" type="curve" smooth="yes"/>
      <point x="-151" y="-251"/>
      <point x="-152" y="-258"/>
    </contour>
    <contour>
      <point x="-194" y="-317" type="curve" smooth="yes"/>
      <point x="-184" y="-334"/>
      <point x="-163" y="-341"/>
      <point x="-140" y="-341" type="curve" smooth="yes"/>
      <point x="-95" y="-341"/>
      <point x="-63" y="-310"/>
      <point x="-63" y="-264" type="curve" smooth="yes"/>
      <point x="-63" y="-217"/>
      <point x="-95" y="-186"/>
      <point x="-142" y="-186" type="curve" smooth="yes"/>
      <point x="-163" y="-186"/>
      <point x="-188" y="-195"/>
      <point x="-193" y="-212" type="curve"/>
      <point x="-225" y="-170" type="line"/>
      <point x="-219" y="-170" type="line"/>
      <point x="-251" y="-212" type="line"/>
      <point x="-256" y="-195"/>
      <point x="-280" y="-186"/>
      <point x="-299" y="-186" type="curve" smooth="yes"/>
      <point x="-347" y="-186"/>
      <point x="-381" y="-217"/>
      <point x="-381" y="-264" type="curve" smooth="yes"/>
      <point x="-381" y="-310"/>
      <point x="-351" y="-341"/>
      <point x="-306" y="-341" type="curve" smooth="yes"/>
      <point x="-283" y="-341"/>
      <point x="-260" y="-333"/>
      <point x="-249" y="-317" type="curve" smooth="yes"/>
      <point x="-234" y="-293"/>
      <point x="-209" y="-294"/>
    </contour>
    <contour>
      <point x="-371" y="-265" type="curve" smooth="yes"/>
      <point x="-371" y="-213"/>
      <point x="-340" y="-185"/>
      <point x="-299" y="-185" type="curve" smooth="yes"/>
      <point x="-257" y="-185"/>
      <point x="-226" y="-212"/>
      <point x="-226" y="-263" type="curve" smooth="yes"/>
      <point x="-226" y="-315"/>
      <point x="-257" y="-341"/>
      <point x="-297" y="-341" type="curve" smooth="yes"/>
      <point x="-341" y="-341"/>
      <point x="-371" y="-312"/>
    </contour>
    <contour>
      <point x="-218" y="-263" type="curve" smooth="yes"/>
      <point x="-218" y="-214"/>
      <point x="-187" y="-185"/>
      <point x="-145" y="-185" type="curve" smooth="yes"/>
      <point x="-104" y="-185"/>
      <point x="-73" y="-213"/>
      <point x="-73" y="-265" type="curve" smooth="yes"/>
      <point x="-73" y="-312"/>
      <point x="-105" y="-341"/>
      <point x="-144" y="-341" type="curve" smooth="yes"/>
      <point x="-189" y="-341"/>
      <point x="-218" y="-315"/>
    </contour>
  </outline>
</glyph>
<glyph name="knHI" format="1">
  <advance width="768"/>
  <outline>
    <contour>
      <point x="356" y="51" type="curve"/>
      <point x="413" y="52" type="line"/>
      <point x="380" y="-6"/>
      <point x="308" y="-44"/>
      <point x="226" y="-44" type="curve" smooth="yes"/>
      <point x="93" y="-44"/>
      <point x="-3" y="45"/>
      <point x="-3" y="190" type="curve" smooth="yes"/>
      <point x="-3" y="322"/>
      <point x="88" y="425"/>
      <point x="240" y="425" type="curve" smooth="yes"/>
      <point x="314" y="425"/>
      <point x="397" y="375"/>
      <point x="416" y="310" type="curve"/>
      <point x="352" y="310" type="line"/>
      <point x="370" y="374"/>
      <point x="453" y="425"/>
      <point x="533" y="425" type="curve" smooth="yes"/>
      <point x="684" y="425"/>
      <point x="771" y="322"/>
      <point x="771" y="190" type="curve" smooth="yes"/>
      <point x="771" y="41"/>
      <point x="664" y="-44"/>
      <point x="538" y="-44" type="curve" smooth="yes"/>
      <point x="453" y="-44"/>
      <point x="390" y="-7"/>
    </contour>
    <contour>
      <point x="195" y="188" type="curve" smooth="yes"/>
      <point x="195" y="160"/>
      <point x="210" y="134"/>
      <point x="243" y="134" type="curve" smooth="yes"/>
      <point x="273" y="134"/>
      <point x="288" y="159"/>
      <point x="288" y="191" type="curve" smooth="yes"/>
      <point x="288" y="222"/>
      <point x="272" y="248"/>
      <point x="240" y="248" type="curve" smooth="yes"/>
      <point x="208" y="248"/>
      <point x="195" y="217"/>
    </contour>
    <contour>
      <point x="480" y="191" type="curve" smooth="yes"/>
      <point x="480" y="158"/>
      <point x="497" y="134"/>
      <point x="531" y="134" type="curve" smooth="yes"/>
      <point x="560" y="134"/>
      <point x="573" y="162"/>
      <point x="573" y="188" type="curve" smooth="yes"/>
      <point x="573" y="217"/>
      <point x="560" y="248"/>
      <point x="528" y="248" type="curve" smooth="yes"/>
      <point x="498" y="248"/>
      <point x="480" y="222"/>
    </contour>
    <contour>
      <point x="637" y="641" type="curve" smooth="yes"/>
      <point x="637" y="496"/>
      <point x="539" y="388"/>
      <point x="372" y="388" type="curve" smooth="yes"/>
      <point x="302" y="388"/>
      <point x="247" y="403"/>
      <point x="204" y="427" type="curve" smooth="yes"/>
      <point x="195" y="432"/>
      <point x="187" y="445"/>
      <point x="187" y="456" type="curve" smooth="yes"/>
      <point x="187" y="564" type="line" smooth="yes"/>
      <point x="187" y="594"/>
      <point x="209" y="607"/>
      <point x="235" y="593" type="curve" smooth="yes"/>
      <point x="274" y="574"/>
      <point x="322" y="559"/>
      <point x="373" y="559" type="curve" smooth="yes"/>
      <point x="420" y="559"/>
      <point x="451" y="588"/>
      <point x="451" y="642" type="curve" smooth="yes"/>
      <point x="451" y="669"/>
      <point x="445" y="711"/>
      <point x="413" y="711" type="curve" smooth="yes"/>
      <point x="407" y="711"/>
      <point x="397" y="711"/>
      <point x="397" y="703" type="curve" smooth="yes"/>
      <point x="397" y="698"/>
      <point x="404" y="700"/>
      <point x="406" y="700" type="curve" smooth="yes"/>
      <point x="414" y="700"/>
      <point x="420" y="701"/>
      <point x="429" y="703" type="curve" smooth="yes"/>
      <point x="452" y="709"/>
      <point x="470" y="694"/>
      <point x="470" y="671" type="curve" smooth="yes"/>
      <point x="470" y="592" type="line" smooth="yes"/>
      <point x="470" y="579"/>
      <point x="460" y="565"/>
      <point x="448" y="561" type="curve" smooth="yes"/>
      <point x="424" y="553"/>
      <point x="404" y="549"/>
      <point x="380" y="549" type="curve" smooth="yes"/>
      <point x="275" y="549"/>
      <point x="212" y="608"/>
      <point x="212" y="705" type="curve" smooth="yes"/>
      <point x="212" y="796"/>
      <point x="285" y="879"/>
      <point x="407" y="879" type="curve" smooth="yes"/>
      <point x="557" y="879"/>
      <point x="637" y="766"/>
    </contour>
    <contour>
      <point x="412" y="85" type="curve" smooth="yes"/>
      <point x="436" y="45"/>
      <point x="481" y="22"/>
      <point x="538" y="22" type="curve" smooth="yes"/>
      <point x="628" y="22"/>
      <point x="705" y="83"/>
      <point x="705" y="190" type="curve" smooth="yes"/>
      <point x="705" y="286"/>
      <point x="642" y="359"/>
      <point x="533" y="359" type="curve" smooth="yes"/>
      <point x="485" y="359"/>
      <point x="428" y="334"/>
      <point x="416" y="292" type="curve" smooth="yes"/>
      <point x="403" y="247"/>
      <point x="365" y="247"/>
      <point x="352" y="292" type="curve" smooth="yes"/>
      <point x="341" y="333"/>
      <point x="284" y="359"/>
      <point x="240" y="359" type="curve" smooth="yes"/>
      <point x="130" y="359"/>
      <point x="63" y="286"/>
      <point x="63" y="190" type="curve"/>
      <point x="63" y="87"/>
      <point x="131" y="22"/>
      <point x="226" y="22" type="curve" smooth="yes"/>
      <point x="282" y="22"/>
      <point x="332" y="44"/>
      <point x="355" y="84" type="curve" smooth="yes"/>
      <point x="371" y="112"/>
      <point x="396" y="112"/>
    </contour>
    <contour>
      <point x="129" y="188" type="curve" smooth="yes"/>
      <point x="129" y="261"/>
      <point x="172" y="314"/>
      <point x="240" y="314" type="curve" smooth="yes"/>
      <point x="310" y="314"/>
      <point x="354" y="266"/>
      <point x="354" y="191" type="curve" smooth="yes"/>
      <point x="354" y="113"/>
      <point x="307" y="68"/>
      <point x="243" y="68" type="curve" smooth="yes"/>
      <point x="170" y="68"/>
      <point x="129" y="120"/>
    </contour>
    <contour>
      <point x="414" y="191" type="curve" smooth="yes"/>
      <point x="414" y="266"/>
      <point x="462" y="314"/>
      <point x="528" y="314" type="curve" smooth="yes"/>
      <point x="596" y="314"/>
      <point x="639" y="259"/>
      <point x="639" y="188" type="curve" smooth="yes"/>
      <point x="639" y="122"/>
      <point x="596" y="68"/>
      <point x="531" y="68" type="curve" smooth="yes"/>
      <point x="459" y="68"/>
      <point x="414" y="114"/>
    </contour>
    <contour>
      <point x="571" y="641" type="curve" smooth="yes"/>
      <point x="571" y="730"/>
      <point x="515" y="813"/>
      <point x="407" y="813" type="curve" smooth="yes"/>
      <point x="331" y="813"/>
      <point x="278" y="766"/>
      <point x="278" y="705" type="curve" smooth="yes"/>
      <point x="278" y="646"/>
      <point x="319" y="615"/>
      <point x="380" y="615" type="curve" smooth="yes"/>
      <point x="396" y="615"/>
      <point x="410" y="617"/>
      <point x="426" y="623" type="curve"/>
      <point x="404" y="592" type="line"/>
      <point x="404" y="671" type="line"/>
      <point x="445" y="639" type="line"/>
      <point x="430" y="635"/>
      <point x="420" y="634"/>
      <point x="406" y="634" type="curve" smooth="yes"/>
      <point x="354" y="634"/>
      <point x="331" y="662"/>
      <point x="331" y="703" type="curve" smooth="yes"/>
      <point x="331" y="741"/>
      <point x="357" y="777"/>
      <point x="413" y="777" type="curve" smooth="yes"/>
      <point x="477" y="777"/>
      <point x="517" y="715"/>
      <point x="517" y="642" type="curve" smooth="yes"/>
      <point x="517" y="542"/>
      <point x="458" y="493"/>
      <point x="373" y="493" type="curve" smooth="yes"/>
      <point x="312" y="493"/>
      <point x="252" y="510"/>
      <point x="205" y="535" type="curve"/>
      <point x="253" y="564" type="line"/>
      <point x="253" y="456" type="line"/>
      <point x="236" y="485" type="line"/>
      <point x="271" y="465"/>
      <point x="316" y="454"/>
      <point x="372" y="454" type="curve" smooth="yes"/>
      <point x="495" y="454"/>
      <point x="571" y="532"/>
    </contour>
  </outline>
</glyph>
<glyph name="knJAc2" format="1">
  <advance width="0"/>
  <outline>
    <contour>
      <point x="-215" y="-278" type="line" smooth="yes"/>
      <point x="-194" y="-278"/>
      <point x="-179" y="-295"/>
      <point x="-182" y="-316" type="curve" smooth="yes"/>
      <point x="-192" y="-373"/>
      <point x="-240" y="-413"/>
      <point x="-316" y="-413" type="curve" smooth="yes"/>
      <point x="-405" y="-413"/>
      <point x="-457" y="-362"/>
      <point x="-457" y="-290" type="curve" smooth="yes"/>
      <point x="-457" y="-206"/>
      <point x="-334" y="-186"/>
      <point x="-334" y="-144" type="curve"/>
      <point x="-334" y="-158"/>
      <point x="-323" y="-157"/>
      <point x="-316" y="-157" type="curve" smooth="yes"/>
      <point x="-310" y="-157"/>
      <point x="-300" y="-157"/>
      <point x="-300" y="-145" type="curve"/>
      <point x="-300" y="-149"/>
      <point x="-299" y="-152"/>
      <point x="-297" y="-155" type="curve" smooth="yes"/>
      <point x="-288" y="-180"/>
      <point x="-302" y="-200"/>
      <point x="-328" y="-200" type="curve" smooth="yes"/>
      <point x="-404" y="-200" type="line" smooth="yes"/>
      <point x="-416" y="-200"/>
      <point x="-429" y="-191"/>
      <point x="-434" y="-180" type="curve" smooth="yes"/>
      <point x="-440" y="-168"/>
      <point x="-443" y="-154"/>
      <point x="-443" y="-135" type="curve" smooth="yes"/>
      <point x="-443" y="-70"/>
      <point x="-395" y="-22"/>
      <point x="-316" y="-22" type="curve" smooth="yes"/>
      <point x="-241" y="-22"/>
      <point x="-224" y="-97"/>
      <point x="-164" y="-97" type="curve"/>
      <point x="-164" y="-97"/>
      <point x="-164" y="-97"/>
      <point x="-164" y="-97" type="curve"/>
      <point x="-164" y="-91"/>
      <point x="-166" y="-85"/>
      <point x="-170" y="-79" type="curve" smooth="yes"/>
      <point x="-185" y="-51"/>
      <point x="-173" y="-29"/>
      <point x="-141" y="-29" type="curve" smooth="yes"/>
      <point x="-66" y="-29" type="line" smooth="yes"/>
      <point x="-54" y="-29"/>
      <point x="-41" y="-38"/>
      <point x="-36" y="-48" type="curve" smooth="yes"/>
      <point x="-27" y="-67"/>
      <point x="-21" y="-91"/>
      <point x="-21" y="-114" type="curve" smooth="yes"/>
      <point x="-21" y="-180"/>
      <point x="-72" y="-230"/>
      <point x="-150" y="-230" type="curve" smooth="yes"/>
      <point x="-210" y="-230"/>
      <point x="-259" y="-201"/>
      <point x="-278" y="-163" type="curve" smooth="yes"/>
      <point x="-295" y="-132"/>
      <point x="-279" y="-110"/>
      <point x="-244" y="-115" type="curve" smooth="yes"/>
      <point x="-223" y="-118" type="line" smooth="yes"/>
      <point x="-208" y="-120"/>
      <point x="-196" y="-134"/>
      <point x="-195" y="-149" type="curve" smooth="yes"/>
      <point x="-192" y="-214"/>
      <point x="-309" y="-245"/>
      <point x="-309" y="-289" type="curve"/>
      <point x="-309" y="-288"/>
      <point x="-302" y="-279"/>
      <point x="-311" y="-279" type="curve"/>
      <point x="-299" y="-279"/>
      <point x="-292" y="-272"/>
      <point x="-292" y="-260" type="curve" smooth="yes"/>
      <point x="-292" y="-246" type="line" smooth="yes"/>
      <point x="-292" y="-228"/>
      <point x="-277" y="-213"/>
      <point x="-259" y="-213" type="curve" smooth="yes"/>
      <point x="-177" y="-213" type="line" smooth="yes"/>
      <point x="-159" y="-213"/>
      <point x="-144" y="-228"/>
      <point x="-144" y="-246" type="curve" smooth="yes"/>
      <point x="-144" y="-260" type="line" smooth="yes"/>
      <point x="-144" y="-264"/>
      <point x="-149" y="-279"/>
      <point x="-140" y="-279" type="curve" smooth="yes"/>
      <point x="-137" y="-279"/>
      <point x="-143" y="-270"/>
      <point x="-143" y="-273" type="curve"/>
      <point x="-143" y="-264"/>
      <point x="-147" y="-253"/>
      <point x="-153" y="-242" type="curve" smooth="yes"/>
      <point x="-170" y="-214"/>
      <point x="-157" y="-192"/>
      <point x="-125" y="-192" type="curve" smooth="yes"/>
      <point x="-44" y="-192" type="line" smooth="yes"/>
      <point x="-32" y="-192"/>
      <point x="-19" y="-200"/>
      <point x="-14" y="-211" type="curve" smooth="yes"/>
      <point x="-3" y="-234"/>
      <point x="3" y="-260"/>
      <point x="3" y="-284" type="curve" smooth="yes"/>
      <point x="3" y="-361"/>
      <point x="-49" y="-413"/>
      <point x="-131" y="-413" type="curve" smooth="yes"/>
      <point x="-199" y="-413"/>
      <point x="-247" y="-372"/>
      <point x="-254" y="-315" type="curve" smooth="yes"/>
      <point x="-256" y="-295"/>
      <point x="-242" y="-278"/>
      <point x="-221" y="-278" type="curve" smooth="yes"/>
    </contour>
    <contour>
      <point x="-215" y="-344" type="line"/>
      <point x="-221" y="-344" type="line"/>
      <point x="-188" y="-307" type="line"/>
      <point x="-185" y="-334"/>
      <point x="-159" y="-347"/>
      <point x="-131" y="-347" type="curve" smooth="yes"/>
      <point x="-91" y="-347"/>
      <point x="-63" y="-323"/>
      <point x="-63" y="-284" type="curve" smooth="yes"/>
      <point x="-63" y="-270"/>
      <point x="-67" y="-254"/>
      <point x="-74" y="-239" type="curve"/>
      <point x="-44" y="-258" type="line"/>
      <point x="-125" y="-258" type="line"/>
      <point x="-97" y="-208" type="line"/>
      <point x="-83" y="-231"/>
      <point x="-77" y="-254"/>
      <point x="-77" y="-273" type="curve" smooth="yes"/>
      <point x="-77" y="-328"/>
      <point x="-105" y="-345"/>
      <point x="-140" y="-345" type="curve" smooth="yes"/>
      <point x="-179" y="-345"/>
      <point x="-210" y="-322"/>
      <point x="-210" y="-260" type="curve" smooth="yes"/>
      <point x="-210" y="-246" type="line"/>
      <point x="-177" y="-279" type="line"/>
      <point x="-259" y="-279" type="line"/>
      <point x="-226" y="-246" type="line"/>
      <point x="-226" y="-260" type="line" smooth="yes"/>
      <point x="-226" y="-314"/>
      <point x="-257" y="-345"/>
      <point x="-311" y="-345" type="curve" smooth="yes"/>
      <point x="-360" y="-345"/>
      <point x="-375" y="-320"/>
      <point x="-375" y="-289" type="curve" smooth="yes"/>
      <point x="-375" y="-247"/>
      <point x="-258" y="-216"/>
      <point x="-261" y="-153" type="curve"/>
      <point x="-233" y="-184" type="line"/>
      <point x="-254" y="-181" type="line"/>
      <point x="-220" y="-133" type="line"/>
      <point x="-209" y="-153"/>
      <point x="-180" y="-164"/>
      <point x="-150" y="-164" type="curve" smooth="yes"/>
      <point x="-116" y="-164"/>
      <point x="-87" y="-146"/>
      <point x="-87" y="-114" type="curve" smooth="yes"/>
      <point x="-87" y="-101"/>
      <point x="-91" y="-87"/>
      <point x="-96" y="-76" type="curve"/>
      <point x="-66" y="-95" type="line"/>
      <point x="-141" y="-95" type="line"/>
      <point x="-112" y="-45" type="line"/>
      <point x="-102" y="-63"/>
      <point x="-98" y="-81"/>
      <point x="-98" y="-97" type="curve" smooth="yes"/>
      <point x="-98" y="-139"/>
      <point x="-122" y="-163"/>
      <point x="-164" y="-163" type="curve" smooth="yes"/>
      <point x="-224" y="-163"/>
      <point x="-241" y="-88"/>
      <point x="-316" y="-88" type="curve" smooth="yes"/>
      <point x="-349" y="-88"/>
      <point x="-377" y="-104"/>
      <point x="-377" y="-135" type="curve" smooth="yes"/>
      <point x="-377" y="-143"/>
      <point x="-376" y="-148"/>
      <point x="-374" y="-154" type="curve"/>
      <point x="-404" y="-134" type="line"/>
      <point x="-328" y="-134" type="line"/>
      <point x="-359" y="-179" type="line"/>
      <point x="-363" y="-166"/>
      <point x="-366" y="-157"/>
      <point x="-366" y="-145" type="curve" smooth="yes"/>
      <point x="-366" y="-107"/>
      <point x="-344" y="-91"/>
      <point x="-316" y="-91" type="curve" smooth="yes"/>
      <point x="-290" y="-91"/>
      <point x="-268" y="-106"/>
      <point x="-268" y="-144" type="curve" smooth="yes"/>
      <point x="-268" y="-186"/>
      <point x="-391" y="-206"/>
      <point x="-391" y="-290" type="curve" smooth="yes"/>
      <point x="-391" y="-328"/>
      <point x="-357" y="-347"/>
      <point x="-316" y="-347" type="curve" smooth="yes"/>
      <point x="-282" y="-347"/>
      <point x="-252" y="-335"/>
      <point x="-248" y="-306" type="curve"/>
    </contour>
  </outline>
</glyph>
<glyph name="knJHE" format="1">
  <advance width="1192"/>
  <outline>
    <contour>
      <point x="76" y="225" type="curve" smooth="yes"/>
      <point x="76" y="346"/>
      <point x="181" y="460"/>
      <point x="322" y="460" type="curve" smooth="yes"/>
      <point x="464" y="460"/>
      <point x="563" y="344"/>
      <point x="563" y="225" type="curve" smooth="yes"/>
      <point x="563" y="93"/>
      <point x="469" y="-10"/>
      <point x="320" y="-10" type="curve" smooth="yes"/>
      <point x="172" y="-10"/>
      <point x="76" y="91"/>
    </contour>
    <contour>
      <point x="864" y="-89" type="curve" smooth="yes"/>
      <point x="864" y="-192" type="line" smooth="yes"/>
      <point x="864" y="-210"/>
      <point x="849" y="-225"/>
      <point x="831" y="-225" type="curve" smooth="yes"/>
      <point x="813" y="-225"/>
      <point x="798" y="-210"/>
      <point x="798" y="-192" type="curve" smooth="yes"/>
      <point x="798" y="-89" type="line" smooth="yes"/>
      <point x="798" y="-71"/>
      <point x="813" y="-56"/>
      <point x="831" y="-56" type="curve" smooth="yes"/>
      <point x="849" y="-56"/>
      <point x="864" y="-71"/>
    </contour>
    <contour>
      <point x="88" y="470" type="curve" smooth="yes"/>
      <point x="441" y="470" type="line" smooth="yes"/>
      <point x="459" y="470"/>
      <point x="474" y="455"/>
      <point x="474" y="437" type="curve" smooth="yes"/>
      <point x="474" y="419"/>
      <point x="459" y="404"/>
      <point x="441" y="404" type="curve" smooth="yes"/>
      <point x="88" y="404" type="line" smooth="yes"/>
      <point x="70" y="404"/>
      <point x="55" y="419"/>
      <point x="55" y="437" type="curve" smooth="yes"/>
      <point x="55" y="455"/>
      <point x="70" y="470"/>
    </contour>
    <contour>
      <point x="142" y="225" type="curve" smooth="yes"/>
      <point x="142" y="127"/>
      <point x="214" y="56"/>
      <point x="320" y="56" type="curve" smooth="yes"/>
      <point x="427" y="56"/>
      <point x="497" y="129"/>
      <point x="497" y="225" type="curve" smooth="yes"/>
      <point x="497" y="312"/>
      <point x="424" y="394"/>
      <point x="322" y="394" type="curve" smooth="yes"/>
      <point x="221" y="394"/>
      <point x="142" y="314"/>
    </contour>
    <contour>
      <point x="556" y="175" type="curve" smooth="yes"/>
      <point x="599" y="95"/>
      <point x="645" y="60"/>
      <point x="701" y="60" type="curve" smooth="yes"/>
      <point x="755" y="60"/>
      <point x="783" y="106"/>
      <point x="783" y="167" type="curve" smooth="yes"/>
      <point x="783" y="249"/>
      <point x="746" y="333"/>
      <point x="684" y="392" type="curve" smooth="yes"/>
      <point x="671" y="404"/>
      <point x="671" y="426"/>
      <point x="683" y="439" type="curve" smooth="yes"/>
      <point x="695" y="452"/>
      <point x="717" y="452"/>
      <point x="730" y="440" type="curve" smooth="yes"/>
      <point x="804" y="369"/>
      <point x="849" y="267"/>
      <point x="849" y="167" type="curve" smooth="yes"/>
      <point x="849" y="56"/>
      <point x="789" y="-6"/>
      <point x="701" y="-6" type="curve" smooth="yes"/>
      <point x="625" y="-6"/>
      <point x="557" y="31"/>
      <point x="498" y="145" type="curve" smooth="yes"/>
      <point x="489" y="160"/>
      <point x="496" y="181"/>
      <point x="512" y="189" type="curve" smooth="yes"/>
      <point x="527" y="198"/>
      <point x="548" y="191"/>
    </contour>
    <contour>
      <point x="846" y="175" type="curve" smooth="yes"/>
      <point x="889" y="95"/>
      <point x="935" y="60"/>
      <point x="991" y="60" type="curve" smooth="yes"/>
      <point x="1045" y="60"/>
      <point x="1073" y="106"/>
      <point x="1073" y="167" type="curve" smooth="yes"/>
      <point x="1073" y="249"/>
      <point x="1036" y="333"/>
      <point x="974" y="392" type="curve" smooth="yes"/>
      <point x="961" y="404"/>
      <point x="961" y="426"/>
      <point x="973" y="439" type="curve" smooth="yes"/>
      <point x="985" y="452"/>
      <point x="1007" y="452"/>
      <point x="1020" y="440" type="curve" smooth="yes"/>
      <point x="1094" y="369"/>
      <point x="1139" y="267"/>
      <point x="1139" y="167" type="curve" smooth="yes"/>
      <point x="1139" y="56"/>
      <point x="1079" y="-6"/>
      <point x="991" y="-6" type="curve" smooth="yes"/>
      <point x="915" y="-6"/>
      <point x="847" y="31"/>
      <point x="788" y="145" type="curve" smooth="yes"/>
      <point x="779" y="160"/>
      <point x="786" y="181"/>
      <point x="802" y="189" type="curve" smooth="yes"/>
      <point x="817" y="198"/>
      <point x="838" y="191"/>
    </contour>
    <component base="knmE" xOffset="648"/>
    <component base="knmE" xOffset="648"/>
  </outline>
</glyph>
<glyph name="knKHI" format="1">
  <advance width="959"/>
  <outline>
    <contour>
      <point x="630" y="331" type="curve" smooth="yes"/>
      <point x="630" y="146"/>
      <point x="488" y="-43"/>
      <point x="240" y="-43" type="curve" smooth="yes"/>
      <point x="73" y="-43"/>
      <point x="-13" y="44"/>
      <point x="-13" y="153" type="curve" smooth="yes"/>
      <point x="-13" y="263"/>
      <point x="65" y="341"/>
      <point x="185" y="341" type="curve" smooth="yes"/>
      <point x="376" y="341"/>
      <point x="464" y="150"/>
      <point x="618" y="150" type="curve" smooth="yes"/>
      <point x="715" y="150"/>
      <point x="752" y="271"/>
      <point x="752" y="423" type="curve" smooth="yes"/>
      <point x="752" y="556"/>
      <point x="704" y="751"/>
      <point x="619" y="751" type="curve" smooth="yes"/>
      <point x="614" y="751"/>
      <point x="603" y="752"/>
      <point x="603" y="744" type="curve" smooth="yes"/>
      <point x="603" y="735"/>
      <point x="613" y="737"/>
      <point x="618" y="737" type="curve" smooth="yes"/>
      <point x="630" y="737"/>
      <point x="642" y="740"/>
      <point x="654" y="746" type="curve" smooth="yes"/>
      <point x="680" y="758"/>
      <point x="701" y="745"/>
      <point x="701" y="716" type="curve" smooth="yes"/>
      <point x="701" y="628" type="line" smooth="yes"/>
      <point x="701" y="616"/>
      <point x="692" y="602"/>
      <point x="681" y="598" type="curve" smooth="yes"/>
      <point x="650" y="585"/>
      <point x="621" y="581"/>
      <point x="592" y="581" type="curve" smooth="yes"/>
      <point x="494" y="581"/>
      <point x="418" y="640"/>
      <point x="418" y="745" type="curve" smooth="yes"/>
      <point x="418" y="836"/>
      <point x="491" y="919"/>
      <point x="613" y="919" type="curve" smooth="yes"/>
      <point x="839" y="919"/>
      <point x="952" y="656"/>
      <point x="952" y="399" type="curve" smooth="yes"/>
      <point x="952" y="121"/>
      <point x="825" y="-42"/>
      <point x="626" y="-42" type="curve" smooth="yes"/>
      <point x="437" y="-42"/>
      <point x="325" y="159"/>
      <point x="202" y="159" type="curve" smooth="yes"/>
      <point x="196" y="159"/>
      <point x="185" y="159"/>
      <point x="185" y="151" type="curve" smooth="yes"/>
      <point x="185" y="128"/>
      <point x="226" y="135"/>
      <point x="242" y="135" type="curve" smooth="yes"/>
      <point x="372" y="135"/>
      <point x="434" y="226"/>
      <point x="434" y="339" type="curve" smooth="yes"/>
      <point x="434" y="387"/>
      <point x="420" y="441"/>
      <point x="373" y="441" type="curve"/>
      <point x="373" y="441"/>
      <point x="357" y="448"/>
      <point x="357" y="441" type="curve" smooth="yes"/>
      <point x="357" y="436"/>
      <point x="373" y="446"/>
      <point x="368" y="446" type="curve"/>
      <point x="382" y="446"/>
      <point x="393" y="450"/>
      <point x="404" y="458" type="curve" smooth="yes"/>
      <point x="433" y="478"/>
      <point x="456" y="466"/>
      <point x="456" y="431" type="curve" smooth="yes"/>
      <point x="456" y="335" type="line" smooth="yes"/>
      <point x="456" y="325"/>
      <point x="449" y="312"/>
      <point x="440" y="306" type="curve" smooth="yes"/>
      <point x="411" y="290"/>
      <point x="377" y="283"/>
      <point x="340" y="283" type="curve" smooth="yes"/>
      <point x="249" y="283"/>
      <point x="167" y="341"/>
      <point x="167" y="442" type="curve" smooth="yes"/>
      <point x="167" y="535"/>
      <point x="238" y="619"/>
      <point x="373" y="619" type="curve" smooth="yes"/>
      <point x="520" y="619"/>
      <point x="630" y="500"/>
    </contour>
    <contour>
      <point x="564" y="331" type="curve" smooth="yes"/>
      <point x="564" y="456"/>
      <point x="486" y="553"/>
      <point x="373" y="553" type="curve" smooth="yes"/>
      <point x="288" y="553"/>
      <point x="233" y="505"/>
      <point x="233" y="442" type="curve" smooth="yes"/>
      <point x="233" y="379"/>
      <point x="287" y="349"/>
      <point x="340" y="349" type="curve" smooth="yes"/>
      <point x="365" y="349"/>
      <point x="387" y="352"/>
      <point x="406" y="364" type="curve"/>
      <point x="390" y="335" type="line"/>
      <point x="390" y="431" type="line"/>
      <point x="442" y="404" type="line"/>
      <point x="419" y="388"/>
      <point x="396" y="380"/>
      <point x="368" y="380" type="curve" smooth="yes"/>
      <point x="311" y="380"/>
      <point x="291" y="406"/>
      <point x="291" y="441" type="curve" smooth="yes"/>
      <point x="291" y="476"/>
      <point x="307" y="507"/>
      <point x="373" y="507" type="curve" smooth="yes"/>
      <point x="450" y="507"/>
      <point x="500" y="439"/>
      <point x="500" y="339" type="curve" smooth="yes"/>
      <point x="500" y="188"/>
      <point x="414" y="69"/>
      <point x="242" y="69" type="curve" smooth="yes"/>
      <point x="160" y="69"/>
      <point x="119" y="102"/>
      <point x="119" y="151" type="curve" smooth="yes"/>
      <point x="119" y="189"/>
      <point x="144" y="225"/>
      <point x="202" y="225" type="curve" smooth="yes"/>
      <point x="325" y="225"/>
      <point x="437" y="24"/>
      <point x="626" y="24" type="curve" smooth="yes"/>
      <point x="795" y="24"/>
      <point x="886" y="177"/>
      <point x="886" y="399" type="curve" smooth="yes"/>
      <point x="886" y="606"/>
      <point x="811" y="853"/>
      <point x="613" y="853" type="curve" smooth="yes"/>
      <point x="537" y="853"/>
      <point x="484" y="806"/>
      <point x="484" y="745" type="curve" smooth="yes"/>
      <point x="484" y="680"/>
      <point x="534" y="647"/>
      <point x="592" y="647" type="curve" smooth="yes"/>
      <point x="613" y="647"/>
      <point x="634" y="649"/>
      <point x="655" y="658" type="curve"/>
      <point x="635" y="628" type="line"/>
      <point x="635" y="716" type="line"/>
      <point x="682" y="686" type="line"/>
      <point x="660" y="676"/>
      <point x="640" y="671"/>
      <point x="618" y="671" type="curve" smooth="yes"/>
      <point x="571" y="671"/>
      <point x="537" y="697"/>
      <point x="537" y="744" type="curve" smooth="yes"/>
      <point x="537" y="782"/>
      <point x="564" y="817"/>
      <point x="619" y="817" type="curve" smooth="yes"/>
      <point x="722" y="817"/>
      <point x="818" y="622"/>
      <point x="818" y="423" type="curve" smooth="yes"/>
      <point x="818" y="195"/>
      <point x="739" y="84"/>
      <point x="618" y="84" type="curve" smooth="yes"/>
      <point x="464" y="84"/>
      <point x="376" y="275"/>
      <point x="185" y="275" type="curve" smooth="yes"/>
      <point x="107" y="275"/>
      <point x="53" y="227"/>
      <point x="53" y="153" type="curve"/>
      <point x="53" y="72"/>
      <point x="129" y="23"/>
      <point x="240" y="23" type="curve" smooth="yes"/>
      <point x="444" y="23"/>
      <point x="564" y="178"/>
    </contour>
  </outline>
</glyph>
<glyph name="knKI" format="1">
  <advance width="649"/>
  <outline>
    <contour>
      <point x="382" y="431" type="curve" smooth="yes"/>
      <point x="30" y="431" type="line" smooth="yes"/>
      <point x="12" y="431"/>
      <point x="-3" y="446"/>
      <point x="-3" y="464" type="curve"/>
      <point x="-3" y="576" type="line"/>
      <point x="-3" y="594"/>
      <point x="12" y="609"/>
      <point x="30" y="609" type="curve" smooth="yes"/>
      <point x="363" y="609" type="line" smooth="yes"/>
      <point x="422" y="609"/>
      <point x="466" y="616"/>
      <point x="466" y="681" type="curve" smooth="yes"/>
      <point x="466" y="708"/>
      <point x="456" y="741"/>
      <point x="426" y="741" type="curve" smooth="yes"/>
      <point x="423" y="741"/>
      <point x="412" y="744"/>
      <point x="412" y="737" type="curve" smooth="yes"/>
      <point x="412" y="732"/>
      <point x="419" y="735"/>
      <point x="421" y="735" type="curve" smooth="yes"/>
      <point x="429" y="735"/>
      <point x="438" y="737"/>
      <point x="447" y="740" type="curve" smooth="yes"/>
      <point x="471" y="747"/>
      <point x="490" y="733"/>
      <point x="490" y="708" type="curve" smooth="yes"/>
      <point x="490" y="629" type="line" smooth="yes"/>
      <point x="490" y="617"/>
      <point x="481" y="604"/>
      <point x="470" y="599" type="curve" smooth="yes"/>
      <point x="449" y="589"/>
      <point x="419" y="584"/>
      <point x="395" y="584" type="curve" smooth="yes"/>
      <point x="290" y="584"/>
      <point x="227" y="643"/>
      <point x="227" y="740" type="curve" smooth="yes"/>
      <point x="227" y="830"/>
      <point x="296" y="909"/>
      <point x="422" y="909" type="curve" smooth="yes"/>
      <point x="572" y="909"/>
      <point x="652" y="795"/>
      <point x="652" y="676" type="curve" smooth="yes"/>
      <point x="652" y="537"/>
      <point x="570" y="431"/>
    </contour>
    <contour>
      <point x="622" y="177" type="curve" smooth="yes"/>
      <point x="622" y="64"/>
      <point x="519" y="-43"/>
      <point x="317" y="-43" type="curve" smooth="yes"/>
      <point x="120" y="-43"/>
      <point x="12" y="32"/>
      <point x="12" y="169" type="curve" smooth="yes"/>
      <point x="12" y="290"/>
      <point x="131" y="369"/>
      <point x="317" y="369" type="curve" smooth="yes"/>
      <point x="491" y="369"/>
      <point x="622" y="299"/>
    </contour>
    <contour>
      <point x="220" y="196" type="curve" smooth="yes"/>
      <point x="220" y="150"/>
      <point x="263" y="138"/>
      <point x="317" y="138" type="curve" smooth="yes"/>
      <point x="370" y="138"/>
      <point x="414" y="157"/>
      <point x="414" y="199" type="curve" smooth="yes"/>
      <point x="414" y="242"/>
      <point x="372" y="261"/>
      <point x="317" y="261" type="curve" smooth="yes"/>
      <point x="263" y="261"/>
      <point x="220" y="242"/>
    </contour>
    <contour>
      <point x="201" y="242" type="line" smooth="yes"/>
      <point x="198" y="242"/>
      <point x="194" y="241"/>
      <point x="191" y="241" type="curve" smooth="yes"/>
      <point x="30" y="241" type="line" smooth="yes"/>
      <point x="12" y="241"/>
      <point x="-3" y="256"/>
      <point x="-3" y="274" type="curve"/>
      <point x="-3" y="386" type="line"/>
      <point x="-3" y="404"/>
      <point x="12" y="419"/>
      <point x="30" y="419" type="curve" smooth="yes"/>
      <point x="604" y="419" type="line" smooth="yes"/>
      <point x="622" y="419"/>
      <point x="637" y="404"/>
      <point x="637" y="386" type="curve" smooth="yes"/>
      <point x="637" y="274" type="line" smooth="yes"/>
      <point x="637" y="256"/>
      <point x="622" y="241"/>
      <point x="604" y="241" type="curve" smooth="yes"/>
      <point x="453" y="241" type="line" smooth="yes"/>
      <point x="451" y="241"/>
      <point x="447" y="242"/>
      <point x="444" y="242" type="curve" smooth="yes"/>
      <point x="305" y="280" type="line"/>
      <point x="324" y="280" type="line"/>
    </contour>
    <contour>
      <point x="419" y="359" type="line" smooth="yes"/>
      <point x="419" y="341"/>
      <point x="404" y="326"/>
      <point x="386" y="326" type="curve" smooth="yes"/>
      <point x="244" y="326" type="line" smooth="yes"/>
      <point x="226" y="326"/>
      <point x="211" y="341"/>
      <point x="211" y="359" type="curve" smooth="yes"/>
      <point x="211" y="477" type="line" smooth="yes"/>
      <point x="211" y="495"/>
      <point x="226" y="510"/>
      <point x="244" y="510" type="curve" smooth="yes"/>
      <point x="386" y="510" type="line" smooth="yes"/>
      <point x="404" y="510"/>
      <point x="419" y="495"/>
      <point x="419" y="477" type="curve" smooth="yes"/>
    </contour>
    <contour>
      <point x="382" y="497" type="line" smooth="yes"/>
      <point x="520" y="497"/>
      <point x="586" y="571"/>
      <point x="586" y="676" type="curve" smooth="yes"/>
      <point x="586" y="761"/>
      <point x="530" y="843"/>
      <point x="422" y="843" type="curve" smooth="yes"/>
      <point x="346" y="843"/>
      <point x="293" y="800"/>
      <point x="293" y="740" type="curve" smooth="yes"/>
      <point x="293" y="681"/>
      <point x="334" y="650"/>
      <point x="395" y="650" type="curve" smooth="yes"/>
      <point x="411" y="650"/>
      <point x="429" y="653"/>
      <point x="444" y="659" type="curve"/>
      <point x="424" y="629" type="line"/>
      <point x="424" y="708" type="line"/>
      <point x="467" y="676" type="line"/>
      <point x="450" y="671"/>
      <point x="435" y="669"/>
      <point x="421" y="669" type="curve" smooth="yes"/>
      <point x="369" y="669"/>
      <point x="346" y="698"/>
      <point x="346" y="737" type="curve" smooth="yes"/>
      <point x="346" y="774"/>
      <point x="375" y="807"/>
      <point x="426" y="807" type="curve" smooth="yes"/>
      <point x="490" y="807"/>
      <point x="532" y="752"/>
      <point x="532" y="681" type="curve" smooth="yes"/>
      <point x="532" y="574"/>
      <point x="476" y="543"/>
      <point x="363" y="543" type="curve" smooth="yes"/>
      <point x="30" y="543" type="line"/>
      <point x="63" y="576" type="line"/>
      <point x="63" y="464" type="line"/>
      <point x="30" y="497" type="line"/>
    </contour>
    <contour>
      <point x="556" y="177" type="curve" smooth="yes"/>
      <point x="556" y="273"/>
      <point x="431" y="303"/>
      <point x="317" y="303" type="curve" smooth="yes"/>
      <point x="193" y="303"/>
      <point x="78" y="264"/>
      <point x="78" y="169" type="curve" smooth="yes"/>
      <point x="78" y="62"/>
      <point x="182" y="23"/>
      <point x="317" y="23" type="curve" smooth="yes"/>
      <point x="459" y="23"/>
      <point x="556" y="88"/>
    </contour>
    <contour>
      <point x="154" y="196" type="curve" smooth="yes"/>
      <point x="154" y="272"/>
      <point x="207" y="327"/>
      <point x="317" y="327" type="curve" smooth="yes"/>
      <point x="432" y="327"/>
      <point x="480" y="270"/>
      <point x="480" y="199" type="curve" smooth="yes"/>
      <point x="480" y="129"/>
      <point x="428" y="72"/>
      <point x="317" y="72" type="curve" smooth="yes"/>
      <point x="203" y="72"/>
      <point x="154" y="118"/>
    </contour>
    <contour>
      <point x="181" y="306" type="line"/>
      <point x="304" y="344" type="line" smooth="yes"/>
      <point x="309" y="345"/>
      <point x="318" y="345"/>
      <point x="323" y="344" type="curve" smooth="yes"/>
      <point x="462" y="306" type="line"/>
      <point x="453" y="307" type="line"/>
      <point x="604" y="307" type="line"/>
      <point x="571" y="274" type="line"/>
      <point x="571" y="386" type="line"/>
      <point x="604" y="353" type="line"/>
      <point x="30" y="353" type="line"/>
      <point x="63" y="386" type="line"/>
      <point x="63" y="274" type="line"/>
      <point x="30" y="307" type="line"/>
      <point x="191" y="307" type="line"/>
    </contour>
    <contour>
      <point x="353" y="359" type="line"/>
      <point x="353" y="477" type="line"/>
      <point x="386" y="444" type="line"/>
      <point x="244" y="444" type="line"/>
      <point x="277" y="477" type="line"/>
      <point x="277" y="359" type="line"/>
      <point x="244" y="392" type="line"/>
      <point x="386" y="392" type="line"/>
    </contour>
  </outline>
</glyph>
<glyph name="knLLA.base" format="1">
  <advance width="700"/>
  <outline>
    <contour>
      <point x="358" y="199" type="curve" smooth="yes"/>
      <point x="358" y="199" type="line" smooth="yes"/>
      <point x="476" y="200"/>
      <point x="501" y="140"/>
      <point x="501" y="88" type="curve" smooth="yes"/>
      <point x="501" y="39"/>
      <point x="467" y="-22"/>
      <point x="358" y="-22" type="curve" smooth="yes"/>
      <point x="254" y="-22"/>
      <point x="216" y="38"/>
      <point x="216" y="89" type="curve" smooth="yes"/>
      <point x="216" y="140"/>
      <point x="246" y="198"/>
    </contour>
    <contour>
      <point x="145" y="393" type="curve" smooth="yes"/>
      <point x="145" y="378"/>
      <point x="154" y="361"/>
      <point x="163" y="352" type="curve" smooth="yes"/>
      <point x="174" y="342"/>
      <point x="188" y="336"/>
      <point x="206" y="336" type="curve" smooth="yes"/>
      <point x="232" y="336"/>
      <point x="255" y="354"/>
      <point x="255" y="378" type="curve" smooth="yes"/>
      <point x="255" y="402"/>
      <point x="230" y="419"/>
      <point x="202" y="419" type="curve" smooth="yes"/>
      <point x="161" y="419"/>
      <point x="129" y="381"/>
      <point x="129" y="338" type="curve" smooth="yes"/>
      <point x="129" y="308"/>
      <point x="142" y="279"/>
      <point x="166" y="256" type="curve" smooth="yes"/>
      <point x="197" y="225"/>
      <point x="259" y="201"/>
      <point x="366" y="201" type="curve" smooth="yes"/>
      <point x="464" y="201"/>
      <point x="521" y="220"/>
      <point x="552" y="251" type="curve" smooth="yes"/>
      <point x="568" y="266"/>
      <point x="576" y="287"/>
      <point x="576" y="308" type="curve" smooth="yes"/>
      <point x="576" y="341"/>
      <point x="552" y="387"/>
      <point x="504" y="407" type="curve" smooth="yes"/>
      <point x="488" y="413"/>
      <point x="480" y="433"/>
      <point x="487" y="450" type="curve" smooth="yes"/>
      <point x="493" y="466"/>
      <point x="513" y="474"/>
      <point x="530" y="467" type="curve" smooth="yes"/>
      <point x="606" y="435"/>
      <point x="642" y="361"/>
      <point x="642" y="308" type="curve" smooth="yes"/>
      <point x="642" y="269"/>
      <point x="628" y="232"/>
      <point x="598" y="203" type="curve" smooth="yes"/>
      <point x="559" y="166"/>
      <point x="490" y="135"/>
      <point x="366" y="135" type="curve" smooth="yes"/>
      <point x="233" y="135"/>
      <point x="159" y="171"/>
      <point x="120" y="208" type="curve" smooth="yes"/>
      <point x="82" y="245"/>
      <point x="63" y="290"/>
      <point x="63" y="338" type="curve"/>
      <point x="63" y="419"/>
      <point x="127" y="485"/>
      <point x="202" y="485" type="curve" smooth="yes"/>
      <point x="276" y="485"/>
      <point x="321" y="432"/>
      <point x="321" y="378" type="curve" smooth="yes"/>
      <point x="321" y="322"/>
      <point x="272" y="270"/>
      <point x="206" y="270" type="curve" smooth="yes"/>
      <point x="168" y="270"/>
      <point x="138" y="284"/>
      <point x="117" y="306" type="curve" smooth="yes"/>
      <point x="98" y="325"/>
      <point x="79" y="360"/>
      <point x="79" y="393" type="curve" smooth="yes"/>
      <point x="79" y="411"/>
      <point x="94" y="426"/>
      <point x="112" y="426" type="curve" smooth="yes"/>
      <point x="130" y="426"/>
      <point x="145" y="411"/>
    </contour>
    <contour>
      <point x="434" y="470" type="curve" smooth="yes"/>
      <point x="526" y="470" type="line" smooth="yes"/>
      <point x="544" y="470"/>
      <point x="559" y="455"/>
      <point x="559" y="437" type="curve" smooth="yes"/>
      <point x="559" y="419"/>
      <point x="544" y="404"/>
      <point x="526" y="404" type="curve" smooth="yes"/>
      <point x="434" y="404" type="line" smooth="yes"/>
      <point x="416" y="404"/>
      <point x="401" y="419"/>
      <point x="401" y="437" type="curve" smooth="yes"/>
      <point x="401" y="455"/>
      <point x="416" y="470"/>
    </contour>
    <contour>
      <point x="358" y="133" type="line"/>
      <point x="314" y="132"/>
      <point x="282" y="116"/>
      <point x="282" y="89" type="curve" smooth="yes"/>
      <point x="282" y="62"/>
      <point x="316" y="44"/>
      <point x="358" y="44" type="curve" smooth="yes"/>
      <point x="401" y="44"/>
      <point x="435" y="61"/>
      <point x="435" y="88" type="curve" smooth="yes"/>
      <point x="435" y="116"/>
      <point x="406" y="134"/>
      <point x="358" y="133" type="curve"/>
    </contour>
  </outline>
</glyph>
<glyph name="knLLLI" format="1">
  <advance width="897"/>
  <outline>
    <contour>
      <point x="415" y="108" type="curve"/>
      <point x="479" y="108" type="line"/>
      <point x="464" y="21"/>
      <point x="393" y="-43"/>
      <point x="285" y="-43" type="curve" smooth="yes"/>
      <point x="101" y="-43"/>
      <point x="7" y="103"/>
      <point x="7" y="295" type="curve" smooth="yes"/>
      <point x="7" y="452"/>
      <point x="89" y="619"/>
      <point x="262" y="619" type="curve" smooth="yes"/>
      <point x="405" y="619"/>
      <point x="464" y="511"/>
      <point x="464" y="421" type="curve" smooth="yes"/>
      <point x="464" y="312"/>
      <point x="394" y="229"/>
      <point x="277" y="229" type="curve" smooth="yes"/>
      <point x="188" y="229"/>
      <point x="118" y="280"/>
      <point x="117" y="366" type="curve" smooth="yes"/>
      <point x="117" y="380"/>
      <point x="128" y="395"/>
      <point x="143" y="398" type="curve" smooth="yes"/>
      <point x="178" y="406" type="line" smooth="yes"/>
      <point x="205" y="412"/>
      <point x="222" y="395"/>
      <point x="217" y="368" type="curve" smooth="yes"/>
      <point x="213" y="343"/>
      <point x="210" y="315"/>
      <point x="210" y="275" type="curve" smooth="yes"/>
      <point x="210" y="205"/>
      <point x="228" y="139"/>
      <point x="289" y="139" type="curve" smooth="yes"/>
      <point x="325" y="139"/>
      <point x="343" y="163"/>
      <point x="343" y="200" type="curve" smooth="yes"/>
      <point x="343" y="226" type="line" smooth="yes"/>
      <point x="343" y="244"/>
      <point x="358" y="259"/>
      <point x="376" y="259" type="curve" smooth="yes"/>
      <point x="518" y="259" type="line" smooth="yes"/>
      <point x="536" y="259"/>
      <point x="551" y="244"/>
      <point x="551" y="226" type="curve" smooth="yes"/>
      <point x="551" y="200" type="line" smooth="yes"/>
      <point x="551" y="163"/>
      <point x="569" y="139"/>
      <point x="605" y="139" type="curve" smooth="yes"/>
      <point x="666" y="139"/>
      <point x="684" y="205"/>
      <point x="684" y="275" type="curve" smooth="yes"/>
      <point x="684" y="315"/>
      <point x="681" y="343"/>
      <point x="677" y="368" type="curve" smooth="yes"/>
      <point x="672" y="395"/>
      <point x="689" y="412"/>
      <point x="716" y="406" type="curve" smooth="yes"/>
      <point x="751" y="398" type="line" smooth="yes"/>
      <point x="766" y="395"/>
      <point x="777" y="380"/>
      <point x="777" y="366" type="curve" smooth="yes"/>
      <point x="776" y="280"/>
      <point x="706" y="229"/>
      <point x="617" y="229" type="curve" smooth="yes"/>
      <point x="500" y="229"/>
      <point x="430" y="312"/>
      <point x="430" y="421" type="curve" smooth="yes"/>
      <point x="430" y="511"/>
      <point x="489" y="619"/>
      <point x="632" y="619" type="curve" smooth="yes"/>
      <point x="805" y="619"/>
      <point x="887" y="452"/>
      <point x="887" y="295" type="curve" smooth="yes"/>
      <point x="887" y="103"/>
      <point x="793" y="-43"/>
      <point x="609" y="-43" type="curve" smooth="yes"/>
      <point x="501" y="-43"/>
      <point x="430" y="21"/>
    </contour>
    <contour>
      <point x="226" y="416" type="curve" smooth="yes"/>
      <point x="226" y="402"/>
      <point x="235" y="393"/>
      <point x="249" y="393" type="curve" smooth="yes"/>
      <point x="264" y="393"/>
      <point x="269" y="406"/>
      <point x="269" y="418" type="curve" smooth="yes"/>
      <point x="269" y="431"/>
      <point x="261" y="441"/>
      <point x="246" y="441" type="curve" smooth="yes"/>
      <point x="232" y="441"/>
      <point x="226" y="428"/>
    </contour>
    <contour>
      <point x="625" y="418" type="curve" smooth="yes"/>
      <point x="625" y="406"/>
      <point x="630" y="393"/>
      <point x="645" y="393" type="curve" smooth="yes"/>
      <point x="659" y="393"/>
      <point x="668" y="402"/>
      <point x="668" y="416" type="curve" smooth="yes"/>
      <point x="668" y="428"/>
      <point x="662" y="441"/>
      <point x="648" y="441" type="curve" smooth="yes"/>
      <point x="633" y="441"/>
      <point x="625" y="431"/>
    </contour>
    <contour>
      <point x="736" y="449" type="curve" smooth="yes"/>
      <point x="724" y="444"/>
      <point x="707" y="449"/>
      <point x="698" y="460" type="curve" smooth="yes"/>
      <point x="628" y="549" type="line" smooth="yes"/>
      <point x="609" y="572"/>
      <point x="618" y="596"/>
      <point x="648" y="601" type="curve" smooth="yes"/>
      <point x="684" y="608"/>
      <point x="704" y="637"/>
      <point x="704" y="682" type="curve" smooth="yes"/>
      <point x="704" y="709"/>
      <point x="698" y="751"/>
      <point x="666" y="751" type="curve" smooth="yes"/>
      <point x="660" y="751"/>
      <point x="650" y="751"/>
      <point x="650" y="743" type="curve" smooth="yes"/>
      <point x="650" y="738"/>
      <point x="657" y="740"/>
      <point x="659" y="740" type="curve" smooth="yes"/>
      <point x="667" y="740"/>
      <point x="673" y="741"/>
      <point x="682" y="743" type="curve" smooth="yes"/>
      <point x="705" y="749"/>
      <point x="723" y="734"/>
      <point x="723" y="711" type="curve" smooth="yes"/>
      <point x="723" y="632" type="line" smooth="yes"/>
      <point x="723" y="619"/>
      <point x="713" y="605"/>
      <point x="701" y="601" type="curve" smooth="yes"/>
      <point x="677" y="593"/>
      <point x="657" y="589"/>
      <point x="633" y="589" type="curve" smooth="yes"/>
      <point x="528" y="589"/>
      <point x="465" y="648"/>
      <point x="465" y="745" type="curve" smooth="yes"/>
      <point x="465" y="836"/>
      <point x="538" y="919"/>
      <point x="660" y="919" type="curve" smooth="yes"/>
      <point x="810" y="919"/>
      <point x="890" y="806"/>
      <point x="890" y="681" type="curve" smooth="yes"/>
      <point x="890" y="574"/>
      <point x="830" y="487"/>
    </contour>
    <contour>
      <point x="479" y="120" type="curve" smooth="yes"/>
      <point x="490" y="61"/>
      <point x="539" y="23"/>
      <point x="609" y="23" type="curve" smooth="yes"/>
      <point x="757" y="23"/>
      <point x="821" y="149"/>
      <point x="821" y="295" type="curve" smooth="yes"/>
      <point x="821" y="412"/>
      <point x="769" y="553"/>
      <point x="632" y="553" type="curve" smooth="yes"/>
      <point x="537" y="553"/>
      <point x="496" y="481"/>
      <point x="496" y="421" type="curve" smooth="yes"/>
      <point x="496" y="350"/>
      <point x="540" y="295"/>
      <point x="617" y="295" type="curve" smooth="yes"/>
      <point x="664" y="295"/>
      <point x="710" y="316"/>
      <point x="711" y="366" type="curve"/>
      <point x="737" y="334" type="line"/>
      <point x="702" y="342" type="line"/>
      <point x="741" y="380" type="line"/>
      <point x="747" y="351"/>
      <point x="750" y="321"/>
      <point x="750" y="275" type="curve" smooth="yes"/>
      <point x="750" y="147"/>
      <point x="696" y="73"/>
      <point x="605" y="73" type="curve" smooth="yes"/>
      <point x="531" y="73"/>
      <point x="485" y="117"/>
      <point x="485" y="200" type="curve" smooth="yes"/>
      <point x="485" y="226" type="line"/>
      <point x="518" y="193" type="line"/>
      <point x="376" y="193" type="line"/>
      <point x="409" y="226" type="line"/>
      <point x="409" y="200" type="line" smooth="yes"/>
      <point x="409" y="117"/>
      <point x="363" y="73"/>
      <point x="289" y="73" type="curve" smooth="yes"/>
      <point x="198" y="73"/>
      <point x="144" y="147"/>
      <point x="144" y="275" type="curve" smooth="yes"/>
      <point x="144" y="321"/>
      <point x="147" y="351"/>
      <point x="153" y="380" type="curve"/>
      <point x="192" y="342" type="line"/>
      <point x="157" y="334" type="line"/>
      <point x="183" y="366" type="line"/>
      <point x="184" y="316"/>
      <point x="230" y="295"/>
      <point x="277" y="295" type="curve" smooth="yes"/>
      <point x="354" y="295"/>
      <point x="398" y="350"/>
      <point x="398" y="421" type="curve" smooth="yes"/>
      <point x="398" y="481"/>
      <point x="357" y="553"/>
      <point x="262" y="553" type="curve" smooth="yes"/>
      <point x="125" y="553"/>
      <point x="73" y="412"/>
      <point x="73" y="295" type="curve" smooth="yes"/>
      <point x="73" y="149"/>
      <point x="137" y="23"/>
      <point x="285" y="23" type="curve" smooth="yes"/>
      <point x="355" y="23"/>
      <point x="404" y="61"/>
      <point x="415" y="120" type="curve" smooth="yes"/>
      <point x="424" y="172"/>
      <point x="470" y="172"/>
    </contour>
    <contour>
      <point x="160" y="416" type="curve" smooth="yes"/>
      <point x="160" y="466"/>
      <point x="194" y="507"/>
      <point x="246" y="507" type="curve" smooth="yes"/>
      <point x="305" y="507"/>
      <point x="335" y="467"/>
      <point x="335" y="418" type="curve" smooth="yes"/>
      <point x="335" y="368"/>
      <point x="304" y="327"/>
      <point x="249" y="327" type="curve" smooth="yes"/>
      <point x="193" y="327"/>
      <point x="160" y="362"/>
    </contour>
    <contour>
      <point x="559" y="418" type="curve" smooth="yes"/>
      <point x="559" y="467"/>
      <point x="589" y="507"/>
      <point x="648" y="507" type="curve" smooth="yes"/>
      <point x="700" y="507"/>
      <point x="734" y="466"/>
      <point x="734" y="416" type="curve" smooth="yes"/>
      <point x="734" y="362"/>
      <point x="701" y="327"/>
      <point x="645" y="327" type="curve" smooth="yes"/>
      <point x="590" y="327"/>
      <point x="559" y="368"/>
    </contour>
    <contour>
      <point x="712" y="511" type="line"/>
      <point x="780" y="539"/>
      <point x="824" y="602"/>
      <point x="824" y="681" type="curve" smooth="yes"/>
      <point x="824" y="770"/>
      <point x="768" y="853"/>
      <point x="660" y="853" type="curve" smooth="yes"/>
      <point x="584" y="853"/>
      <point x="531" y="806"/>
      <point x="531" y="745" type="curve" smooth="yes"/>
      <point x="531" y="686"/>
      <point x="572" y="655"/>
      <point x="633" y="655" type="curve" smooth="yes"/>
      <point x="649" y="655"/>
      <point x="663" y="657"/>
      <point x="679" y="663" type="curve"/>
      <point x="657" y="632" type="line"/>
      <point x="657" y="711" type="line"/>
      <point x="698" y="679" type="line"/>
      <point x="683" y="675"/>
      <point x="673" y="674"/>
      <point x="659" y="674" type="curve" smooth="yes"/>
      <point x="607" y="674"/>
      <point x="584" y="702"/>
      <point x="584" y="743" type="curve" smooth="yes"/>
      <point x="584" y="781"/>
      <point x="610" y="817"/>
      <point x="666" y="817" type="curve" smooth="yes"/>
      <point x="730" y="817"/>
      <point x="770" y="755"/>
      <point x="770" y="682" type="curve" smooth="yes"/>
      <point x="770" y="595"/>
      <point x="724" y="548"/>
      <point x="660" y="537" type="curve"/>
      <point x="680" y="589" type="line"/>
      <point x="750" y="500" type="line"/>
    </contour>
  </outline>
</glyph>
<glyph name="knMA.base" format="1">
  <advance width="991"/>
  <outline>
    <contour>
      <point x="726" y="470" type="curve" smooth="yes"/>
      <point x="800" y="470" type="line" smooth="yes"/>
      <point x="818" y="470"/>
      <point x="833" y="455"/>
      <point x="833" y="437" type="curve" smooth="yes"/>
      <point x="833" y="419"/>
      <point x="818" y="404"/>
      <point x="800" y="404" type="curve" smooth="yes"/>
      <point x="726" y="404" type="line" smooth="yes"/>
      <point x="708" y="404"/>
      <point x="693" y="419"/>
      <point x="693" y="437" type="curve" smooth="yes"/>
      <point x="693" y="455"/>
      <point x="708" y="470"/>
    </contour>
    <component base="knMA"/>
    <component base="knMA"/>
  </outline>
</glyph>
<glyph name="knMAc2" format="1">
  <advance width="0"/>
  <outline>
    <contour>
      <point x="3" y="-359" type="line" smooth="yes"/>
      <point x="3" y="-371"/>
      <point x="-6" y="-384"/>
      <point x="-17" y="-389" type="curve" smooth="yes"/>
      <point x="-67" y="-411"/>
      <point x="-116" y="-420"/>
      <point x="-161" y="-420" type="curve" smooth="yes"/>
      <point x="-311" y="-420"/>
      <point x="-398" y="-341"/>
      <point x="-398" y="-225" type="curve" smooth="yes"/>
      <point x="-398" y="-112"/>
      <point x="-315" y="-31"/>
      <point x="-181" y="-31" type="curve" smooth="yes"/>
      <point x="-78" y="-31"/>
      <point x="-9" y="-83"/>
      <point x="-9" y="-167" type="curve" smooth="yes"/>
      <point x="-9" y="-236"/>
      <point x="-57" y="-298"/>
      <point x="-141" y="-298" type="curve" smooth="yes"/>
      <point x="-235" y="-298"/>
      <point x="-286" y="-247"/>
      <point x="-286" y="-140" type="curve" smooth="yes"/>
      <point x="-286" y="-26" type="line" smooth="yes"/>
      <point x="-286" y="-8"/>
      <point x="-271" y="7"/>
      <point x="-253" y="7" type="curve" smooth="yes"/>
      <point x="-171" y="7" type="line" smooth="yes"/>
      <point x="-153" y="7"/>
      <point x="-138" y="-8"/>
      <point x="-138" y="-26" type="curve" smooth="yes"/>
      <point x="-138" y="-129" type="line"/>
      <point x="-138" y="-116"/>
      <point x="-154" y="-162"/>
      <point x="-145" y="-162" type="curve"/>
      <point x="-147" y="-162"/>
      <point x="-156" y="-158"/>
      <point x="-156" y="-166" type="curve"/>
      <point x="-156" y="-159"/>
      <point x="-174" y="-166"/>
      <point x="-174" y="-166" type="curve"/>
      <point x="-212" y="-166"/>
      <point x="-249" y="-181"/>
      <point x="-249" y="-227" type="curve" smooth="yes"/>
      <point x="-249" y="-269"/>
      <point x="-208" y="-282"/>
      <point x="-159" y="-282" type="curve" smooth="yes"/>
      <point x="-121" y="-282"/>
      <point x="-81" y="-272"/>
      <point x="-43" y="-256" type="curve" smooth="yes"/>
      <point x="-18" y="-245"/>
      <point x="3" y="-258"/>
      <point x="3" y="-286" type="curve" smooth="yes"/>
    </contour>
    <contour>
      <point x="-63" y="-359" type="line"/>
      <point x="-63" y="-286" type="line"/>
      <point x="-17" y="-316" type="line"/>
      <point x="-63" y="-336"/>
      <point x="-113" y="-348"/>
      <point x="-159" y="-348" type="curve" smooth="yes"/>
      <point x="-266" y="-348"/>
      <point x="-315" y="-299"/>
      <point x="-315" y="-227" type="curve" smooth="yes"/>
      <point x="-315" y="-141"/>
      <point x="-252" y="-100"/>
      <point x="-174" y="-100" type="curve" smooth="yes"/>
      <point x="-116" y="-100"/>
      <point x="-90" y="-131"/>
      <point x="-90" y="-166" type="curve" smooth="yes"/>
      <point x="-90" y="-206"/>
      <point x="-111" y="-228"/>
      <point x="-145" y="-228" type="curve" smooth="yes"/>
      <point x="-172" y="-228"/>
      <point x="-204" y="-240"/>
      <point x="-204" y="-129" type="curve" smooth="yes"/>
      <point x="-204" y="-26" type="line"/>
      <point x="-171" y="-59" type="line"/>
      <point x="-253" y="-59" type="line"/>
      <point x="-220" y="-26" type="line"/>
      <point x="-220" y="-140" type="line" smooth="yes"/>
      <point x="-220" y="-199"/>
      <point x="-195" y="-232"/>
      <point x="-141" y="-232" type="curve" smooth="yes"/>
      <point x="-99" y="-232"/>
      <point x="-75" y="-202"/>
      <point x="-75" y="-167" type="curve" smooth="yes"/>
      <point x="-75" y="-115"/>
      <point x="-128" y="-97"/>
      <point x="-181" y="-97" type="curve" smooth="yes"/>
      <point x="-269" y="-97"/>
      <point x="-332" y="-146"/>
      <point x="-332" y="-225" type="curve" smooth="yes"/>
      <point x="-332" y="-309"/>
      <point x="-261" y="-354"/>
      <point x="-161" y="-354" type="curve" smooth="yes"/>
      <point x="-124" y="-354"/>
      <point x="-85" y="-347"/>
      <point x="-43" y="-329" type="curve"/>
    </contour>
  </outline>
</glyph>
<glyph name="knNAc2" format="1">
  <advance width="0"/>
  <outline>
    <contour>
      <point x="3" y="-376" type="curve" smooth="yes"/>
      <point x="3" y="-394"/>
      <point x="-12" y="-409"/>
      <point x="-30" y="-409" type="curve" smooth="yes"/>
      <point x="-112" y="-409" type="line" smooth="yes"/>
      <point x="-130" y="-409"/>
      <point x="-145" y="-394"/>
      <point x="-145" y="-376" type="curve" smooth="yes"/>
      <point x="-145" y="-271"/>
      <point x="-178" y="-211"/>
      <point x="-253" y="-211" type="curve" smooth="yes"/>
      <point x="-285" y="-211"/>
      <point x="-312" y="-225"/>
      <point x="-312" y="-253" type="curve" smooth="yes"/>
      <point x="-312" y="-263"/>
      <point x="-306" y="-272"/>
      <point x="-293" y="-272" type="curve" smooth="yes"/>
      <point x="-248" y="-272"/>
      <point x="-260" y="-194"/>
      <point x="-260" y="-159" type="curve" smooth="yes"/>
      <point x="-260" y="-26" type="line" smooth="yes"/>
      <point x="-260" y="-8"/>
      <point x="-245" y="7"/>
      <point x="-227" y="7" type="curve" smooth="yes"/>
      <point x="-145" y="7" type="line" smooth="yes"/>
      <point x="-127" y="7"/>
      <point x="-112" y="-8"/>
      <point x="-112" y="-26" type="curve" smooth="yes"/>
      <point x="-112" y="-170" type="line" smooth="yes"/>
      <point x="-112" y="-308"/>
      <point x="-160" y="-408"/>
      <point x="-297" y="-408" type="curve" smooth="yes"/>
      <point x="-394" y="-408"/>
      <point x="-459" y="-342"/>
      <point x="-459" y="-254" type="curve" smooth="yes"/>
      <point x="-459" y="-149"/>
      <point x="-373" y="-74"/>
      <point x="-254" y="-74" type="curve" smooth="yes"/>
      <point x="-86" y="-74"/>
      <point x="3" y="-191"/>
    </contour>
    <contour>
      <point x="-63" y="-376" type="line"/>
      <point x="-63" y="-239"/>
      <point x="-122" y="-140"/>
      <point x="-254" y="-140" type="curve" smooth="yes"/>
      <point x="-329" y="-140"/>
      <point x="-393" y="-183"/>
      <point x="-393" y="-254" type="curve" smooth="yes"/>
      <point x="-393" y="-306"/>
      <point x="-352" y="-342"/>
      <point x="-297" y="-342" type="curve" smooth="yes"/>
      <point x="-198" y="-342"/>
      <point x="-178" y="-258"/>
      <point x="-178" y="-170" type="curve" smooth="yes"/>
      <point x="-178" y="-26" type="line"/>
      <point x="-145" y="-59" type="line"/>
      <point x="-227" y="-59" type="line"/>
      <point x="-194" y="-26" type="line"/>
      <point x="-194" y="-159" type="line" smooth="yes"/>
      <point x="-194" y="-263"/>
      <point x="-222" y="-338"/>
      <point x="-293" y="-338" type="curve" smooth="yes"/>
      <point x="-352" y="-338"/>
      <point x="-378" y="-297"/>
      <point x="-378" y="-253" type="curve" smooth="yes"/>
      <point x="-378" y="-195"/>
      <point x="-335" y="-145"/>
      <point x="-253" y="-145" type="curve" smooth="yes"/>
      <point x="-148" y="-145"/>
      <point x="-79" y="-207"/>
      <point x="-79" y="-376" type="curve"/>
      <point x="-112" y="-343" type="line"/>
      <point x="-30" y="-343" type="line"/>
    </contour>
  </outline>
</glyph>
<glyph name="knNNA.base" format="1">
  <advance width="760"/>
  <outline>
    <contour>
      <point x="125" y="470" type="curve" smooth="yes"/>
      <point x="565" y="470" type="line" smooth="yes"/>
      <point x="583" y="470"/>
      <point x="598" y="455"/>
      <point x="598" y="437" type="curve" smooth="yes"/>
      <point x="598" y="419"/>
      <point x="583" y="404"/>
      <point x="565" y="404" type="curve" smooth="yes"/>
      <point x="125" y="404" type="line" smooth="yes"/>
      <point x="107" y="404"/>
      <point x="92" y="419"/>
      <point x="92" y="437" type="curve" smooth="yes"/>
      <point x="92" y="455"/>
      <point x="107" y="470"/>
    </contour>
    <contour>
      <point x="226" y="142" type="curve" smooth="yes"/>
      <point x="192" y="143"/>
      <point x="134" y="137"/>
      <point x="134" y="102" type="curve" smooth="yes"/>
      <point x="134" y="69"/>
      <point x="181" y="60"/>
      <point x="225" y="60" type="curve" smooth="yes"/>
      <point x="250" y="60"/>
      <point x="270" y="62"/>
      <point x="286" y="65" type="curve" smooth="yes"/>
      <point x="303" y="69"/>
      <point x="321" y="58"/>
      <point x="325" y="40" type="curve" smooth="yes"/>
      <point x="329" y="23"/>
      <point x="318" y="5"/>
      <point x="300" y="1" type="curve" smooth="yes"/>
      <point x="280" y="-4"/>
      <point x="256" y="-6"/>
      <point x="225" y="-6" type="curve" smooth="yes"/>
      <point x="113" y="-6"/>
      <point x="68" y="45"/>
      <point x="68" y="102" type="curve" smooth="yes"/>
      <point x="68" y="163"/>
      <point x="138" y="211"/>
      <point x="228" y="208" type="curve" smooth="yes"/>
      <point x="246" y="207"/>
      <point x="261" y="192"/>
      <point x="260" y="174" type="curve" smooth="yes"/>
      <point x="259" y="156"/>
      <point x="244" y="141"/>
    </contour>
    <contour>
      <point x="625" y="92" type="curve" smooth="yes"/>
      <point x="603" y="110"/>
      <point x="576" y="127"/>
      <point x="536" y="127" type="curve" smooth="yes"/>
      <point x="503" y="127"/>
      <point x="473" y="112"/>
      <point x="473" y="89" type="curve" smooth="yes"/>
      <point x="473" y="64"/>
      <point x="506" y="56"/>
      <point x="531" y="56" type="curve" smooth="yes"/>
      <point x="591" y="56"/>
      <point x="626" y="100"/>
      <point x="625" y="170" type="curve" smooth="yes"/>
      <point x="624" y="249"/>
      <point x="579" y="291"/>
      <point x="513" y="291" type="curve" smooth="yes"/>
      <point x="467" y="291"/>
      <point x="430" y="260"/>
      <point x="403" y="224" type="curve" smooth="yes"/>
      <point x="398" y="217"/>
      <point x="386" y="211"/>
      <point x="377" y="211" type="curve" smooth="yes"/>
      <point x="373" y="211" type="line" smooth="yes"/>
      <point x="364" y="211"/>
      <point x="352" y="217"/>
      <point x="346" y="225" type="curve" smooth="yes"/>
      <point x="322" y="258"/>
      <point x="278" y="289"/>
      <point x="218" y="289" type="curve" smooth="yes"/>
      <point x="181" y="289"/>
      <point x="146" y="275"/>
      <point x="146" y="250" type="curve" smooth="yes"/>
      <point x="146" y="218"/>
      <point x="196" y="208"/>
      <point x="240" y="208" type="curve" smooth="yes"/>
      <point x="244" y="208"/>
      <point x="246" y="208"/>
      <point x="250" y="208" type="curve" smooth="yes"/>
      <point x="268" y="208"/>
      <point x="283" y="193"/>
      <point x="283" y="175" type="curve" smooth="yes"/>
      <point x="283" y="157"/>
      <point x="268" y="142"/>
      <point x="250" y="142" type="curve" smooth="yes"/>
      <point x="246" y="142"/>
      <point x="244" y="142"/>
      <point x="240" y="142" type="curve" smooth="yes"/>
      <point x="128" y="142"/>
      <point x="80" y="196"/>
      <point x="80" y="250" type="curve" smooth="yes"/>
      <point x="80" y="299"/>
      <point x="119" y="355"/>
      <point x="218" y="355" type="curve" smooth="yes"/>
      <point x="302" y="355"/>
      <point x="366" y="310"/>
      <point x="400" y="263" type="curve"/>
      <point x="373" y="277" type="line"/>
      <point x="377" y="277" type="line"/>
      <point x="351" y="264" type="line"/>
      <point x="390" y="316"/>
      <point x="447" y="357"/>
      <point x="513" y="357" type="curve" smooth="yes"/>
      <point x="615" y="357"/>
      <point x="690" y="297"/>
      <point x="691" y="170" type="curve" smooth="yes"/>
      <point x="692" y="52"/>
      <point x="625" y="-10"/>
      <point x="531" y="-10" type="curve" smooth="yes"/>
      <point x="455" y="-10"/>
      <point x="407" y="36"/>
      <point x="407" y="89" type="curve" smooth="yes"/>
      <point x="407" y="136"/>
      <point x="447" y="193"/>
      <point x="536" y="193" type="curve" smooth="yes"/>
      <point x="596" y="193"/>
      <point x="635" y="170"/>
      <point x="667" y="142" type="curve" smooth="yes"/>
      <point x="681" y="131"/>
      <point x="683" y="109"/>
      <point x="671" y="96" type="curve" smooth="yes"/>
      <point x="660" y="82"/>
      <point x="638" y="80"/>
    </contour>
  </outline>
</glyph>
